<?xml version="1.0" encoding="utf-8"?>
<!-- Generator: Adobe Illustrator 15.0.2, SVG Export Plug-In . SVG Version: 6.00 Build 0)  -->
<!DOCTYPE svg PUBLIC "-//W3C//DTD SVG 1.1//EN" "http://www.w3.org/Graphics/SVG/1.1/DTD/svg11.dtd">
<svg version="1.1" id="Layer_1" xmlns="http://www.w3.org/2000/svg" xmlns:xlink="http://www.w3.org/1999/xlink" x="0px" y="0px"
	 width="50px" height="50px" viewBox="0 0 50 50" enable-background="new 0 0 50 50" xml:space="preserve">
<path d="M24.679,13.65c-6.853,0-12.428,5.576-12.428,12.428c0,6.854,5.575,12.428,12.428,12.428c6.854,0,12.43-5.575,12.429-12.428
	C37.108,19.226,31.532,13.65,24.679,13.65z M24.679,37.756c-6.439,0-11.679-5.237-11.678-11.678c0-6.439,5.239-11.678,11.678-11.678
	s11.679,5.239,11.679,11.678C36.359,32.517,31.119,37.756,24.679,37.756z M18.708,21.983h11.943c0.633,0,0.307,0.582-0.037,0.768
	c-0.346,0.185-5.118,2.748-5.296,2.843c-0.176,0.095-0.405,0.141-0.637,0.141c-0.232,0-0.463-0.046-0.64-0.141
	c-0.179-0.095-4.95-2.659-5.295-2.843C18.4,22.565,18.075,21.983,18.708,21.983z M31.032,24.317c0,0.13,0,5.178,0,5.178
	c0,0.294-0.395,0.677-0.699,0.677H19.026c-0.306,0-0.7-0.383-0.7-0.677c0,0,0-5.048,0-5.178s-0.003-0.299,0.273-0.155
	c0.392,0.204,5.201,2.719,5.441,2.844c0.238,0.125,0.407,0.143,0.639,0.143c0.232,0,0.4-0.018,0.639-0.143
	c0.24-0.125,5.048-2.64,5.439-2.844C31.036,24.018,31.032,24.187,31.032,24.317z"/>
</svg>
