<?xml version="1.0" encoding="utf-8"?>
<!-- Generator: Adobe Illustrator 19.0.0, SVG Export Plug-In . SVG Version: 6.00 Build 0)  -->
<svg version="1.1" id="Layer_1" xmlns="http://www.w3.org/2000/svg" xmlns:xlink="http://www.w3.org/1999/xlink" x="0px" y="0px"
	 viewBox="-280 372 50 50" style="enable-background:new -280 372 50 50;" xml:space="preserve">
<path d="M-251.7,392.3l2.1,2.2l-0.7,0.7l-1.9-0.2l-0.3,3.5l-8.4,4.1l-0.3-0.3l3.9-4c0.5,0.3,1.2,0.3,1.6-0.2c0.5-0.5,0.5-1.4,0-1.9
	c-0.5-0.5-1.3-0.5-1.9,0c-0.4,0.5-0.5,1.2-0.2,1.7l-3.9,4l-0.2-0.2l4-8.6l3.4-0.3l-0.2-2l0.7-0.7L-251.7,392.3L-251.7,392.3z
	 M-252.5,388.7l-1,1l4.3,4.4l1-1L-252.5,388.7z"/>
</svg>
