<?xml version="1.0" encoding="utf-8"?>
<!-- Generator: Adobe Illustrator 19.0.0, SVG Export Plug-In . SVG Version: 6.00 Build 0)  -->
<svg version="1.1" id="Layer_1" xmlns="http://www.w3.org/2000/svg" xmlns:xlink="http://www.w3.org/1999/xlink" x="0px" y="0px"
	 viewBox="-6886 1704 50 50" style="enable-background:new -6886 1704 50 50;" xml:space="preserve">
<path d="M-6852.1,1719.1c-2.4-2.4-5.5-3.7-8.9-3.7c-3.3,0-6.5,1.3-8.9,3.7c-2.4,2.4-3.7,5.5-3.7,8.9c0,3,1,5.7,2.9,8
	c1.8,2.1,4.3,3.2,5.6,3.7l0.2,0.1c1.2,0.5,1.4,0.8,1.5,0.9c0.4,1.4,1,2.3,1.9,3.3c0.9,0.9,1.8,1.5,2.9,1.9l1.4,0.5l-0.3-1.5
	c-0.1-0.4-0.3-2.1-0.2-2.6c0.2-0.9,1-2.5,2.6-3.5l0.2-0.1c1.9-0.9,2.6-1.4,3.9-3.2c1.6-2.1,2.5-4.7,2.5-7.5
	C-6848.4,1724.6-6849.8,1721.4-6852.1,1719.1z M-6859.3,1743.5c-0.4-0.2-0.7-0.5-0.9-0.8c-0.7-0.7-1.1-1.4-1.5-2.5
	c-0.2-0.8-1-1.5-2.5-2l-0.6-0.3c-1.3-0.6-3.2-1.5-4.5-3.1c-1.6-1.9-2.4-4.4-2.4-6.9c0-2.9,1.1-5.6,3.2-7.6c2.1-2.1,4.8-3.2,7.6-3.2
	c2.9,0,5.6,1.2,7.6,3.3c2.1,2.1,3.2,4.8,3.2,7.6c0,2.3-0.7,4.6-2.1,6.5c-1.1,1.4-1.6,1.7-3.4,2.7l-0.2,0.1c-2.2,1.1-3.5,3.5-3.5,5
	C-6859.4,1742.5-6859.3,1743.4-6859.3,1743.5z"/>
</svg>
