<?xml version="1.0" encoding="utf-8"?>
<!-- Generator: Adobe Illustrator 15.0.2, SVG Export Plug-In . SVG Version: 6.00 Build 0)  -->
<!DOCTYPE svg PUBLIC "-//W3C//DTD SVG 1.1//EN" "http://www.w3.org/Graphics/SVG/1.1/DTD/svg11.dtd">
<svg version="1.1" id="Layer_1" xmlns="http://www.w3.org/2000/svg" xmlns:xlink="http://www.w3.org/1999/xlink" x="0px" y="0px"
	 width="50px" height="50px" viewBox="0 0 50 50" enable-background="new 0 0 50 50" xml:space="preserve">
<path d="M29.756,20.252c0-2.34-1.898-4.236-4.237-4.236c-2.34,0-4.236,1.896-4.236,4.236c0,0.413,0.078,0.804,0.188,1.182
	c-0.001,0-0.004,0.001-0.005,0.002c0.594,2.295,2.66,5.763,4.035,7.643h0.038c1.374-1.88,3.442-5.348,4.036-7.643
	c-0.002-0.001-0.006-0.001-0.008-0.002C29.678,21.056,29.756,20.666,29.756,20.252z M25.519,22.483c-1.231,0-2.23-0.999-2.23-2.23
	s0.999-2.23,2.23-2.23c1.233,0,2.231,0.999,2.231,2.23S26.752,22.483,25.519,22.483z"/>
</svg>
