<?xml version="1.0" encoding="utf-8"?>
<!-- Generator: Adobe Illustrator 21.0.2, SVG Export Plug-In . SVG Version: 6.00 Build 0)  -->
<svg version="1.1" id="Layer_1" xmlns="http://www.w3.org/2000/svg" xmlns:xlink="http://www.w3.org/1999/xlink" x="0px" y="0px"
	 viewBox="0 0 50 50" style="enable-background:new 0 0 50 50;" xml:space="preserve">
<path d="M21.055,20.133c0-2.03-0.012-4.06,0.003-6.089c0.017-2.257,1.26-3.713,3.43-3.97c0.724-0.086,1.473-0.09,2.197-0.009
	c2.13,0.238,3.44,1.614,3.472,3.828c0.062,4.201,0.076,8.405-0.006,12.605c-0.047,2.443-1.584,3.803-4.002,3.815
	c-0.21,0.001-0.42,0-0.629,0c-3.182-0.002-4.465-1.3-4.466-4.517C21.054,23.908,21.055,22.02,21.055,20.133z M16.531,22.3
	c0.003,1.493,0.008,2.956-0.005,4.418c-0.015,1.768,0.52,3.356,1.541,4.78c1.511,2.107,3.541,3.371,6.07,3.72
	c0.159,0.022,0.28,0.153,0.28,0.314l0,3.255c0,0.179-0.145,0.324-0.324,0.324h-4.409c-0.548,0-0.992,0.444-0.992,0.992v0
	c0,0.548,0.444,0.992,0.992,0.992h11.836c0.561,0,1.015-0.455,1.015-1.015v0c0-0.561-0.455-1.015-1.015-1.015h-4.539
	c-0.179,0-0.324-0.145-0.324-0.324l0-3.186c0-0.157,0.116-0.288,0.27-0.314c3.817-0.645,6.546-2.736,7.387-6.474
	c0.46-2.043,0.425-4.249,0.406-6.426c-0.005-0.603-0.495-1.088-1.098-1.088l0,0c-0.606,0-1.097,0.497-1.098,1.103
	c0,1.342-0.001,2.645,0,3.944c0.002,1.683-0.522,3.357-1.628,4.625c-1.568,1.797-3.52,2.213-5.744,2.157
	c-3.882-0.097-6.603-2.895-6.495-6.793c0.037-1.333,0.021-2.668,0.012-4.002c-0.004-0.59-0.481-1.066-1.07-1.066h0
	C17.011,21.222,16.53,21.707,16.531,22.3z"/>
</svg>
