<?xml version="1.0" encoding="utf-8"?>
<!-- Generator: Adobe Illustrator 15.0.2, SVG Export Plug-In . SVG Version: 6.00 Build 0)  -->
<!DOCTYPE svg PUBLIC "-//W3C//DTD SVG 1.1//EN" "http://www.w3.org/Graphics/SVG/1.1/DTD/svg11.dtd">
<svg version="1.1" id="Layer_1" xmlns="http://www.w3.org/2000/svg" xmlns:xlink="http://www.w3.org/1999/xlink" x="0px" y="0px"
	 width="50px" height="50px" viewBox="0 0 50 50" enable-background="new 0 0 50 50" xml:space="preserve">
<path d="M31.996,23.561c-1.563,6.339-12.055,9.029-16.881,2.447c1.849,1.764,5.068,1.921,7.109-0.19
	c-1.197,0.175-2.068-1-0.597-1.634c-1.321,0.145-2.058-0.559-2.359-1.159c0.309-0.324,0.652-0.475,1.313-0.519
	c-1.449-0.342-1.983-1.05-2.146-1.911c0.401-0.096,0.903-0.178,1.178-0.142c-1.268-0.663-1.708-1.662-1.639-2.412
	c2.267,0.843,3.71,1.519,4.917,2.167c0.431,0.23,0.911,0.643,1.453,1.169c0.688-1.825,1.54-3.704,2.999-4.637
	c-0.023,0.211-0.138,0.408-0.287,0.569c0.415-0.377,0.952-0.635,1.498-0.711c-0.062,0.411-0.653,0.643-1.011,0.777
	c0.271-0.086,1.707-0.726,1.864-0.359c0.185,0.414-0.991,0.605-1.19,0.678c-0.151,0.049-0.299,0.105-0.446,0.165
	c1.818-0.182,3.557,1.321,4.062,3.184c0.037,0.135,0.073,0.283,0.106,0.44c0.664,0.248,1.87-0.013,2.259-0.25
	c-0.281,0.663-1.01,1.154-2.088,1.242c0.519,0.215,1.497,0.335,2.171,0.22C33.856,23.153,33.168,23.568,31.996,23.561z"/>
</svg>
