<?xml version="1.0" encoding="utf-8"?>
<!-- Generator: Adobe Illustrator 19.1.0, SVG Export Plug-In . SVG Version: 6.00 Build 0)  -->
<svg version="1.1" id="Layer_1" xmlns="http://www.w3.org/2000/svg" xmlns:xlink="http://www.w3.org/1999/xlink" x="0px" y="0px"
	 viewBox="-1.5 0 33 30" enable-background="new -1.5 0 33 30" xml:space="preserve">
<path fill="#231F20" d="M28.6,0H1.4C0,0-1.2,1.1-1.2,2.5v18.1c0,1.4,1.1,2.5,2.5,2.5h10.5V29H7.1c-0.3,0-0.5,0.2-0.5,0.5
	S6.8,30,7.1,30h15.8c0.3,0,0.5-0.2,0.5-0.5S23.2,29,22.9,29h-4.7v-5.8h10.5c1.4,0,2.5-1.1,2.5-2.5V2.5C31.2,1.1,30,0,28.6,0z M1.4,1
	h27.3c0.8,0,1.5,0.7,1.5,1.5v14.9H-0.2V2.5C-0.2,1.7,0.5,1,1.4,1z M17.1,29h-4.2v-5.8h4.2V29z M28.6,22.2H1.4
	c-0.8,0-1.5-0.7-1.5-1.5v-2.2h30.3v2.2C30.2,21.5,29.5,22.2,28.6,22.2z"/>
</svg>
