<?xml version="1.0" encoding="utf-8"?>
<!-- Generator: Adobe Illustrator 19.0.0, SVG Export Plug-In . SVG Version: 6.00 Build 0)  -->
<svg version="1.1" id="Layer_1" xmlns="http://www.w3.org/2000/svg" xmlns:xlink="http://www.w3.org/1999/xlink" x="0px" y="0px"
	 viewBox="0 0 11 13.2" style="enable-background:new 0 0 11 13.2;" xml:space="preserve">
<path d="M10.9,9.4L9.6,7.2l0-3c0-2.2-1.7-4-3.9-4.1l-0.4,0C3.1,0.2,1.4,2,1.4,4.3v2.9L0.1,9.4C0,9.5,0,9.7,0.1,9.9
	c0.1,0.2,0.3,0.3,0.4,0.3h10c0.2,0,0.3-0.1,0.4-0.2C11,9.7,11,9.5,10.9,9.4z"/>
<path d="M5.5,13.1c1.1,0,2.1-0.8,2.3-1.9H3.2C3.4,12.3,4.4,13.1,5.5,13.1z"/>
</svg>
