<?xml version="1.0" encoding="utf-8"?>
<!-- Generator: Adobe Illustrator 20.0.0, SVG Export Plug-In . SVG Version: 6.00 Build 0)  -->
<svg version="1.1" id="Layer_1" xmlns="http://www.w3.org/2000/svg" xmlns:xlink="http://www.w3.org/1999/xlink" x="0px" y="0px"
	 viewBox="0 0 19.346 13.444" style="enable-background:new 0 0 19.346 13.444;" xml:space="preserve">
<style type="text/css">
	.st0{fill:#231F20;}
</style>
<path class="st0" d="M9.672,13.229c-4.358,0-8.16-2.518-9.457-6.265c-0.055-0.157-0.055-0.325,0-0.483
	c1.299-3.747,5.1-6.265,9.457-6.265c4.359,0,8.16,2.518,9.458,6.265c0.055,0.157,0.055,0.326,0,0.483
	C17.832,10.711,14.031,13.229,9.672,13.229L9.672,13.229z M1.203,6.723c1.255,3.297,4.627,5.492,8.485,5.492
	c3.859,0,7.232-2.195,8.486-5.492C16.918,3.425,13.547,1.23,9.688,1.23C5.83,1.23,2.458,3.425,1.203,6.723L1.203,6.723z
	 M9.672,10.121c1.99,0,3.608-1.525,3.608-3.399c0-1.873-1.618-3.397-3.608-3.397c-0.368,0-0.666,0.281-0.666,0.627
	c0,0.347,0.298,0.627,0.666,0.627c1.256,0,2.276,0.961,2.276,2.143c0,1.182-1.02,2.144-2.276,2.144
	c-1.255,0-2.277-0.962-2.277-2.144c0-0.347-0.298-0.627-0.666-0.627c-0.368,0-0.666,0.281-0.666,0.627
	C6.063,8.597,7.683,10.121,9.672,10.121L9.672,10.121z"/>
</svg>
