<?xml version="1.0" encoding="utf-8"?>
<!-- Generator: Adobe Illustrator 20.0.0, SVG Export Plug-In . SVG Version: 6.00 Build 0)  -->
<svg version="1.1" id="Layer_1" xmlns="http://www.w3.org/2000/svg" xmlns:xlink="http://www.w3.org/1999/xlink" x="0px" y="0px"
	 viewBox="0 0 18.997 13.013" style="enable-background:new 0 0 18.997 13.013;" xml:space="preserve">
<style type="text/css">
	.st0{fill:#231F20;}
</style>
<path class="st0" d="M9.498,13.013c-4.359,0-8.16-2.518-9.457-6.265c-0.055-0.157-0.055-0.325,0-0.483C1.34,2.518,5.141,0,9.498,0
	c4.359,0,8.16,2.518,9.458,6.265c0.055,0.157,0.055,0.326,0,0.483C17.657,10.495,13.856,13.013,9.498,13.013L9.498,13.013z
	 M9.515,10.02c1.926,0,3.493-1.576,3.493-3.514c0-1.937-1.567-3.512-3.493-3.512c-0.357,0-0.645,0.29-0.645,0.648
	s0.288,0.648,0.645,0.648c1.216,0,2.203,0.994,2.203,2.215c0,1.222-0.987,2.217-2.203,2.217c-1.216,0-2.204-0.995-2.204-2.217
	c0-0.359-0.289-0.649-0.645-0.649c-0.357,0-0.645,0.29-0.645,0.649C6.02,8.444,7.589,10.02,9.515,10.02L9.515,10.02z"/>
</svg>
