<?xml version="1.0" encoding="utf-8"?>
<!-- Generator: Adobe Illustrator 21.0.2, SVG Export Plug-In . SVG Version: 6.00 Build 0)  -->
<svg version="1.1" id="Layer_1" xmlns="http://www.w3.org/2000/svg" xmlns:xlink="http://www.w3.org/1999/xlink" x="0px" y="0px"
	 viewBox="0 0 51 46" style="enable-background:new 0 0 51 46;" xml:space="preserve">
<path d="M37.758,16.833c-1.145-1.431-2.341-2.287-3.569-2.555c-1.108-2.203-2.505-3.413-4.155-3.586
	c-3.796-0.41-7.837,4.762-9.565,6.964c-0.291,0.37-0.52,0.663-0.655,0.809c-0.274,0.297-0.997,0.716-1.834,1.201
	c-2.146,1.243-5.083,2.946-5.653,5.307c-0.237,0.981-0.031,1.986,0.613,2.986c1.072,1.664,2.312,2.502,3.991,2.502
	c0.499,0,1.05-0.097,1.635-0.248c-0.116,0.348-0.195,0.7-0.227,1.056c-0.098,1.103,0.258,2.133,1.058,3.062
	c0.856,0.995,1.824,1.515,2.959,1.589c0.093,0.007,0.187,0.01,0.282,0.01c2.047,0,4.591-1.419,7.968-4.436
	C37.809,25.059,40.282,19.988,37.758,16.833z M13.361,27.687c-0.575-0.893-0.754-1.742-0.548-2.598
	c0.52-2.152,3.468-3.86,5.418-4.991c0.908-0.526,1.625-0.941,1.951-1.294c0.149-0.161,0.372-0.445,0.681-0.84
	c1.677-2.138,5.601-7.129,9.12-6.775c1.391,0.146,2.595,1.167,3.59,3.005c-0.193-0.011-0.386-0.01-0.58,0.008
	c-3.674,0.33-6.574,5.702-7.968,8.283c-0.318,0.589-0.592,1.097-0.71,1.225c-0.125,0.136-0.424,0.379-0.802,0.686
	c-1.29,1.049-3.707,3.015-4.721,5.248C16.277,30.39,14.682,29.741,13.361,27.687z M30.273,31.121c-3.379,3.02-5.953,4.449-7.884,4.3
	c-0.994-0.064-1.849-0.528-2.613-1.416c-0.708-0.823-1.024-1.729-0.938-2.692c0.237-2.664,3.448-5.274,4.991-6.528
	c0.409-0.333,0.704-0.573,0.854-0.734c0.154-0.167,0.375-0.569,0.783-1.327c1.352-2.504,4.166-7.716,7.573-8.022
	c0.102-0.01,0.204-0.015,0.306-0.015c1.366,0,2.719,0.826,4.025,2.46C39.665,20.018,37.145,24.98,30.273,31.121z M28.451,23.571
	c0.361,0.333,0.404,0.879,0.049,1.262c-0.565,0.611-2.207,1.795-2.568,1.462c-0.361-0.333,0.567-1.929,1.256-2.675
	C27.544,23.236,28.09,23.238,28.451,23.571z M21.944,20.069c-0.32-0.372,0.783-1.851,1.553-2.514
	c0.398-0.342,0.939-0.278,1.259,0.095c0.32,0.372,0.301,0.919-0.095,1.26C24.031,19.452,22.264,20.441,21.944,20.069z"/>
</svg>
