<?xml version="1.0" encoding="utf-8"?>
<!-- Generator: Adobe Illustrator 21.0.2, SVG Export Plug-In . SVG Version: 6.00 Build 0)  -->
<svg version="1.1" id="Layer_1" xmlns="http://www.w3.org/2000/svg" xmlns:xlink="http://www.w3.org/1999/xlink" x="0px" y="0px"
	 viewBox="0 0 51 46" style="enable-background:new 0 0 51 46;" xml:space="preserve">
<path d="M14.699,15.556H11.99c-0.149,0-0.269-0.12-0.269-0.269c0-0.149,0.12-0.269,0.269-0.269H14.5
	c-0.735-2.322-0.235-4.686,0.71-6.078c0.056-0.082,0.156-0.123,0.253-0.116c2.877,0.32,6.417,3.656,7.12,8.488
	c0.021,0.147-0.081,0.283-0.227,0.305c-0.145,0.017-0.283-0.08-0.305-0.227c-0.718-4.937-4.229-7.652-6.485-8.01
	c-1.32,2.11-1.556,6.353,2.096,9.134c0.118,0.09,0.141,0.258,0.051,0.376c-0.052,0.069-0.133,0.106-0.214,0.106
	c-0.057,0-0.114-0.018-0.163-0.055C16.023,17.944,15.187,16.766,14.699,15.556z M40.217,28.688
	c-0.163-0.164-0.331-0.332-0.497-0.507c-0.674-0.707-1.546-1.495-2.47-2.329c-1.501-1.356-3.052-2.757-3.649-3.748
	c0.011-0.212,0.026-0.417,0.041-0.615c0.136-1.787,0.243-3.198-3.589-5.037c-0.56-0.436-0.844-0.895-0.781-1.26
	c0.07-0.398,0.55-0.753,1.386-1.026c2.771-0.902,7.465-2.846,7.757-5.735c0.009-0.09-0.027-0.179-0.098-0.236
	c-0.071-0.058-0.164-0.075-0.251-0.048c-4.134,1.31-6.279,1.57-9.247,1.929l-1.031,0.126c-3.309,0.411-4.211,1.716-5.006,2.867
	c-0.085,0.122-0.054,0.29,0.068,0.374c0.121,0.083,0.288,0.054,0.374-0.068c0.767-1.11,1.56-2.258,4.63-2.64l1.029-0.125
	c2.892-0.35,5.01-0.607,8.915-1.815c-0.708,2.462-5.288,4.204-7.307,4.86c-1.053,0.343-1.642,0.829-1.749,1.444
	c-0.101,0.576,0.247,1.207,1.028,1.807c3.55,1.71,3.465,2.836,3.335,4.542c-0.017,0.229-0.035,0.466-0.046,0.712
	c-0.002,0.05,0.011,0.1,0.035,0.144c0.608,1.07,2.228,2.533,3.794,3.947c0.916,0.827,1.781,1.608,2.44,2.3
	c0.169,0.177,0.34,0.349,0.505,0.516c1.011,1.017,1.611,1.679,1.228,2.441c-1.851,3.675-3.294,5.539-4.292,5.539
	c-0.734,0-4.474-0.064-6.026-1.317c-0.071-0.057-0.166-0.075-0.252-0.047c-4.193,1.361-11.848,0.462-13.544-0.525
	c-0.082-0.048-0.183-0.049-0.266-0.003c-0.558,0.31-3.366,2.543-3.485,2.638c-0.116,0.092-0.135,0.262-0.043,0.378
	c0.053,0.067,0.132,0.101,0.211,0.101c0.059,0,0.118-0.019,0.167-0.058c0.744-0.592,2.67-2.105,3.29-2.514
	c2.023,1.007,9.388,1.865,13.699,0.537c1.749,1.28,5.499,1.347,6.248,1.347c1.269,0,2.74-1.8,4.772-5.835
	C42.12,30.603,41.196,29.673,40.217,28.688z M27.427,25.053c0-0.445-0.361-0.806-0.806-0.806c-0.445,0-0.806,0.361-0.806,0.806
	c0,0.445,0.361,0.806,0.806,0.806C27.065,25.859,27.427,25.498,27.427,25.053z"/>
</svg>
