<?xml version="1.0" encoding="utf-8"?>
<!-- Generator: Adobe Illustrator 20.0.0, SVG Export Plug-In . SVG Version: 6.00 Build 0)  -->
<svg version="1.1" id="Layer_1" xmlns="http://www.w3.org/2000/svg" xmlns:xlink="http://www.w3.org/1999/xlink" x="0px" y="0px"
	 viewBox="0 0 13 13" style="enable-background:new 0 0 13 13;" xml:space="preserve">
<g>
	<polygon points="7.4,5.4 6.5,2.6 5.6,5.4 2.7,5.4 5,7.1 4.1,9.9 6.5,8.2 8.8,9.9 7.9,7.1 10.3,5.4 	"/>
	<path d="M11.1,1.9C9.9,0.7,8.2,0,6.5,0C4.8,0,3.1,0.7,1.9,1.9C0.7,3.1,0,4.8,0,6.5c0,1.7,0.7,3.4,1.9,4.6C3.1,12.3,4.8,13,6.5,13
		c1.7,0,3.4-0.7,4.6-1.9C13.6,8.6,13.6,4.4,11.1,1.9z M10.5,10.5c-1.1,1.1-2.5,1.6-4,1.6c-1.5,0-2.9-0.6-4-1.6S0.9,8,0.9,6.5
		s0.6-2.9,1.6-4c1.1-1.1,2.5-1.6,4-1.6c1.5,0,2.9,0.6,4,1.6C12.7,4.7,12.7,8.3,10.5,10.5z"/>
</g>
</svg>
