<?xml version="1.0" encoding="utf-8"?>
<!-- Generator: Adobe Illustrator 20.0.0, SVG Export Plug-In . SVG Version: 6.00 Build 0)  -->
<svg version="1.1" id="Layer_1" xmlns="http://www.w3.org/2000/svg" xmlns:xlink="http://www.w3.org/1999/xlink" x="0px" y="0px"
	 viewBox="0 0 42.5 43.5" style="enable-background:new 0 0 42.5 43.5;" xml:space="preserve">
<style type="text/css">
	.st0{fill:#231F20;}
</style>
<g>
	<path d="M33.5,20.9L33.5,20.9c-0.1-0.2-0.2-0.3-0.4-0.4l-4.4-1.3v-5c0-0.6-0.5-1.1-1.1-1.1h-5.1l0-2.6c0-0.3-0.3-0.6-0.6-0.6
		c-0.3,0-0.6,0.3-0.6,0.6l0,2.6h-5.1c-0.6,0-1.1,0.5-1.1,1.1v5l-4.4,1.3c-0.2,0.1-0.3,0.2-0.4,0.4c-0.1,0.2,0,0.4,0.1,0.5l5.3,7.8
		c-1.5-0.6-3.1-1-4.7-1.2c-0.2,0-0.3,0-0.4,0.1c-0.1,0.1-0.2,0.2-0.2,0.4c0,0.3,0.2,0.6,0.5,0.6c6.2,0.7,10.2,4.5,10.6,4.9l0.1,0.1
		c0,0,0.1,0,0.1,0l0.1,0c0.1,0,0.1,0,0.2,0c0.1,0,0.2,0,0.2-0.1c0.1,0,0.1-0.1,0.2-0.1c0,0,4.1-4.2,10.6-4.9c0.2,0,0.3-0.1,0.4-0.2
		c0.1-0.1,0.1-0.3,0.1-0.4c0-0.2-0.1-0.3-0.2-0.4c-0.1-0.1-0.3-0.1-0.4-0.1c-1.6,0.2-3.2,0.6-4.7,1.2l5.3-7.8
		C33.5,21.3,33.5,21.1,33.5,20.9z M33.2,21L33.2,21L33.2,21L33.2,21L33.2,21z M32,21.4l-5.9,8.7c-1.6,0.8-2.8,1.7-3.6,2.3V18.5
		L32,21.4z M21.8,17.2l-5.5,1.7v-4.6h11.3v4.6l-5.5-1.7l-0.1,0l-0.1,0C21.9,17.2,21.9,17.2,21.8,17.2L21.8,17.2z M21.4,18.5v13.9
		c-0.7-0.6-2-1.5-3.6-2.3l-5.9-8.7L21.4,18.5z"/>
	<path class="st0" d="M21.3,0.5C9.5,0.5,0,10,0,21.8S9.5,43,21.3,43s21.3-9.5,21.3-21.3S33,0.5,21.3,0.5z M21.3,41.7
		c-11,0-20-9-20-20s9-20,20-20s20,9,20,20S32.3,41.7,21.3,41.7z"/>
</g>
</svg>
