<?xml version="1.0" encoding="utf-8"?>
<!-- Generator: Adobe Illustrator 19.0.0, SVG Export Plug-In . SVG Version: 6.00 Build 0)  -->
<svg version="1.1" id="Layer_1" xmlns="http://www.w3.org/2000/svg" xmlns:xlink="http://www.w3.org/1999/xlink" x="0px" y="0px"
	 viewBox="-6899 1719 25 20" style="enable-background:new -6899 1719 25 20;" xml:space="preserve">
<g>
	<path d="M-6899,1737h2v2h2v-2h7v2h2v-2h2v-18h-15V1737z M-6898,1720h13v8h-13V1720z M-6898,1729h13v7h-13V1729z"/>
	<rect x="-6894" y="1721" width="5" height="1"/>
	<polygon points="-6882,1720 -6882,1721 -6875,1721 -6875,1728 -6882,1728 -6882,1729 -6875,1729 -6875,1735 -6882,1735 -6882,1736 
		-6878,1736 -6878,1738 -6876,1738 -6876,1736 -6874,1736 -6874,1720 	"/>
	<rect x="-6882" y="1722" width="4" height="1"/>
	<path d="M-6876.8,1732c0-0.7-0.6-1.3-1.3-1.3c-0.7,0-1.3,0.6-1.3,1.3s0.6,1.3,1.3,1.3C-6877.4,1733.4-6876.8,1732.8-6876.8,1732z"
		/>
	<path d="M-6888.1,1731.7c-0.7,0-1.3,0.6-1.3,1.3s0.6,1.3,1.3,1.3c0.7,0.1,1.3-0.5,1.3-1.3
		C-6886.8,1732.3-6887.4,1731.7-6888.1,1731.7z"/>
	<path d="M-6895.1,1731.7c-0.7,0-1.3,0.6-1.3,1.3s0.6,1.3,1.3,1.3c0.7,0.1,1.3-0.5,1.3-1.3
		C-6893.8,1732.3-6894.4,1731.7-6895.1,1731.7z"/>
</g>
</svg>
