<?xml version="1.0" encoding="utf-8"?>
<!-- Generator: Adobe Illustrator 21.0.2, SVG Export Plug-In . SVG Version: 6.00 Build 0)  -->
<svg version="1.1" id="Layer_1" xmlns="http://www.w3.org/2000/svg" xmlns:xlink="http://www.w3.org/1999/xlink" x="0px" y="0px"
	 viewBox="0 0 51 46" style="enable-background:new 0 0 51 46;" xml:space="preserve">
<path d="M40.098,24.19c0.024,0.081,0.007,0.168-0.044,0.236c-0.05,0.067-0.13,0.107-0.215,0.107c-4.359,0-6.325,1.094-7.552,2.048
	c-1.721,1.339-4.105,6.154-4.105,11.713c0,0.148-0.12,0.269-0.269,0.269c-0.148,0-0.269-0.12-0.269-0.269
	c0-5.731,2.504-10.731,4.313-12.137c1.852-1.441,4.177-2.112,7.502-2.159c-0.745-1.762-3.123-3.032-4.573-3.667
	c-0.352,0.021-0.953,0.322-1.144,0.584c-0.052,0.072-0.134,0.11-0.217,0.11c-0.055,0-0.111-0.017-0.158-0.052
	c-0.12-0.088-0.146-0.255-0.058-0.375c0.246-0.336,0.823-0.654,1.311-0.762c-0.188-0.856-1.087-3.498-3.521-5.039
	c-2.329-1.473-5.344-1.488-8.965-0.041c-5.94,2.373-10.451,7.775-11.493,13.764c-0.026,0.146-0.168,0.244-0.311,0.218
	c-0.146-0.025-0.244-0.164-0.218-0.311c1.072-6.168,5.713-11.73,11.823-14.17c3.789-1.514,6.969-1.485,9.451,0.086
	c2.709,1.714,3.636,4.666,3.788,5.526C37.13,20.735,39.515,22.171,40.098,24.19z M22.972,12.606
	c0.147,0.024,0.281-0.087,0.298-0.234C23.54,10.112,25.497,9.1,27.318,9.1c0.925,0,1.901,0.508,2.485,1.295
	c0.082,0.111,0.237,0.141,0.355,0.069c0.961-0.584,2.255-0.632,3.224-0.12c0.78,0.412,1.234,1.126,1.279,2.009
	c0.004,0.076,0.039,0.147,0.099,0.195c0.059,0.048,0.136,0.069,0.21,0.057c1.017-0.159,1.93,0.295,2.446,1.208
	c0.507,0.898,0.657,2.476-0.589,3.967c-0.095,0.114-0.08,0.283,0.034,0.378c0.05,0.042,0.111,0.062,0.172,0.062
	c0.077,0,0.153-0.033,0.206-0.097c1.17-1.401,1.423-3.196,0.644-4.575c-0.572-1.014-1.604-1.575-2.713-1.505
	c-0.131-0.949-0.669-1.714-1.539-2.174c-1.06-0.562-2.456-0.547-3.546,0.019c-0.698-0.823-1.739-1.326-2.769-1.326
	c-2.058,0-4.273,1.158-4.58,3.744C22.72,12.455,22.825,12.588,22.972,12.606z M35.187,27.695c-0.042-0.141-0.19-0.224-0.334-0.18
	c-0.142,0.042-0.223,0.192-0.18,0.334c0.052,0.176,0.142,0.421,0.25,0.717c0.644,1.765,1.985,5.438-0.14,6.68
	c-1.85,1.081-3.864-0.644-3.885-0.662c-0.111-0.096-0.282-0.085-0.379,0.026c-0.098,0.112-0.087,0.281,0.025,0.379
	c0.07,0.062,1.346,1.159,2.904,1.159c0.516,0,1.062-0.12,1.605-0.438c2.513-1.468,1.068-5.426,0.374-7.328
	C35.324,28.098,35.238,27.863,35.187,27.695z M28.701,19.47c0-0.472-0.384-0.857-0.857-0.857c-0.472,0-0.857,0.384-0.857,0.857
	c0,0.472,0.384,0.857,0.857,0.857C28.317,20.327,28.701,19.943,28.701,19.47z"/>
</svg>
