<?xml version="1.0" encoding="utf-8"?>
<!-- Generator: Adobe Illustrator 21.0.2, SVG Export Plug-In . SVG Version: 6.00 Build 0)  -->
<svg version="1.1" id="Layer_1" xmlns="http://www.w3.org/2000/svg" xmlns:xlink="http://www.w3.org/1999/xlink" x="0px" y="0px"
	 viewBox="0 0 51 46" style="enable-background:new 0 0 51 46;" xml:space="preserve">
<path d="M21.509,12.551h-0.5v-1.563c0-0.138,0.112-0.25,0.25-0.25s0.25,0.112,0.25,0.25V12.551z M26.335,10.625
	c0-0.138-0.112-0.25-0.25-0.25s-0.25,0.112-0.25,0.25v1.926h0.5V10.625z M16.683,10.625c0-0.138-0.112-0.25-0.25-0.25
	s-0.25,0.112-0.25,0.25v1.926h0.5V10.625z M15.451,15.699c-0.138,0-0.25,0.112-0.25,0.25s0.112,0.25,0.25,0.25h11.699
	c0.138,0,0.25-0.112,0.25-0.25s-0.112-0.25-0.25-0.25H15.451z M27.368,18.077c0-0.138-0.112-0.25-0.25-0.25H15.419
	c-0.138,0-0.25,0.112-0.25,0.25s0.112,0.25,0.25,0.25h11.699C27.257,18.327,27.368,18.215,27.368,18.077z M15.419,14.214h11.739
	c0.043,0.007,3.404-0.081,5.514,1.963c1.136,1.102,1.712,2.627,1.712,4.533c0,0.138,0.112,0.25,0.25,0.25s0.25-0.112,0.25-0.25
	c0-2.048-0.628-3.695-1.867-4.895c-2.263-2.19-5.725-2.097-5.867-2.102H15.419c-0.138,0-0.25,0.112-0.25,0.25
	S15.281,14.214,15.419,14.214z M26.267,27.093c-0.327,0.024-0.574,0.308-0.55,0.636s0.308,0.573,0.636,0.55
	c0.327-0.024,0.573-0.308,0.55-0.636C26.879,27.315,26.595,27.069,26.267,27.093z M23.473,28.681
	c-0.327,0.024-0.573,0.308-0.55,0.636c0.024,0.327,0.308,0.573,0.636,0.55c0.327-0.024,0.573-0.308,0.55-0.636
	C24.085,28.904,23.801,28.658,23.473,28.681z M25.24,33.708c-0.327,0.029-0.568,0.318-0.539,0.645
	c0.029,0.327,0.318,0.568,0.645,0.539s0.568-0.318,0.539-0.645C25.856,33.92,25.567,33.679,25.24,33.708z M36.839,35.288
	c-0.836,1.201-2.03,1.929-3.361,2.054l0,0h-0.001c-0.004,0-0.008,0.002-0.013,0.002c-0.011,0.001-0.021,0-0.032,0.001
	c-1.142,0.101-2.74,0.168-4.297,0.168c-1.69,0-3.328-0.079-4.268-0.276c-2.531-0.278-4.933-2.343-5.564-4.799
	c-0.466-1.813,0.162-3.505,1.706-4.688h0v-3.561c-2.623-0.131-4.721-2.249-4.809-4.884h0.5c0.087,2.359,1.961,4.254,4.309,4.384
	v-4.384h0.5v4.384c2.347-0.13,4.221-2.024,4.309-4.384h0.5c-0.088,2.635-2.186,4.753-4.809,4.884v3.074
	c1.146-1.208,2.662-2.696,4.563-2.867c2.038-0.185,4.879,0.163,6.912,0.841c0.271,0.113,0.51,0.239,0.713,0.348
	c0.172,0.091,0.335,0.178,0.417,0.2l-0.001,0.004c0.716,0.229,1.392,0.638,1.98,1.223c1.03,1.023,1.674,2.447,1.815,4.009
	S37.67,34.097,36.839,35.288z M31.308,36.972c-1.776-0.787-3.136-2.706-3.348-5.056c-0.292-3.24,1.702-6.077,4.445-6.324
	c0.008-0.001,0.016,0,0.024-0.001c-1.922-0.574-4.456-0.865-6.312-0.698c-1.849,0.167-3.376,1.788-4.491,2.972l-0.101,0.107
	c-1.571,1.11-2.174,2.641-1.737,4.342c0.582,2.265,2.799,4.169,5.159,4.43C26.28,37.023,29.025,37.058,31.308,36.972z M37.41,31.064
	c-0.13-1.444-0.723-2.758-1.669-3.699c-0.845-0.84-1.88-1.291-2.948-1.291c-0.114,0-0.228,0.005-0.342,0.016
	c-2.468,0.223-4.259,2.816-3.992,5.781c0.267,2.959,2.497,5.175,4.946,4.975c0.007-0.001,0.015-0.001,0.021-0.002
	c1.184-0.109,2.251-0.762,3.003-1.841C37.192,33.907,37.541,32.509,37.41,31.064z"/>
</svg>
