<?xml version="1.0" encoding="utf-8"?>
<!-- Generator: Adobe Illustrator 21.0.2, SVG Export Plug-In . SVG Version: 6.00 Build 0)  -->
<svg version="1.1" id="Layer_1" xmlns="http://www.w3.org/2000/svg" xmlns:xlink="http://www.w3.org/1999/xlink" x="0px" y="0px"
	 viewBox="0 0 51 46" style="enable-background:new 0 0 51 46;" xml:space="preserve">
<path d="M32.045,19.491c0.114,0.078,0.143,0.233,0.065,0.348c-0.049,0.07-0.127,0.108-0.207,0.108c-0.049,0-0.098-0.014-0.141-0.044
	l-1.161-0.794c-0.114-0.078-0.143-0.233-0.065-0.348c0.08-0.112,0.235-0.144,0.348-0.064L32.045,19.491z M40.001,23.582
	c-0.083,0.694-0.768,1.234-1.927,1.521c-3.255,0.803-5.358-0.32-7.046-1.224c-0.871-0.466-1.623-0.868-2.361-0.916
	c-1.577-0.099-2.934-0.902-3.215-1.079c-0.289-0.032-1.712-0.152-2.469,0.443c-0.274,0.216-0.426,0.498-0.461,0.863
	c-0.144,1.452,1.667,2.574,4.173,4.127c2.851,1.766,6.398,3.964,8.892,7.781c0.075,0.115,0.043,0.271-0.073,0.346
	c-0.042,0.028-0.09,0.041-0.137,0.041c-0.082,0-0.161-0.04-0.209-0.113c-2.433-3.725-5.928-5.89-8.736-7.63
	c-2.66-1.647-4.582-2.838-4.408-4.601c0.05-0.501,0.269-0.908,0.651-1.208c0.867-0.683,2.323-0.599,2.77-0.554
	c0.169-0.172,0.377-0.358,0.595-0.553c0.857-0.768,1.923-1.723,1.966-2.887c0.037-0.999,0.819-1.429,1.39-1.742
	c0.617-0.34,0.772-0.478,0.67-0.786c-0.092-0.169-0.187-0.383-0.297-0.632c-0.545-1.239-1.369-3.111-3.667-3.702
	c-3.727-0.956-7.104-0.572-11.495,4.411c-4.579,5.198-2.65,9.186-0.784,13.042l0.315,0.655c0.06,0.124,0.007,0.273-0.118,0.333
	c-0.035,0.017-0.072,0.024-0.108,0.024c-0.093,0-0.183-0.053-0.226-0.143l-0.314-0.652c-1.847-3.816-3.939-8.143,0.859-13.59
	c4.559-5.175,8.092-5.566,11.994-4.565c2.535,0.651,3.453,2.738,4.001,3.985c0.102,0.231,0.19,0.429,0.275,0.586
	c0.556,0.446,1.244,1.07,1.974,1.732c1.668,1.514,3.744,3.397,5.494,4.309C39.374,21.939,40.096,22.783,40.001,23.582z
	 M39.505,23.523c0.067-0.562-0.594-1.261-1.767-1.872c-1.807-0.941-3.91-2.849-5.599-4.381c-0.573-0.521-1.121-1.018-1.594-1.419
	c-0.143,0.365-0.555,0.593-0.909,0.786c-0.543,0.299-1.104,0.607-1.13,1.322c-0.051,1.377-1.254,2.455-2.133,3.241
	c-0.153,0.137-0.301,0.27-0.431,0.393c0.483,0.27,1.567,0.798,2.757,0.873c0.846,0.054,1.643,0.479,2.565,0.973
	c1.613,0.863,3.622,1.939,6.69,1.179C38.884,24.388,39.449,23.989,39.505,23.523z M24.826,14.343c0-0.414-0.336-0.75-0.75-0.75
	c-0.414,0-0.75,0.336-0.75,0.75c0,0.414,0.336,0.75,0.75,0.75C24.49,15.093,24.826,14.757,24.826,14.343z"/>
</svg>
