<?xml version="1.0" encoding="utf-8"?>
<!-- Generator: Adobe Illustrator 21.0.2, SVG Export Plug-In . SVG Version: 6.00 Build 0)  -->
<svg version="1.1" id="Layer_1" xmlns="http://www.w3.org/2000/svg" xmlns:xlink="http://www.w3.org/1999/xlink" x="0px" y="0px"
	 viewBox="0 0 51 46" style="enable-background:new 0 0 51 46;" xml:space="preserve">
<path d="M37.931,18.139c-1.055-1.055-2.303-1.86-3.711-2.395c-0.384-1.417-1.128-2.706-2.158-3.735
	c-3.275-3.275-8.604-3.274-11.877,0c-0.794,0.795-1.412,1.726-1.835,2.768c-1.824,0.452-3.481,1.385-4.801,2.705
	C9.53,21.5,9.53,28.04,13.549,32.06c2.889,2.891,7.193,3.797,11.001,2.328c1.798,1.214,3.857,1.808,5.906,1.808
	c2.724,0,5.43-1.052,7.476-3.098C42.056,28.974,42.056,22.263,37.931,18.139z M37.578,32.744c-3.444,3.444-8.85,3.931-12.854,1.157
	l-0.111-0.077l-0.125,0.05c-3.651,1.465-7.807,0.611-10.587-2.168c-3.824-3.825-3.824-10.047,0-13.871
	c1.284-1.284,2.905-2.184,4.689-2.602l0.128-0.03l0.048-0.123c0.399-1.027,0.996-1.942,1.771-2.718c3.081-3.08,8.091-3.079,11.17,0
	c0.997,0.997,1.709,2.253,2.06,3.632l0.032,0.128l0.124,0.045c1.39,0.509,2.619,1.292,3.653,2.325
	c1.903,1.903,2.952,4.434,2.952,7.125C40.53,28.31,39.481,30.841,37.578,32.744z M25.296,21.134c-2.218,2.218-2.218,5.827,0,8.045
	c1.109,1.109,2.566,1.663,4.023,1.663s2.914-0.554,4.023-1.663c2.218-2.218,2.218-5.827,0-8.045
	C31.124,18.917,27.514,18.917,25.296,21.134z M32.988,28.826c-2.023,2.023-5.315,2.023-7.339,0c-2.023-2.023-2.023-5.315,0-7.338
	c1.012-1.012,2.34-1.517,3.669-1.517c1.329,0,2.658,0.506,3.669,1.517C35.011,23.511,35.011,26.803,32.988,28.826z M27.308,23.147
	c-0.537,0.537-0.833,1.25-0.833,2.01c0,0.759,0.295,1.473,0.833,2.01c0.098,0.098,0.098,0.256,0,0.354
	c-0.049,0.049-0.113,0.073-0.177,0.073s-0.128-0.024-0.177-0.073c-0.631-0.631-0.979-1.471-0.979-2.364
	c0-0.893,0.348-1.732,0.979-2.364c0.098-0.098,0.256-0.098,0.354,0S27.406,23.049,27.308,23.147z"/>
</svg>
