<?xml version="1.0" encoding="utf-8"?>
<!-- Generator: Adobe Illustrator 20.0.0, SVG Export Plug-In . SVG Version: 6.00 Build 0)  -->
<svg version="1.1" id="Layer_1" xmlns="http://www.w3.org/2000/svg" xmlns:xlink="http://www.w3.org/1999/xlink" x="0px" y="0px"
	 viewBox="0 0 13 13" style="enable-background:new 0 0 13 13;" xml:space="preserve">
<g id="XMLID_12487_">
	<path id="XMLID_12488_" d="M5.68,7.23L5.45,3.68C5.4,2.98,5.38,2.49,5.38,2.18c0-0.41,0.11-0.73,0.32-0.96
		c0.22-0.23,0.5-0.34,0.85-0.34c0.43,0,0.71,0.15,0.86,0.44c0.14,0.29,0.21,0.72,0.21,1.27c0,0.33-0.02,0.66-0.05,1L7.25,7.25
		c-0.03,0.44-0.11,0.77-0.22,1C6.91,8.49,6.73,8.6,6.46,8.6c-0.27,0-0.45-0.11-0.56-0.34C5.8,8.04,5.73,7.7,5.68,7.23z M6.51,12.12
		c-0.3,0-0.56-0.1-0.79-0.29c-0.22-0.2-0.34-0.47-0.34-0.82c0-0.31,0.11-0.57,0.32-0.78C5.92,10.01,6.18,9.9,6.49,9.9
		c0.31,0,0.58,0.11,0.8,0.32c0.22,0.22,0.33,0.48,0.33,0.78c0,0.35-0.11,0.62-0.33,0.82C7.06,12.03,6.8,12.12,6.51,12.12z"/>
</g>
</svg>
