<?xml version="1.0" encoding="utf-8"?>
<!-- Generator: Adobe Illustrator 21.0.2, SVG Export Plug-In . SVG Version: 6.00 Build 0)  -->
<svg version="1.1" id="Layer_1" xmlns="http://www.w3.org/2000/svg" xmlns:xlink="http://www.w3.org/1999/xlink" x="0px" y="0px"
	 viewBox="0 0 51 46" style="enable-background:new 0 0 51 46;" xml:space="preserve">
<path d="M41.203,23.597c-0.364,3.131-5.455,6.312-9.631,6.993c-1.971,2.004-3.287,2.6-7.665,3.503
	c-0.016,0.004-0.033,0.005-0.05,0.005c-0.067,0-0.131-0.027-0.179-0.076c-0.059-0.061-0.082-0.149-0.062-0.231
	c0.937-3.807,2.883-6.56,4.265-7.76c0.103-0.089,0.259-0.078,0.35,0.025c0.09,0.104,0.078,0.26-0.025,0.35
	c-1.281,1.112-3.07,3.625-4.01,7.12c4.028-0.85,5.201-1.42,7.078-3.342c0.037-0.038,0.086-0.063,0.139-0.072
	c3.936-0.612,8.96-3.681,9.296-6.573c0.023-0.195,0.014-1.969-7.182-4.107c-1.722-0.512-3.426-0.616-4.888-0.673
	c-0.137-0.006-0.244-0.121-0.238-0.258c0.006-0.137,0.102-0.233,0.258-0.238c1.189,0.047,2.537,0.135,3.933,0.431
	c-2.044-1.658-5.39-4.298-6.667-4.873c-1.143,1.009-1.748,3.217-1.935,4.985c-0.003,0.023-0.022,0.036-0.03,0.056
	c-0.012,0.031-0.021,0.057-0.044,0.08c-0.021,0.022-0.046,0.033-0.074,0.046c-0.021,0.01-0.033,0.032-0.058,0.036
	c-0.205,0.034-0.444,0.07-0.691,0.108c-0.617,0.093-1.316,0.199-1.597,0.294c-0.067,0.022-0.139,0.016-0.2-0.018
	c-0.413-0.23-2.524-1.064-3.326-1.161c-0.471,0.68-0.553,1.409-0.536,2.486c0.001,0.087-0.043,0.169-0.117,0.215
	c-0.52,0.365-1.3,0.48-2.203,0.324c-0.055-0.01-0.105-0.037-0.141-0.077l-0.061-0.066c-0.664-0.729-2.427-2.665-3.219-3.066
	c-0.718-0.364-1.687-0.181-1.983-0.013c0.065,0.375,0.66,1.692,1.144,2.763c0.853,1.888,1.413,3.166,1.436,3.687
	c-0.031,0.695-0.36,1.851-0.679,2.969c-0.224,0.787-0.527,1.851-0.509,2.13c0.265,0.162,1.337,0.243,1.852-0.269
	c1.234-1.228,1.563-1.776,1.854-2.259c0.104-0.172,0.202-0.336,0.33-0.514c0.398-0.557,1.139-1.593,2.021-1.05
	c0.061,0.047,3.176,2.633,6.177,3.651c0.129,0.044,0.199,0.185,0.155,0.315c-0.044,0.13-0.185,0.196-0.315,0.155
	c-3.09-1.049-6.176-3.611-6.306-3.719c-0.327-0.199-0.694,0.051-1.329,0.937c-0.12,0.168-0.211,0.32-0.309,0.481
	c-0.305,0.508-0.651,1.083-1.929,2.354c-0.389,0.387-0.986,0.537-1.516,0.537c-0.468,0-0.884-0.116-1.063-0.287
	c-0.235-0.224-0.125-0.724,0.409-2.598c0.296-1.04,0.632-2.219,0.66-2.833c-0.02-0.443-0.781-2.128-1.393-3.482
	c-1.2-2.657-1.333-3.055-1.096-3.282c0.347-0.331,1.657-0.6,2.612-0.115c0.872,0.443,2.616,2.357,3.36,3.175l0.002,0.002
	c0.876,0.134,1.391-0.04,1.656-0.193c-0.009-1.169,0.113-1.968,0.716-2.763c0.047-0.062,0.122-0.083,0.201-0.098
	c0.753,0.01,2.932,0.855,3.588,1.182c0.353-0.097,0.974-0.191,1.577-0.282c0.179-0.027,0.341-0.053,0.502-0.078
	c0.131-1.097,0.616-3.965,2.206-5.224c0.068-0.055,0.16-0.069,0.241-0.038c1.349,0.506,5.416,3.755,7.749,5.67
	C40.712,21.059,41.283,22.901,41.203,23.597z"/>
</svg>
