<?xml version="1.0" encoding="utf-8"?>
<!-- Generator: Adobe Illustrator 21.0.2, SVG Export Plug-In . SVG Version: 6.00 Build 0)  -->
<svg version="1.1" id="Layer_1" xmlns="http://www.w3.org/2000/svg" xmlns:xlink="http://www.w3.org/1999/xlink" x="0px" y="0px"
	 viewBox="0 0 51 46" style="enable-background:new 0 0 51 46;" xml:space="preserve">
<path d="M34.879,18.58c-0.047-0.054-0.116-0.084-0.187-0.084h-1.14v-3.81c0-0.138-0.112-0.25-0.25-0.25h-2.763v-1.772
	c0-0.138-0.112-0.25-0.25-0.25h-2.763v-1.669c0-0.138-0.112-0.25-0.25-0.25h-3.013c-0.138,0-0.25,0.112-0.25,0.25v1.685h-2.768
	c-0.138,0-0.25,0.112-0.25,0.25v1.757h-2.768c-0.138,0-0.25,0.112-0.25,0.25v3.81h-1.13c-0.07,0-0.137,0.029-0.185,0.081
	c-0.047,0.053-0.071,0.122-0.064,0.191l1.549,16.92c0.012,0.129,0.12,0.228,0.249,0.228h14.27c0.126,0,0.233-0.095,0.248-0.221
	l2.025-16.92C34.949,18.705,34.926,18.634,34.879,18.58z M33.052,14.937v3.56h-2.513v-3.56H33.052z M30.039,12.914v1.772v3.862
	c-0.014,0.009-0.034,0.007-0.046,0.019c-0.013,0.013-0.968,0.912-2.467,1.421v-7.074H30.039z M27.026,10.995v1.669v7.466
	c-0.459,0.116-0.949,0.201-1.482,0.201c-0.371,0-0.71-0.043-1.031-0.104v-9.232H27.026z M24.008,12.93v7.174
	c-1.577-0.464-2.416-1.497-2.427-1.51c-0.021-0.027-0.058-0.026-0.086-0.042V12.93H24.008z M18.478,14.937h2.513v3.56h-2.513V14.937
	z M32.445,35.416h-13.82l-1.503-16.42h4.146c0.347,0.396,1.782,1.835,4.276,1.835c2.532,0,4.332-1.484,4.721-1.835h4.145
	L32.445,35.416z"/>
</svg>
