<?xml version="1.0" encoding="utf-8"?>
<!-- Generator: Adobe Illustrator 21.0.2, SVG Export Plug-In . SVG Version: 6.00 Build 0)  -->
<svg version="1.1" id="Layer_1" xmlns="http://www.w3.org/2000/svg" xmlns:xlink="http://www.w3.org/1999/xlink" x="0px" y="0px"
	 viewBox="0 0 57.75 43" style="enable-background:new 0 0 57.75 43;" xml:space="preserve">
<path id="XMLID_26_" d="M29.072,20.502c-3.09,0-5.6-2.808-5.6-6.258c0-3.451,2.511-6.259,5.6-6.259c3.087,0,5.598,2.808,5.598,6.259
	C34.67,17.694,32.159,20.502,29.072,20.502L29.072,20.502z M29.072,10.564c-1.667,0-3.022,1.651-3.022,3.68
	c0,2.028,1.355,3.679,3.022,3.679c1.664,0,3.019-1.651,3.019-3.679C32.091,12.215,30.736,10.564,29.072,10.564L29.072,10.564z
	 M37.263,34.643h-16.6c-0.677,0-1.239-0.524-1.287-1.2l-0.365-5.357c-0.139-2.068,1.405-4.364,3.445-5.118
	c4.208-1.506,8.826-1.5,13.004-0.004c2.055,0.757,3.598,3.053,3.455,5.124l-0.365,5.354C38.505,34.118,37.941,34.643,37.263,34.643
	L37.263,34.643z M21.87,32.064h14.19l0.282-4.152c0.058-0.83-0.715-2.139-1.76-2.524c-3.598-1.289-7.625-1.292-11.244,0.002
	c-1.035,0.383-1.808,1.694-1.753,2.522L21.87,32.064L21.87,32.064z M37.263,34.643h-16.6c-0.677,0-1.239-0.524-1.287-1.2
	l-0.365-5.357c-0.139-2.068,1.405-4.364,3.445-5.118c4.208-1.506,8.826-1.5,13.004-0.004c2.055,0.757,3.598,3.053,3.455,5.124
	l-0.365,5.354C38.505,34.118,37.941,34.643,37.263,34.643L37.263,34.643z M21.87,32.064h14.19l0.282-4.152
	c0.058-0.83-0.715-2.139-1.76-2.524c-3.598-1.289-7.625-1.292-11.244,0.002c-1.035,0.383-1.808,1.694-1.753,2.522L21.87,32.064
	L21.87,32.064z M48.714,34.643c0.677,0,1.239-0.525,1.287-1.2l0.317-4.625c0.128-1.862-1.257-3.926-3.1-4.605
	c-1.72-0.614-3.523-0.943-5.356-0.974c-0.715-0.033-1.299,0.555-1.312,1.267c-0.013,0.713,0.557,1.299,1.267,1.312
	c1.554,0.026,3.077,0.303,4.52,0.82c0.813,0.298,1.453,1.351,1.408,2.004l-0.234,3.422h-5.407c-0.713,0-1.289,0.577-1.289,1.289
	c0,0.713,0.577,1.289,1.289,1.289H48.714L48.714,34.643z M43.627,21.862c-2.564,0-4.651-2.315-4.651-5.162s2.088-5.164,4.651-5.164
	c2.563,0,4.648,2.317,4.648,5.164S46.19,21.862,43.627,21.862L43.627,21.862z M43.627,13.791c-1.286,0-2.332,1.305-2.332,2.908
	c0,1.602,1.045,2.907,2.332,2.907c1.283,0,2.329-1.305,2.329-2.907C45.956,15.096,44.911,13.791,43.627,13.791L43.627,13.791z
	 M9.164,34.643h6.61c0.713,0,1.289-0.577,1.289-1.289c0-0.713-0.577-1.289-1.289-1.289h-5.407l-0.234-3.422
	c-0.045-0.653,0.594-1.706,1.408-2.004c1.443-0.516,2.966-0.793,4.52-0.82c0.71-0.013,1.279-0.599,1.267-1.312
	c-0.013-0.711-0.597-1.299-1.312-1.267c-1.833,0.031-3.636,0.36-5.356,0.974c-1.843,0.679-3.228,2.742-3.1,4.605l0.317,4.625
	C7.925,34.118,8.487,34.643,9.164,34.643L9.164,34.643z M14.251,21.862c-2.563,0-4.648-2.315-4.648-5.162s2.085-5.164,4.648-5.164
	c2.564,0,4.651,2.317,4.651,5.164S16.814,21.862,14.251,21.862L14.251,21.862z M14.251,13.791c-1.283,0-2.329,1.305-2.329,2.908
	c0,1.602,1.045,2.907,2.329,2.907c1.286,0,2.332-1.305,2.332-2.907C16.583,15.096,15.537,13.791,14.251,13.791L14.251,13.791z"/>
</svg>
