<?xml version="1.0" encoding="utf-8"?>
<!-- Generator: Adobe Illustrator 20.0.0, SVG Export Plug-In . SVG Version: 6.00 Build 0)  -->
<svg version="1.1" id="Layer_1" xmlns="http://www.w3.org/2000/svg" xmlns:xlink="http://www.w3.org/1999/xlink" x="0px" y="0px"
	 viewBox="0 0 18 16" style="enable-background:new 0 0 18 16;" xml:space="preserve">
<g>
	<path d="M10.2,0C6.1,0,2.8,3.2,2.4,7.2L0,5.7v1.9l3,2l3.6-2V5.7L3.8,7.3C4.2,4,6.9,1.5,10.2,1.5c3.5,0,6.4,2.9,6.4,6.5
		c0,3.6-2.9,6.5-6.4,6.5c-1.6,0-3.2-0.6-4.4-1.8c-0.3-0.2-0.7-0.8-0.7-0.8l-1.2,0.9c0,0,0.5,0.7,0.9,1c1.5,1.4,3.4,2.2,5.4,2.2
		c4.3,0,7.8-3.6,7.8-8C18,3.6,14.5,0,10.2,0z"/>
	<polygon points="9,5 9,10 13,10 13,9 10,9 10,5 	"/>
</g>
</svg>
