<?xml version="1.0" encoding="utf-8"?>
<!-- Generator: Adobe Illustrator 19.0.0, SVG Export Plug-In . SVG Version: 6.00 Build 0)  -->
<svg version="1.1" id="Layer_1" xmlns="http://www.w3.org/2000/svg" xmlns:xlink="http://www.w3.org/1999/xlink" x="0px" y="0px"
	 viewBox="0 0 13.1 13" style="enable-background:new 0 0 13.1 13;" xml:space="preserve">
<g>
	<path d="M6.6,0C3,0,0.1,2.9,0.1,6.5C0.1,10.1,3,13,6.6,13c3.6,0,6.5-2.9,6.5-6.5C13.1,2.9,10.1,0,6.6,0z M6.6,11.8
		c-2.9,0-5.3-2.4-5.3-5.3c0-2.9,2.4-5.3,5.3-5.3c2.9,0,5.3,2.4,5.3,5.3C11.9,9.4,9.5,11.8,6.6,11.8z"/>
	<path d="M7.2,6.3V3.4c0-0.3-0.3-0.6-0.6-0.6C6.3,2.8,6,3,6,3.4v3.1c0,0.2,0.1,0.3,0.2,0.4L8.3,9c0.1,0.1,0.3,0.2,0.4,0.2
		C8.8,9.2,9,9.1,9.1,9c0.1-0.1,0.2-0.3,0.2-0.4c0-0.2-0.1-0.3-0.2-0.4L7.2,6.3z"/>
</g>
</svg>
