<?xml version="1.0" encoding="utf-8"?>
<!-- Generator: Adobe Illustrator 20.0.0, SVG Export Plug-In . SVG Version: 6.00 Build 0)  -->
<svg version="1.1" id="Layer_1" xmlns="http://www.w3.org/2000/svg" xmlns:xlink="http://www.w3.org/1999/xlink" x="0px" y="0px"
	 viewBox="0 0 7.007 14.984" style="enable-background:new 0 0 7.007 14.984;" xml:space="preserve">
<path d="M6.884,7.126C6.96,7.218,7.007,7.347,7.007,7.488c0,0.283-0.187,0.513-0.419,0.513l-1.17,0C5.187,8.001,5,7.772,5,7.488
	c0-0.284,0.187-0.513,0.419-0.513l1.17,0C6.704,6.975,6.809,7.033,6.884,7.126L6.884,7.126z"/>
<path d="M5.314,5.238C5.263,5.286,5.209,5.331,5.152,5.375C4.962,5.521,4.679,5.498,4.52,5.322C4.361,5.146,4.391,4.884,4.577,4.738
	c0.345-0.264,0.541-0.651,0.542-1.059L5.117,2.224c0-0.769-0.677-1.394-1.51-1.395l-0.178,0c-0.833,0.001-1.51,0.625-1.51,1.393
	l0,1.457c0,0.409,0.197,0.795,0.54,1.059C2.65,4.885,2.675,5.146,2.516,5.322C2.359,5.496,2.074,5.521,1.884,5.375
	C1.336,4.952,1.021,4.334,1.021,3.679l0-1.457C1.021,0.998,2.1,0.001,3.429,0l0.179,0c1.329,0,2.408,0.998,2.408,2.223l0.001,1.456
	C6.016,4.267,5.762,4.825,5.314,5.238L5.314,5.238z"/>
<path d="M5.309,14.332c-0.436,0.402-1.037,0.652-1.701,0.652l-0.181,0c-0.641,0-1.245-0.231-1.7-0.651
	c-0.455-0.42-0.706-0.977-0.705-1.571l-0.001-1.457c0-0.654,0.313-1.269,0.863-1.695c0.19-0.146,0.473-0.123,0.632,0.052
	c0.159,0.176,0.137,0.433-0.056,0.583c-0.341,0.263-0.541,0.651-0.541,1.06l0.001,1.456c0,0.373,0.157,0.722,0.442,0.986
	c0.285,0.263,0.664,0.408,1.067,0.408l0.181,0.001c0.831-0.001,1.508-0.626,1.508-1.394l0-1.458c0-0.407-0.197-0.793-0.541-1.058
	c-0.19-0.147-0.215-0.408-0.057-0.584c0.159-0.173,0.442-0.2,0.632-0.053c0.548,0.423,0.864,1.04,0.863,1.694l0,1.458
	C6.016,13.373,5.745,13.929,5.309,14.332L5.309,14.332z"/>
<path d="M1.884,7.126C1.96,7.218,2.007,7.347,2.007,7.488c0,0.283-0.187,0.513-0.419,0.513l-1.17,0C0.187,8.001,0,7.772,0,7.488
	c0-0.284,0.187-0.513,0.419-0.513l1.17,0C1.704,6.975,1.809,7.033,1.884,7.126L1.884,7.126z"/>
</svg>
