<?xml version="1.0" encoding="utf-8"?>
<!-- Generator: Adobe Illustrator 20.0.0, SVG Export Plug-In . SVG Version: 6.00 Build 0)  -->
<svg version="1.1" id="Layer_1" xmlns="http://www.w3.org/2000/svg" xmlns:xlink="http://www.w3.org/1999/xlink" x="0px" y="0px"
	 viewBox="0 0 4.995 12.117" style="enable-background:new 0 0 4.995 12.117;" xml:space="preserve">
<path d="M2.814,9.058C2.733,9.133,2.621,9.18,2.497,9.18c-0.248,0-0.449-0.186-0.449-0.414l0-5.116c0-0.229,0.201-0.414,0.449-0.414
	s0.449,0.185,0.449,0.414l0,5.116C2.946,8.88,2.896,8.983,2.814,9.058L2.814,9.058z"/>
<path d="M4.293,5.371C4.242,5.419,4.188,5.464,4.131,5.508c-0.19,0.146-0.473,0.123-0.632-0.053C3.34,5.279,3.37,5.017,3.556,4.872
	c0.345-0.264,0.541-0.651,0.542-1.059L4.096,2.357c0-0.769-0.677-1.394-1.51-1.395l-0.178,0c-0.833,0.001-1.51,0.625-1.51,1.393
	l0,1.457c0,0.409,0.197,0.795,0.54,1.059c0.191,0.146,0.216,0.408,0.057,0.584C1.337,5.629,1.053,5.654,0.863,5.508
	C0.315,5.086,0.001,4.467,0,3.812l0-1.457C0,1.131,1.079,0.134,2.408,0.133l0.179,0c1.329,0,2.408,0.998,2.408,2.223l0.001,1.456
	C4.994,4.4,4.741,4.958,4.293,5.371L4.293,5.371z"/>
<path d="M4.288,11.465c-0.436,0.402-1.037,0.652-1.701,0.652l-0.181,0c-0.641,0-1.245-0.231-1.7-0.651
	C0.251,11.046,0,10.489,0.001,9.895L0,8.438c0-0.654,0.313-1.269,0.862-1.695c0.19-0.146,0.473-0.123,0.632,0.052
	s0.137,0.433-0.056,0.583C1.097,7.642,0.898,8.03,0.898,8.438l0.001,1.456c0,0.373,0.157,0.723,0.442,0.986
	c0.285,0.263,0.664,0.408,1.067,0.408l0.181,0.001c0.831-0.001,1.508-0.626,1.508-1.394l0-1.458c0-0.407-0.197-0.793-0.541-1.058
	C3.366,7.232,3.34,6.971,3.499,6.796c0.159-0.173,0.442-0.2,0.632-0.053c0.548,0.423,0.863,1.04,0.863,1.694l0,1.458
	C4.995,10.507,4.724,11.063,4.288,11.465L4.288,11.465z"/>
</svg>
