<?xml version="1.0" encoding="utf-8"?>
<!-- Generator: Adobe Illustrator 21.0.2, SVG Export Plug-In . SVG Version: 6.00 Build 0)  -->
<svg version="1.1" id="Layer_1" xmlns="http://www.w3.org/2000/svg" xmlns:xlink="http://www.w3.org/1999/xlink" x="0px" y="0px"
	 viewBox="0 0 51 46" style="enable-background:new 0 0 51 46;" xml:space="preserve">
<path d="M38.875,31.735c0.03,0.086,0.012,0.181-0.048,0.248c-0.281,0.322-2.508,2.382-4.071,2.108
	c-1.257-0.229-5.287-0.783-7.14-0.544c-1.705,0.22-3.178,2.23-3.989,4.039c-0.042,0.093-0.133,0.147-0.228,0.147
	c-0.034,0-0.069-0.007-0.102-0.021c-0.126-0.057-0.183-0.205-0.126-0.331c0.42-0.938,1.979-4.021,4.381-4.33
	c1.877-0.243,5.794,0.274,7.293,0.548c0.96,0.175,2.531-0.942,3.28-1.622C36.468,31.644,34.357,31,33.8,30.69
	c-0.121-0.067-0.165-0.22-0.098-0.34c0.068-0.12,0.22-0.165,0.34-0.098c0.512,0.284,2.892,1.019,4.64,1.32
	C38.771,31.588,38.845,31.65,38.875,31.735z M40.609,25.253c-0.742-1.669-2.668-4.167-4.115-5.828
	c-0.265-2.026-1.13-4.838-3.722-6.881c-1.472-1.161-3.064-2.002-4.735-2.501C27.589,9.1,26.327,8.465,24.845,8.45
	c-0.016,0-0.031,0-0.047,0c-1.356,0-3.021,0.566-3.807,2.141c-1.464-0.648-2.988-0.596-4.214,0.158
	c-1.148,0.704-1.87,1.911-1.968,3.267c-1.276-0.09-2.471,0.495-3.309,1.644c-0.955,1.308-1.258,3.048-0.721,4.138
	c0.061,0.125,0.21,0.176,0.334,0.114s0.175-0.211,0.114-0.335c-0.452-0.918-0.161-2.475,0.676-3.622
	c0.461-0.632,1.48-1.648,3.107-1.413c0.074,0.013,0.145-0.009,0.199-0.057c0.055-0.047,0.087-0.115,0.088-0.188
	c0.013-1.294,0.664-2.461,1.741-3.122c1.141-0.7,2.586-0.711,3.965-0.027c0.062,0.031,0.134,0.035,0.198,0.011
	c0.065-0.024,0.117-0.074,0.144-0.139c0.644-1.545,2.227-2.066,3.495-2.069c1.32,0.013,2.463,0.585,2.782,1.392
	c0.028,0.072,0.088,0.127,0.163,0.148c1.65,0.477,3.224,1.3,4.678,2.446c2.492,1.964,3.303,4.688,3.545,6.627
	c0.006,0.049,0.027,0.096,0.06,0.134c1.429,1.633,3.356,4.121,4.084,5.759c0.477,1.072,0.432,2.137,0.177,2.715
	c-0.096,0.219-0.203,0.32-0.27,0.343c-0.393,0.129-1.38-0.393-1.933-0.915c-0.101-0.095-0.259-0.09-0.354,0.01
	c-0.095,0.101-0.09,0.259,0.01,0.354c0.444,0.419,1.227,0.906,1.879,1.022c-0.001,0.021-0.016,0.038-0.012,0.059
	c0.02,0.099,0.001,0.354-0.345,0.96c-0.069,0.119-0.027,0.272,0.093,0.341c0.039,0.022,0.082,0.033,0.124,0.033
	c0.086,0,0.171-0.045,0.217-0.126c0.317-0.554,0.443-0.952,0.404-1.252c0.024-0.005,0.052-0.003,0.074-0.011
	c0.229-0.076,0.425-0.289,0.569-0.615C41.064,27.743,41.185,26.549,40.609,25.253z M21.891,18.05
	c-0.128,0.051-0.19,0.196-0.139,0.325c0.475,1.179,0.643,2.652,0.473,4.15c-0.183,1.611-0.724,3.081-1.526,4.138
	c-0.773,1.019-1.69,1.519-2.583,1.423c-1.895-0.215-3.133-3.058-2.762-6.338c0.169-1.498,0.663-2.897,1.389-3.941
	c0.079-0.113,0.051-0.269-0.062-0.348c-0.112-0.078-0.268-0.052-0.348,0.062c-0.773,1.11-1.297,2.591-1.476,4.17
	c-0.402,3.555,1.035,6.646,3.203,6.891c0.095,0.011,0.189,0.017,0.284,0.017c0.979,0,1.947-0.571,2.753-1.634
	c0.855-1.127,1.432-2.684,1.625-4.383c0.179-1.579-0.001-3.14-0.506-4.395C22.166,18.061,22.018,17.996,21.891,18.05z
	 M30.745,19.786c0-0.471-0.381-0.852-0.852-0.852s-0.852,0.381-0.852,0.852s0.381,0.852,0.852,0.852S30.745,20.256,30.745,19.786z"
	/>
</svg>
