<?xml version="1.0" encoding="utf-8"?>
<!-- Generator: Adobe Illustrator 18.1.1, SVG Export Plug-In . SVG Version: 6.00 Build 0)  -->
<svg version="1.1" id="Layer_1" xmlns="http://www.w3.org/2000/svg" xmlns:xlink="http://www.w3.org/1999/xlink" x="0px" y="0px"
	 viewBox="0 0 612 792" enable-background="new 0 0 612 792" xml:space="preserve">
<path d="M290.1,267.7c3.8-5.1,9.6-7.9,17.5-7.9c1.7,0,3.4,0.3,5.8,1c2.1,0.7,4.1,2.1,6.2,3.8c2.1,1.7,3.4,3.8,4.8,6.5
	c1.4,2.7,2.1,6.2,2.1,9.9c0,3.1-0.3,5.8-1.4,8.2c-0.7,2.4-2.1,4.5-3.4,6.2c-1.3,1.7-3.1,3.4-5.1,5.1c-1.7,1.4-3.8,3.1-5.8,5.1
	c-2.4,2.1-4.8,4.5-6.5,6.5c-1.7,2.4-3.4,4.8-4.8,7.9c-1.4,3.1-2.1,6.5-2.7,10.3c-0.6,3.8-1,8.6-1,14.4h20.6c0-4.5,0.3-8.6,1.4-11.7
	c0.7-3.1,2.1-5.8,3.4-8.2c1.4-2.4,3.4-4.5,5.5-6.5s4.1-3.8,6.9-5.8c2.1-1.7,4.1-3.8,6.2-5.5c2.1-1.7,3.8-4.1,5.5-6.2
	c1.7-2.4,2.7-5.1,3.8-8.6c1-3.4,1.4-7.2,1.4-11.7c0-6.2-1-11.7-3.1-16.5c-2.1-4.8-5.1-8.9-8.9-12c-3.8-3.8-8.2-6.2-13.4-7.9
	c-5.2-1.7-10.6-2.7-16.5-2.7c-6.9,0-13.4,1-18.9,3.4c-5.8,2.4-10.6,5.5-14.4,9.6c-4.1,4.1-7.2,8.9-9.3,14.7
	c-2.1,5.8-3.1,12-3.1,19.2h21.9C284.3,279.6,286.3,272.8,290.1,267.7z M292.9,381.2h25.7v-24h-25.7V381.2z M199.8,497.9h212.5
	c8.2,0,14.7-6.5,14.7-14.7V333.3c0-4.1-1.7-7.9-4.5-10.6l0,0l0,0c-2.7-2.4-6.2-4.1-10.3-4.1h-55.8c-2.1,1.7-3.8,3.4-5.8,5.1
	c-1,1-2.1,1.7-3.1,2.7h65l0,0l-107,90l-105.7-89.6l0,0H274c0.3-2.7,1-5.5,1.7-7.9h-76c-3.8,0-7.5,1.7-10.3,4.1l0,0l0,0
	c-2.7,2.7-4.5,6.5-4.5,10.6v150.2C185.4,491.4,191.9,497.9,199.8,497.9z M418.7,331.9c0,0.3,0.3,1,0.3,1.4v146.4l-76-84.1
	L418.7,331.9z M302.8,425.1c0.7,0.7,1.7,1,2.7,1s2.1-0.3,2.7-1l28.7-24.3l79.4,87.9c-1,1-2.4,1.4-4.1,1.4H199.7
	c-1.7,0-3.1-0.7-4.1-1.4l79.1-87.6L302.8,425.1z M193.3,333.3c0-0.3,0.3-1,0.3-1.4l75.3,64l-75.3,83.8V333.3H193.3z"/>
</svg>
