<?xml version="1.0" encoding="utf-8"?>
<!-- Generator: Adobe Illustrator 21.0.2, SVG Export Plug-In . SVG Version: 6.00 Build 0)  -->
<svg version="1.1" id="Layer_1" xmlns="http://www.w3.org/2000/svg" xmlns:xlink="http://www.w3.org/1999/xlink" x="0px" y="0px"
	 viewBox="0 0 51 46" style="enable-background:new 0 0 51 46;" xml:space="preserve">
<path d="M24.394,18.021c0.344-0.362,0.641-0.675,0.641-1.322s-0.297-0.961-0.642-1.323c-0.365-0.384-0.778-0.819-0.778-1.666
	c0-0.138,0.112-0.25,0.25-0.25s0.25,0.112,0.25,0.25c0,0.647,0.297,0.96,0.641,1.322c0.365,0.384,0.779,0.819,0.779,1.667
	c0,0.847-0.414,1.282-0.778,1.666c-0.344,0.362-0.642,0.676-0.642,1.323c0,0.138-0.112,0.25-0.25,0.25s-0.25-0.112-0.25-0.25
	C23.616,18.841,24.029,18.405,24.394,18.021z M27.604,21.108c0,0.138,0.112,0.25,0.25,0.25s0.25-0.112,0.25-0.25
	c0-0.647,0.297-0.96,0.641-1.322c0.365-0.384,0.779-0.819,0.779-1.667c0-0.847-0.414-1.282-0.779-1.666
	c-0.344-0.362-0.642-0.676-0.642-1.323c0-0.138-0.112-0.25-0.25-0.25s-0.25,0.112-0.25,0.25c0,0.848,0.414,1.283,0.779,1.667
	c0.344,0.362,0.641,0.675,0.641,1.322s-0.297,0.961-0.642,1.323C28.018,19.826,27.604,20.262,27.604,21.108z M42.984,29.617
	l-0.066,0.304c-0.007,0.031-0.718,3.144-3.188,3.164c-0.348,0.962-1.264,1.619-2.29,1.619H15.514c-1.042,0-1.965-0.672-2.303-1.653
	c-2.425-0.307-2.783-3.126-2.786-3.154l-0.032-0.279h2.793c0-0.006-0.007-0.01-0.007-0.017v-0.289c0-1.769,0.961-2.754,2.708-2.78
	c0.434-0.268,2.92-1.697,7.123-2.285c0.261-0.063,0.534-0.107,0.828-0.107c0.005,0,0.008,0.005,0.012,0.005
	c0.885-0.094,1.83-0.154,2.849-0.154c0.321,0,0.626,0.009,0.93,0.018c0.05-0.003,0.091-0.018,0.142-0.018
	c0.021,0,0.034,0.017,0.053,0.022c1.521,0.054,2.825,0.216,3.942,0.433c0.023-0.001,0.042-0.007,0.065-0.007
	c0.033,0,0.055,0.023,0.084,0.035c3.243,0.655,4.817,1.776,5.171,2.058c2.368,0.034,2.69,1.422,2.69,2.78v0.306H42.984z
	 M13.672,29.617h25.603v-0.306c0-1.408-0.381-2.281-2.281-2.281h-0.094l-0.071-0.062c-0.02-0.018-1.548-1.301-5.109-2.013
	c-1.378,0.09-1.54,1.712-1.54,2.426c0,0.138-0.112,0.25-0.25,0.25s-0.25-0.112-0.25-0.25c0-1.249,0.377-2.146,1.034-2.601
	c-0.909-0.137-1.927-0.234-3.066-0.27c-1.791,0.11-1.896,2.4-1.896,2.871c0,0.138-0.112,0.25-0.25,0.25s-0.25-0.112-0.25-0.25
	c0-1.063,0.316-2.233,1.094-2.883c-1.184,0.016-2.279,0.106-3.275,0.248c-1.127,0.299-1.827,1.26-1.827,2.635
	c0,0.138-0.112,0.25-0.25,0.25s-0.25-0.112-0.25-0.25c0-0.994,0.33-1.816,0.897-2.386c-3.535,0.725-5.518,1.977-5.545,1.995
	l-0.062,0.04H15.96c-1.513,0-2.281,0.768-2.281,2.281v0.289C13.679,29.607,13.673,29.611,13.672,29.617z M42.343,30.117H10.972
	c0.148,0.673,0.69,2.321,2.448,2.452l0.177,0.013l0.046,0.172c0.228,0.854,0.997,1.45,1.871,1.45H37.44
	c0.866,0,1.634-0.59,1.866-1.436l0.051-0.184h0.349C41.371,32.585,42.109,30.837,42.343,30.117z"/>
</svg>
