<?xml version="1.0" encoding="utf-8"?>
<!-- Generator: Adobe Illustrator 21.0.2, SVG Export Plug-In . SVG Version: 6.00 Build 0)  -->
<svg version="1.1" id="Layer_1" xmlns="http://www.w3.org/2000/svg" xmlns:xlink="http://www.w3.org/1999/xlink" x="0px" y="0px"
	 viewBox="0 0 51 46" style="enable-background:new 0 0 51 46;" xml:space="preserve">
<path d="M27.097,12.721l-0.354-0.354l1.574-1.574c0.098-0.098,0.256-0.098,0.354,0s0.098,0.256,0,0.354L27.097,12.721z
	 M36.56,18.683c-0.098-0.098-0.256-0.098-0.354,0l-1.574,1.574l0.354,0.354l1.574-1.574C36.658,18.939,36.658,18.78,36.56,18.683z
	 M25.48,27.195c-1.342,0-2.594-0.504-3.574-1.395l3.614-3.613l-0.354-0.354l-3.614,3.614c-0.891-0.979-1.395-2.231-1.395-3.574
	c0-1.362,0.515-2.633,1.431-3.618l-0.354-0.354c-1.01,1.079-1.577,2.476-1.577,3.971c0,1.476,0.556,2.854,1.541,3.927l-8.363,8.363
	c-0.098,0.098-0.098,0.256,0,0.354c0.049,0.049,0.113,0.073,0.177,0.073s0.128-0.024,0.177-0.073l8.363-8.363
	c1.074,0.985,2.452,1.542,3.927,1.542c1.495,0,2.892-0.568,3.971-1.578l-0.354-0.354C28.113,26.68,26.842,27.195,25.48,27.195z
	 M32.319,15.389c0.098-0.098,0.098-0.256,0-0.354s-0.256-0.098-0.354,0l-1.277,1.277l0.354,0.354L32.319,15.389z M25.252,12.607
	c-0.098-0.098-0.256-0.098-0.354,0s-0.098,0.256,0,0.354l9.563,9.563c0.049,0.049,0.113,0.073,0.177,0.073s0.128-0.024,0.177-0.073
	c0.098-0.098,0.098-0.256,0-0.354L25.252,12.607z M32.713,24.22c0.049,0.049,0.113,0.073,0.177,0.073s0.128-0.024,0.177-0.073
	c0.098-0.098,0.098-0.256,0-0.354l-9.563-9.563c-0.098-0.098-0.256-0.098-0.354,0s-0.098,0.256,0,0.354L32.713,24.22z
	 M31.407,25.578l-9.59-9.59c-0.098-0.098-0.256-0.098-0.354,0c-0.098,0.098-0.098,0.256,0,0.354l9.596,9.596
	c0.028,0.026,2.861,2.727,2.914,6.139c0.029,1.84-0.751,3.567-2.317,5.134c-0.098,0.098-0.098,0.256,0,0.354
	c0.049,0.049,0.113,0.073,0.177,0.073s0.128-0.024,0.177-0.073c1.667-1.667,2.496-3.517,2.464-5.499
	C34.415,28.439,31.525,25.688,31.407,25.578z"/>
</svg>
