<?xml version="1.0" encoding="utf-8"?>
<!-- Generator: Adobe Illustrator 21.0.2, SVG Export Plug-In . SVG Version: 6.00 Build 0)  -->
<svg version="1.1" id="Layer_1" xmlns="http://www.w3.org/2000/svg" xmlns:xlink="http://www.w3.org/1999/xlink" x="0px" y="0px"
	 viewBox="0 0 51 46" style="enable-background:new 0 0 51 46;" xml:space="preserve">
<path d="M38.275,21.215c0-0.687-0.26-1.043-0.49-1.357c-0.211-0.289-0.394-0.539-0.394-1.062s0.183-0.772,0.394-1.062
	c0.23-0.314,0.49-0.671,0.49-1.357c0-0.413-0.353-0.716-0.664-0.984c-0.2-0.171-0.406-0.349-0.456-0.5
	c-0.053-0.162,0.009-0.437,0.07-0.702c0.094-0.411,0.192-0.836-0.042-1.156c-0.236-0.324-0.673-0.361-1.096-0.397
	c-0.269-0.022-0.547-0.047-0.682-0.146c-0.133-0.097-0.24-0.353-0.343-0.6c-0.157-0.375-0.335-0.801-0.721-0.927
	c-0.371-0.123-0.743,0.101-1.101,0.315c-0.236,0.143-0.481,0.289-0.658,0.289c-0.467,0-0.693-0.18-0.954-0.388
	c-0.292-0.232-0.623-0.496-1.265-0.496c-0.642,0-0.973,0.264-1.265,0.496c-0.261,0.208-0.486,0.388-0.954,0.388
	c-0.466,0-0.691-0.18-0.952-0.388c-0.292-0.232-0.622-0.496-1.263-0.496s-0.972,0.264-1.263,0.496
	c-0.261,0.208-0.485,0.388-0.952,0.388c-0.466,0-0.691-0.18-0.951-0.388c-0.292-0.232-0.622-0.496-1.263-0.496
	c-0.413,0-0.716,0.353-0.984,0.664c-0.172,0.2-0.35,0.406-0.5,0.456c-0.164,0.053-0.438-0.01-0.702-0.071
	c-0.411-0.095-0.836-0.191-1.157,0.042c-0.323,0.236-0.361,0.673-0.397,1.096c-0.023,0.269-0.047,0.547-0.146,0.683
	c-0.097,0.133-0.352,0.239-0.599,0.343c-0.375,0.157-0.801,0.335-0.927,0.721c-0.122,0.372,0.101,0.742,0.316,1.101
	c0.142,0.236,0.289,0.48,0.289,0.658c0,0.524-0.183,0.774-0.394,1.064c-0.229,0.315-0.49,0.672-0.49,1.359s0.26,1.045,0.49,1.359
	c0.211,0.289,0.394,0.54,0.394,1.063s-0.183,0.773-0.394,1.062c-0.23,0.314-0.49,0.671-0.49,1.357s0.26,1.043,0.49,1.357
	c0.211,0.289,0.394,0.539,0.394,1.062s-0.183,0.772-0.394,1.062c-0.23,0.314-0.49,0.671-0.49,1.357c0,0.413,0.353,0.716,0.664,0.984
	c0.2,0.171,0.406,0.349,0.456,0.5c0.053,0.162-0.009,0.437-0.07,0.702c-0.094,0.411-0.192,0.836,0.042,1.156
	c0.236,0.324,0.673,0.361,1.096,0.397c0.269,0.022,0.547,0.047,0.683,0.146c0.132,0.097,0.239,0.352,0.342,0.599
	c0.157,0.376,0.335,0.802,0.72,0.927c0.375,0.125,0.744-0.1,1.102-0.315c0.236-0.142,0.481-0.288,0.658-0.288
	c0.467,0,0.693,0.18,0.954,0.388c0.292,0.232,0.623,0.496,1.265,0.496c0.642,0,0.973-0.264,1.265-0.496
	c0.261-0.208,0.486-0.388,0.954-0.388c0.466,0,0.691,0.18,0.952,0.388c0.292,0.232,0.622,0.496,1.263,0.496s0.972-0.264,1.263-0.496
	c0.261-0.208,0.485-0.388,0.952-0.388c0.466,0,0.691,0.18,0.951,0.388c0.292,0.232,0.622,0.496,1.263,0.496
	c0.413,0,0.716-0.353,0.984-0.664c0.172-0.2,0.35-0.406,0.501-0.456c0.163-0.051,0.437,0.011,0.702,0.07
	c0.411,0.096,0.836,0.191,1.157-0.042c0.323-0.236,0.361-0.673,0.397-1.095c0.023-0.269,0.047-0.547,0.146-0.683
	c0.097-0.133,0.352-0.239,0.599-0.343c0.375-0.157,0.801-0.335,0.927-0.721c0.122-0.372-0.101-0.742-0.316-1.101
	c-0.142-0.236-0.289-0.48-0.289-0.658c0-0.524,0.183-0.774,0.394-1.064c0.229-0.315,0.49-0.672,0.49-1.359s-0.26-1.044-0.49-1.359
	c-0.211-0.29-0.394-0.54-0.394-1.064c0-0.522,0.183-0.772,0.394-1.062C38.015,22.258,38.275,21.902,38.275,21.215z M37.381,22.278
	c-0.229,0.314-0.49,0.671-0.49,1.356c0,0.688,0.26,1.044,0.49,1.359c0.211,0.29,0.394,0.54,0.394,1.064s-0.183,0.774-0.394,1.064
	c-0.229,0.315-0.49,0.672-0.49,1.359c0,0.315,0.183,0.62,0.36,0.915c0.15,0.25,0.32,0.533,0.269,0.688
	c-0.055,0.168-0.368,0.299-0.645,0.414c-0.31,0.13-0.631,0.265-0.81,0.51c-0.182,0.248-0.211,0.598-0.24,0.935
	c-0.025,0.297-0.054,0.632-0.194,0.733c-0.137,0.101-0.462,0.026-0.75-0.041c-0.333-0.077-0.676-0.155-0.969-0.058
	c-0.284,0.093-0.508,0.353-0.724,0.604c-0.198,0.229-0.422,0.49-0.605,0.49c-0.466,0-0.691-0.18-0.951-0.388
	c-0.292-0.232-0.622-0.496-1.263-0.496s-0.972,0.264-1.263,0.496c-0.261,0.208-0.485,0.388-0.952,0.388s-0.691-0.18-0.952-0.388
	c-0.292-0.232-0.622-0.496-1.263-0.496c-0.642,0-0.973,0.264-1.265,0.496c-0.261,0.208-0.486,0.388-0.953,0.388
	c-0.467,0-0.693-0.18-0.954-0.388c-0.292-0.232-0.623-0.496-1.265-0.496c-0.316,0-0.621,0.183-0.916,0.359
	c-0.25,0.15-0.535,0.317-0.688,0.27c-0.168-0.055-0.299-0.368-0.415-0.645c-0.13-0.311-0.264-0.632-0.509-0.811
	c-0.248-0.181-0.597-0.211-0.934-0.239c-0.297-0.025-0.633-0.055-0.735-0.194c-0.1-0.137-0.024-0.462,0.042-0.75
	c0.076-0.332,0.155-0.675,0.059-0.97c-0.093-0.283-0.353-0.507-0.605-0.724c-0.23-0.197-0.49-0.421-0.49-0.604
	c0-0.523,0.183-0.773,0.394-1.062c0.229-0.314,0.49-0.671,0.49-1.356s-0.26-1.042-0.49-1.356c-0.211-0.289-0.394-0.539-0.394-1.062
	s0.183-0.773,0.394-1.062c0.23-0.314,0.49-0.671,0.49-1.357s-0.26-1.044-0.49-1.358c-0.211-0.29-0.394-0.54-0.394-1.064
	s0.183-0.774,0.394-1.064c0.229-0.315,0.49-0.672,0.49-1.359c0-0.315-0.183-0.62-0.36-0.915c-0.15-0.25-0.32-0.533-0.269-0.688
	c0.055-0.168,0.368-0.299,0.645-0.414c0.31-0.13,0.631-0.265,0.81-0.51c0.182-0.248,0.211-0.598,0.24-0.936
	c0.025-0.296,0.054-0.632,0.194-0.733c0.135-0.101,0.463-0.024,0.75,0.041c0.332,0.076,0.674,0.155,0.969,0.059
	c0.284-0.093,0.508-0.353,0.724-0.604c0.198-0.229,0.422-0.49,0.605-0.49c0.466,0,0.691,0.18,0.951,0.388
	c0.292,0.232,0.622,0.496,1.263,0.496s0.972-0.264,1.263-0.496c0.261-0.208,0.485-0.388,0.952-0.388s0.691,0.18,0.952,0.388
	c0.292,0.232,0.622,0.496,1.263,0.496c0.642,0,0.973-0.264,1.265-0.496c0.261-0.208,0.486-0.388,0.953-0.388
	c0.467,0,0.693,0.18,0.954,0.388c0.292,0.232,0.623,0.496,1.265,0.496c0.316,0,0.621-0.183,0.916-0.36
	c0.25-0.15,0.527-0.317,0.688-0.27c0.168,0.056,0.299,0.369,0.415,0.646c0.13,0.311,0.264,0.631,0.509,0.811
	c0.248,0.181,0.597,0.211,0.934,0.239c0.297,0.025,0.633,0.055,0.735,0.194c0.099,0.137,0.024,0.462-0.042,0.75
	c-0.076,0.332-0.155,0.675-0.059,0.97c0.093,0.283,0.353,0.507,0.605,0.724c0.23,0.197,0.49,0.421,0.49,0.604
	c0,0.523-0.183,0.773-0.394,1.062c-0.229,0.314-0.49,0.671-0.49,1.356s0.26,1.042,0.49,1.356c0.211,0.289,0.394,0.539,0.394,1.062
	S37.593,21.989,37.381,22.278z M20.299,22.441v-5.506c0-0.689,0.561-1.25,1.25-1.25h5.494c0.138,0,0.25,0.112,0.25,0.25
	c0,0.138-0.112,0.25-0.25,0.25h-5.494c-0.414,0-0.75,0.337-0.75,0.75v5.506c0,0.138-0.112,0.25-0.25,0.25
	S20.299,22.578,20.299,22.441z M33.787,16.935v10.989c0,0.689-0.561,1.25-1.25,1.25H21.549c-0.689,0-1.25-0.561-1.25-1.25
	c0-0.138,0.112-0.25,0.25-0.25s0.25,0.112,0.25,0.25c0,0.413,0.336,0.75,0.75,0.75h10.989c0.414,0,0.75-0.337,0.75-0.75V16.935
	c0-0.413-0.336-0.75-0.75-0.75c-0.138,0-0.25-0.112-0.25-0.25c0-0.138,0.112-0.25,0.25-0.25
	C33.227,15.685,33.787,16.245,33.787,16.935z"/>
</svg>
