<?xml version="1.0" encoding="utf-8"?>
<!-- Generator: Adobe Illustrator 21.0.2, SVG Export Plug-In . SVG Version: 6.00 Build 0)  -->
<svg version="1.1" id="Layer_1" xmlns="http://www.w3.org/2000/svg" xmlns:xlink="http://www.w3.org/1999/xlink" x="0px" y="0px"
	 viewBox="0 0 51 46" style="enable-background:new 0 0 51 46;" xml:space="preserve">
<path d="M38.385,20.748c-2.291-6.264-7.174-10.157-7.223-10.195l-0.169-0.134L9.295,30.872h30.878l0.001-0.249
	C40.175,30.574,40.179,25.655,38.385,20.748z M20.222,21.258c0.302,0.363,0.474,0.811,0.474,1.289c0,0.542-0.211,1.052-0.595,1.436
	c-0.751,0.751-2.042,0.762-2.817,0.045L20.222,21.258z M16.919,24.372c0.473,0.453,1.089,0.706,1.747,0.706
	c0.676,0,1.312-0.264,1.79-0.742c0.478-0.478,0.742-1.113,0.742-1.789c0-0.607-0.222-1.175-0.611-1.632l7.7-7.259
	c2.619,2.411,4.658,5.463,5.895,8.849c1.103,3.016,1.513,6.162,1.664,7.866h-25.29L16.919,24.372z M36.347,30.372
	c-0.15-1.721-0.565-4.943-1.697-8.038c-1.261-3.448-3.336-6.558-6.001-9.02l2.368-2.232c0.865,0.732,4.893,4.354,6.897,9.838
	c1.534,4.196,1.731,8.401,1.756,9.452H36.347z M27.995,18.734c-1.237,0-2.243,1.006-2.243,2.243c0,1.236,1.006,2.242,2.243,2.242
	s2.243-1.006,2.243-2.242C30.238,19.74,29.232,18.734,27.995,18.734z M27.995,22.719c-0.961,0-1.743-0.781-1.743-1.742
	s0.782-1.743,1.743-1.743s1.743,0.782,1.743,1.743S28.956,22.719,27.995,22.719z"/>
</svg>
