<?xml version="1.0" encoding="utf-8"?>
<!-- Generator: Adobe Illustrator 20.0.0, SVG Export Plug-In . SVG Version: 6.00 Build 0)  -->
<svg version="1.1" id="Layer_1" xmlns="http://www.w3.org/2000/svg" xmlns:xlink="http://www.w3.org/1999/xlink" x="0px" y="0px"
	 viewBox="0 0 42.5 43.5" style="enable-background:new 0 0 42.5 43.5;" xml:space="preserve">
<path d="M21.25,0.5c-11.8,0-21.3,9.5-21.3,21.3S9.45,43,21.25,43s21.3-9.5,21.3-21.3S32.95,0.5,21.25,0.5z M21.25,41.7
	c-11,0-20-9-20-20s9-20,20-20s20,9,20,20S32.25,41.7,21.25,41.7z M32.051,19.57h-4.514L21.47,9.736
	c-0.107-0.173-0.293-0.276-0.496-0.276h-2.938c-0.179,0-0.346,0.081-0.457,0.22c-0.108,0.136-0.149,0.315-0.11,0.495l2.208,9.395
	h-4.39l-2.867-3.01c-0.109-0.116-0.263-0.182-0.423-0.182h-1.809c-0.186,0-0.361,0.089-0.468,0.237
	c-0.111,0.148-0.143,0.343-0.087,0.521l1.461,4.614l-1.461,4.613c-0.018,0.058-0.027,0.117-0.027,0.177
	c0,0.123,0.04,0.246,0.112,0.344c0.109,0.149,0.285,0.238,0.47,0.238h1.809c0.16,0,0.314-0.066,0.422-0.181l2.868-3.012h4.39
	l-2.21,9.398c-0.037,0.173,0.005,0.356,0.112,0.49c0.112,0.141,0.278,0.222,0.457,0.222h2.938c0.203,0,0.388-0.104,0.497-0.277
	l6.066-9.833h4.514c1.187,0,2.842-0.83,2.842-2.181C34.893,20.399,33.237,19.57,32.051,19.57z M20.87,22.986
	c-0.11-0.141-0.277-0.221-0.457-0.221h-5.374c-0.16,0-0.314,0.066-0.422,0.181l-2.868,3.011h-0.764l1.277-4.032
	c0.036-0.115,0.036-0.235,0-0.351l-1.276-4.032h0.764l2.868,3.011c0.109,0.116,0.264,0.182,0.422,0.182h5.374
	c0.18,0,0.346-0.081,0.457-0.222s0.151-0.321,0.11-0.494l-2.208-9.395h1.878l6.066,9.833c0.105,0.171,0.296,0.277,0.496,0.277h4.839
	c0.692,0,1.677,0.525,1.677,1.015c0,0.489-0.984,1.014-1.677,1.014h-4.839c-0.2,0-0.391,0.105-0.496,0.276l-6.066,9.834h-1.878
	l2.208-9.395C21.021,23.308,20.979,23.123,20.87,22.986z"/>
</svg>
