<?xml version="1.0" encoding="utf-8"?>
<!-- Generator: Adobe Illustrator 21.0.2, SVG Export Plug-In . SVG Version: 6.00 Build 0)  -->
<svg version="1.1" id="Layer_1" xmlns="http://www.w3.org/2000/svg" xmlns:xlink="http://www.w3.org/1999/xlink" x="0px" y="0px"
	 viewBox="0 0 51 46" style="enable-background:new 0 0 51 46;" xml:space="preserve">
<path d="M22.755,16.3c-0.129-0.04-0.202-0.176-0.163-0.305c0.036-0.117,0.893-2.888,2.568-3.833
	c0.116-0.066,0.266-0.026,0.333,0.093c0.066,0.118,0.025,0.267-0.093,0.333c-1.504,0.848-2.333,3.523-2.341,3.549
	c-0.032,0.105-0.129,0.173-0.234,0.173C22.803,16.311,22.779,16.308,22.755,16.3z M29.148,22.748
	c0.088,0.037,0.184,0.058,0.285,0.058c0.101,0,0.197-0.021,0.285-0.058c0.088-0.037,0.167-0.091,0.233-0.157
	c0.066-0.066,0.12-0.145,0.157-0.233c0.037-0.088,0.058-0.184,0.058-0.285c0-0.101-0.021-0.197-0.058-0.285
	c-0.037-0.088-0.091-0.167-0.157-0.233c-0.066-0.066-0.145-0.12-0.233-0.157c-0.088-0.037-0.184-0.058-0.285-0.058
	c-0.101,0-0.197,0.021-0.285,0.058c-0.088,0.037-0.167,0.091-0.233,0.157c-0.066,0.066-0.12,0.145-0.157,0.233
	c-0.037,0.088-0.058,0.184-0.058,0.285c0,0.101,0.021,0.197,0.058,0.285c0.037,0.088,0.091,0.167,0.157,0.233
	C28.981,22.657,29.06,22.711,29.148,22.748z M41.566,25.073c-0.04-0.845-0.693-0.899-0.938-0.919
	c-0.089-0.008-0.339-0.009-0.66-0.01c-0.652-0.001-1.864-0.004-2.182-0.093c-0.369-0.103-0.927-0.708-1.296-1.109l-0.158-0.17
	c-0.406-0.433-4.573-5.09-4.626-5.148c-0.013-0.013-1.29-1.26-2.954-2.384c0.04-0.633,0.042-1.391-0.054-2.292
	c-0.293-2.762-1.428-4.192-1.476-4.252l-0.079-0.098l-0.125,0.008c-1.473,0.086-2.965,0.945-4.436,2.552
	c-0.614,0.671-1.151,1.392-1.599,2.064c-1.887,0.049-3.54,0.279-4.167,0.376c-1.944,0.301-5.001,1.152-5.032,1.161
	c-0.13,0.036-0.206,0.171-0.169,0.301c0.03,0.108,0.128,0.178,0.235,0.178c0.021,0,0.044-0.003,0.066-0.009
	c0.03-0.009,3.06-0.851,4.976-1.148c0.58-0.09,2.054-0.293,3.769-0.358c-0.734,1.171-1.161,2.096-1.19,2.16
	c-0.056,0.123-0.001,0.268,0.121,0.323c0.123,0.056,0.268,0.002,0.323-0.121c0.011-0.026,1.19-2.589,3.029-4.597
	c1.337-1.461,2.673-2.262,3.973-2.384c0.249,0.361,1.063,1.686,1.297,3.896c0.278,2.621-0.27,4.121-0.275,4.136
	c-0.047,0.126,0.016,0.267,0.143,0.314c0.028,0.01,0.057,0.016,0.086,0.016c0.099,0,0.191-0.06,0.228-0.158
	c0.014-0.037,0.201-0.566,0.309-1.506c1.513,1.054,2.647,2.159,2.649,2.16c0.172,0.192,4.213,4.709,4.623,5.145l0.156,0.167
	c0.455,0.494,1.022,1.108,1.525,1.248c0.352,0.098,1.294,0.108,2.312,0.111c0.301,0.001,0.537,0.001,0.621,0.008
	c0.32,0.027,0.473,0.08,0.491,0.456c0.027,0.565,0.055,3.848,0.028,4.174c-0.033,0.396-0.254,0.44-0.437,0.436
	c-0.512-0.013-1.099,0.026-1.123,0.028l-0.074,0.017c-0.022,0.009-2.184,0.882-4.315,1.448c-2.138,0.569-4.545,1.174-6.068,1.174
	c-0.009,0-0.018,0-0.026,0c-3.38-0.015-5.402-1.737-5.422-1.754c-0.102-0.088-0.257-0.078-0.344,0.024
	c-0.088,0.102-0.078,0.256,0.023,0.344c0.06,0.052,1.082,0.903,2.862,1.44c-1.196,3.725-4.073,6.024-4.103,6.047
	c-0.106,0.083-0.124,0.237-0.042,0.343c0.048,0.062,0.12,0.093,0.192,0.093c0.053,0,0.106-0.017,0.151-0.052
	c0.125-0.098,3.03-2.415,4.27-6.291c0.704,0.173,1.509,0.291,2.411,0.295c0.009,0,0.018,0,0.028,0c1.582,0,4.026-0.614,6.194-1.19
	c2.007-0.534,4.039-1.334,4.336-1.452c0.137-0.009,0.618-0.035,1.038-0.024c0.532,0.003,0.89-0.315,0.937-0.884
	C41.622,28.968,41.595,25.679,41.566,25.073z"/>
</svg>
