<?xml version="1.0" encoding="utf-8"?>
<!-- Generator: Adobe Illustrator 21.0.2, SVG Export Plug-In . SVG Version: 6.00 Build 0)  -->
<svg version="1.1" id="Layer_1" xmlns="http://www.w3.org/2000/svg" xmlns:xlink="http://www.w3.org/1999/xlink" x="0px" y="0px"
	 viewBox="0 0 51 46" style="enable-background:new 0 0 51 46;" xml:space="preserve">
<path d="M27.223,15.178c0.02,0.275-0.185,0.515-0.458,0.535c-0.273,0.02-0.51-0.187-0.529-0.463
	c-0.02-0.275,0.185-0.515,0.458-0.535C26.966,14.696,27.203,14.903,27.223,15.178z M32.032,25.593
	c-0.275,0.02-0.482,0.259-0.463,0.535s0.259,0.483,0.535,0.463c0.275-0.02,0.483-0.26,0.463-0.535S32.307,25.573,32.032,25.593z
	 M29.681,26.929c-0.275,0.02-0.482,0.259-0.463,0.535s0.259,0.483,0.535,0.463c0.275-0.02,0.482-0.259,0.463-0.535
	S29.957,26.909,29.681,26.929z M19.671,17.231c-0.275,0.02-0.482,0.26-0.463,0.535s0.259,0.482,0.535,0.463
	c0.275-0.02,0.483-0.259,0.463-0.535S19.947,17.211,19.671,17.231z M31.167,31.158c-0.275,0.025-0.478,0.268-0.453,0.543
	s0.268,0.478,0.543,0.453c0.275-0.025,0.478-0.268,0.453-0.543C31.685,31.337,31.442,31.134,31.167,31.158z M40.958,32.51
	c-0.711,1.021-1.725,1.638-2.857,1.744l0,0.001c-0.003,0-0.008,0-0.011,0.001c0,0-0.001,0-0.001,0c-0.001,0-0.002,0-0.003,0
	c-0.963,0.086-2.319,0.142-3.639,0.142c-1.427,0-2.809-0.066-3.601-0.233c-0.601-0.066-1.189-0.261-1.742-0.539
	c-1.006,0.078-2.349,0.121-3.731,0.121c-2.425,0-4.952-0.131-5.909-0.434c-4.807-1.516-8.164-6.729-8.164-12.678v-0.25h1.993
	c0.039-2.126,1.434-4.02,3.44-4.661c0.581-1.144,1.756-1.876,3.023-1.876c0.537,0,1.373,0.29,1.751,0.433
	c0.372-0.533,1.648-1.98,4.553-1.98c2.046,0,3.875,1.278,4.606,3.199c1.389,0.088,2.587,1.031,3.016,2.369
	c0.099-0.012,0.198-0.021,0.299-0.021c1.939,0,3.22,0.989,3.375,2.537h1.79v0.25c0,1.284-0.169,2.574-0.492,3.839
	c0.603,0.195,1.175,0.527,1.671,1.02c0.873,0.868,1.419,2.074,1.539,3.397S41.662,31.5,40.958,32.51z M13.794,20.386h23.052
	c-0.216-1.863-2.22-2.037-2.865-2.037c-0.151,0-0.296,0.023-0.441,0.046l-0.226,0.035l-0.056-0.222
	c-0.323-1.289-1.463-2.2-2.773-2.215l-0.177-0.002l-0.057-0.167c-0.618-1.809-2.302-3.023-4.191-3.023
	c-3.167,0-4.189,1.828-4.231,1.906l-0.107,0.197l-0.208-0.084c-0.32-0.131-1.261-0.472-1.757-0.472c-1.111,0-2.14,0.663-2.62,1.688
	L17.09,16.14l-0.108,0.032C15.129,16.717,13.834,18.443,13.794,20.386z M28.34,33.164c-0.473-0.337-0.895-0.741-1.25-1.196
	c-0.025-0.032-0.05-0.065-0.075-0.098c-0.288-0.386-0.523-0.8-0.694-1.239c-0.049-0.123-0.093-0.246-0.13-0.371
	c-0.016-0.054-0.042-0.105-0.056-0.16c-0.012-0.046-0.015-0.091-0.025-0.137c-0.019-0.083-0.031-0.165-0.045-0.248
	c-0.016-0.1-0.033-0.2-0.041-0.298c-0.002-0.023-0.008-0.047-0.01-0.07c-0.009-0.128-0.009-0.265-0.004-0.406
	c0.001-0.023,0.004-0.045,0.006-0.067c0.009-0.155,0.031-0.317,0.063-0.483c0.004-0.019,0.007-0.038,0.012-0.057
	c0.134-0.628,0.46-1.312,1.152-1.944c0.044-0.041,0.098-0.077,0.145-0.117c0.108-0.092,0.212-0.184,0.337-0.273l0.066-0.071
	c0.247-0.262,0.517-0.549,0.81-0.834c0.879-0.854,1.965-1.692,3.263-1.81c0.288-0.025,0.599-0.034,0.918-0.036
	c0.781-0.004,1.632,0.061,2.471,0.186c0.867,0.129,1.717,0.316,2.443,0.559c0.191,0.08,0.36,0.165,0.509,0.243
	c0.273-1.104,0.421-2.229,0.44-3.351H11.802c0.092,5.628,3.279,10.521,7.812,11.951c1.228,0.388,5.733,0.503,8.74,0.338
	C28.35,33.171,28.345,33.167,28.34,33.164z M36.113,33.869c-0.412-0.202-0.805-0.467-1.157-0.817
	c-0.873-0.868-1.419-2.074-1.539-3.397s0.203-2.607,0.907-3.617c0.683-0.98,1.648-1.576,2.726-1.716
	c-1.475-0.418-3.332-0.635-4.797-0.557c-0.115,0.006-0.234,0.01-0.343,0.02c-0.895,0.081-1.697,0.575-2.399,1.167
	c-0.507,0.428-0.963,0.905-1.354,1.32l-0.084,0.09c-0.011,0.008-0.019,0.016-0.029,0.024l-0.009,0.009
	c-0.231,0.163-0.424,0.342-0.604,0.527c-0.047,0.048-0.096,0.096-0.139,0.145c-0.155,0.178-0.285,0.365-0.393,0.56
	c-0.034,0.061-0.063,0.124-0.093,0.187c-0.099,0.21-0.184,0.425-0.232,0.651c-0.004,0.017-0.003,0.034-0.007,0.051
	c-0.045,0.237-0.06,0.483-0.048,0.736c0.002,0.038,0,0.075,0.003,0.113c0.011,0.136,0.034,0.272,0.061,0.408
	c0.009,0.043,0.013,0.085,0.024,0.129c0.024,0.101,0.06,0.2,0.093,0.3c0.034,0.106,0.069,0.211,0.11,0.314
	c0.052,0.127,0.11,0.252,0.175,0.375c0.028,0.054,0.058,0.107,0.088,0.161c0.488,0.853,1.259,1.611,2.197,2.099
	c0.003,0.002,0.007,0.004,0.01,0.006l0.25,0.13c0.447,0.199,0.917,0.336,1.396,0.389C32.015,33.901,34.226,33.934,36.113,33.869z
	 M41.366,28.938c-0.108-1.206-0.603-2.303-1.393-3.087c-0.43-0.428-0.923-0.718-1.442-0.891l-0.002,0.007l-0.038-0.019
	c-0.316-0.101-0.64-0.17-0.97-0.17c-0.095,0-0.189,0.004-0.285,0.013c-0.987,0.089-1.875,0.633-2.503,1.533
	c-0.637,0.914-0.927,2.081-0.819,3.287c0.109,1.206,0.604,2.303,1.393,3.087c0.778,0.773,1.751,1.156,2.736,1.062
	c0.001,0,0.001,0,0.002,0c0.987-0.089,1.875-0.633,2.503-1.533C41.184,31.311,41.475,30.144,41.366,28.938z"/>
</svg>
