<?xml version="1.0" encoding="utf-8"?>
<!-- Generator: Adobe Illustrator 21.0.2, SVG Export Plug-In . SVG Version: 6.00 Build 0)  -->
<svg version="1.1" id="Layer_1" xmlns="http://www.w3.org/2000/svg" xmlns:xlink="http://www.w3.org/1999/xlink" x="0px" y="0px"
	 viewBox="0 0 51 46" style="enable-background:new 0 0 51 46;" xml:space="preserve">
<path d="M28.458,27.211c0.02,0.275-0.187,0.515-0.463,0.535c-0.275,0.02-0.515-0.187-0.535-0.463s0.187-0.515,0.463-0.535
	C28.198,26.729,28.438,26.936,28.458,27.211z M25.572,28.085c-0.275,0.02-0.482,0.259-0.463,0.535s0.259,0.483,0.535,0.463
	c0.275-0.02,0.482-0.26,0.463-0.535S25.848,28.065,25.572,28.085z M27.058,32.314c-0.275,0.025-0.478,0.268-0.453,0.543
	c0.025,0.275,0.268,0.478,0.543,0.453s0.478-0.268,0.453-0.543S27.333,32.29,27.058,32.314z M33.992,35.41l0,0.001
	c-0.003,0-0.008,0-0.011,0.001c0,0,0,0,0,0c-0.001,0-0.002,0-0.003,0c-0.962,0.086-2.316,0.142-3.634,0.142
	c-1.429,0-2.814-0.066-3.606-0.234c-0.764-0.084-1.512-0.367-2.186-0.783h-7.259c-1.059,0-1.921-0.862-1.921-1.922
	c-0.004,0-0.557-3.211-0.557-6.195c0-3.228,0.326-6.28,0.596-8.253h-2.216c-0.685,0-1.242-0.558-1.242-1.242
	s0.557-1.242,1.242-1.242h2.562c0.225-1.434,2.85-2.258,6.011-2.556c0.014-2.085,1.441-3.178,2.853-3.178s2.839,1.093,2.853,3.178
	c3.161,0.299,5.785,1.122,6.011,2.556h2.363c0.685,0,1.242,0.558,1.242,1.242s-0.557,1.242-1.242,1.242H33.9
	c0.211,1.872,0.47,4.667,0.514,7.391c0.048,0.023,0.094,0.044,0.121,0.052l-0.006,0.021c1.691,0.546,3.032,2.261,3.226,4.418
	C38.002,32.791,36.315,35.193,33.992,35.41z M15.533,21.578c0.008,0.015,0.026,0.024,0.03,0.039c0.223,0.165,1.23,0.564,2.645,0.553
	c1.374-0.008,3.377-0.414,5.117-2.307l0.229-0.25l0.171,0.294c0.01,0.016,0.979,1.652,2.578,1.892
	c1.012,0.152,2.076-0.283,3.164-1.289l0.199-0.184l0.167,0.213c0.013,0.016,1.252,1.57,2.544,1.601
	c0.505,0.007,0.938-0.206,1.336-0.663c-0.197-2.544-0.474-4.646-0.56-5.272c-1.743-0.09-15.274-0.09-16.937,0
	C16.109,16.81,15.764,18.885,15.533,21.578z M35.845,16.183h-2.19c0.039,0.28,0.107,0.795,0.188,1.484h2.002
	c0.409,0,0.742-0.333,0.742-0.742S36.254,16.183,35.845,16.183z M22.269,13.082c0.768-0.058,1.559-0.088,2.349-0.088
	c0.791,0,1.582,0.03,2.35,0.088c-0.015-0.812-0.265-1.494-0.736-1.968c-0.425-0.43-0.999-0.666-1.614-0.666
	C23.5,10.448,22.303,11.277,22.269,13.082z M16.249,15.75c2.465-0.206,14.412-0.079,16.734-0.039
	c-0.137-0.612-1.002-1.164-2.488-1.567c-1.546-0.419-3.633-0.65-5.875-0.65C19.99,13.494,16.473,14.456,16.249,15.75z
	 M15.478,17.667c0.099-0.685,0.184-1.202,0.234-1.484h-2.519c-0.409,0-0.742,0.333-0.742,0.742s0.333,0.742,0.742,0.742H15.478z
	 M23.855,34.037c-0.131-0.11-0.251-0.23-0.372-0.35c-0.022-0.022-0.044-0.043-0.066-0.065c-0.352-0.359-0.653-0.758-0.896-1.189
	c-0.038-0.066-0.075-0.133-0.109-0.2c-0.06-0.118-0.117-0.235-0.167-0.356c-0.076-0.182-0.142-0.366-0.194-0.552
	c-0.006-0.023-0.018-0.046-0.024-0.069c-0.021-0.084-0.029-0.166-0.045-0.249c-0.016-0.08-0.033-0.161-0.044-0.241
	c-0.012-0.089-0.018-0.177-0.024-0.265c-0.004-0.055-0.014-0.111-0.015-0.166c-0.001-0.063,0.003-0.133,0.005-0.2
	c0.001-0.029,0-0.059,0.002-0.088c0.009-0.165,0.031-0.339,0.068-0.521c0.003-0.013,0.007-0.026,0.01-0.04
	c0.035-0.162,0.085-0.329,0.15-0.498c0.003-0.009,0.006-0.018,0.01-0.026c0.236-0.605,0.674-1.241,1.473-1.808l0.066-0.071
	c0.989-1.05,2.343-2.487,4.073-2.644c1.717-0.159,4.117,0.137,5.832,0.709c0.116,0.049,0.224,0.1,0.324,0.148
	c-0.023-1.072-0.078-2.15-0.15-3.174c-0.417,0.348-0.882,0.52-1.397,0.516c-1.229-0.029-2.335-1.124-2.751-1.589
	c-1.141,0.991-2.281,1.402-3.388,1.242c-1.424-0.215-2.375-1.333-2.752-1.861c-1.725,1.742-3.715,2.245-5.321,2.246
	c-1.192,0-2.166-0.278-2.667-0.532c-0.102,1.327-0.173,2.782-0.173,4.274c0,2.946,0.548,6.121,0.553,6.152
	c0.004,0.827,0.641,1.465,1.425,1.465H23.855z M32.001,35.025c-1.434-0.707-2.52-2.289-2.693-4.216
	c-0.242-2.689,1.38-5.037,3.632-5.333c-1.59-0.451-3.635-0.673-5.14-0.538c-0.193,0.017-0.381,0.054-0.565,0.106
	c-0.036,0.01-0.07,0.028-0.105,0.039c-0.147,0.047-0.293,0.097-0.435,0.163c-0.016,0.007-0.031,0.018-0.047,0.025
	c-1.033,0.493-1.912,1.423-2.602,2.155l-0.007,0.007l-0.078,0.083c-0.01,0.007-0.017,0.015-0.027,0.021l-0.011,0.011
	c-0.22,0.155-0.405,0.325-0.579,0.501c-0.049,0.051-0.101,0.1-0.146,0.152c-0.152,0.172-0.284,0.352-0.393,0.54
	c-0.031,0.054-0.055,0.11-0.082,0.165c-0.087,0.175-0.16,0.355-0.211,0.542c-0.01,0.038-0.025,0.074-0.034,0.112
	c-0.053,0.228-0.076,0.465-0.074,0.708c0,0.051,0.002,0.102,0.005,0.153c0.006,0.116,0.017,0.233,0.036,0.35
	c0.008,0.052,0.018,0.105,0.029,0.158c0.023,0.115,0.053,0.229,0.087,0.344c0.029,0.098,0.066,0.194,0.102,0.29
	c0.371,0.969,1.114,1.885,2.101,2.511l0.131,0.083c0.595,0.351,1.249,0.595,1.921,0.669C27.905,35.057,30.114,35.091,32.001,35.025z
	 M37.258,30.094c-0.174-1.933-1.35-3.475-2.835-3.975l0,0.01l-0.058-0.03c-0.309-0.098-0.627-0.167-0.957-0.167
	c-0.093,0-0.187,0.004-0.281,0.013c-2.054,0.186-3.544,2.348-3.322,4.82c0.223,2.472,2.075,4.341,4.129,4.149l0.002,0
	C35.99,34.728,37.48,32.566,37.258,30.094z"/>
</svg>
