<?xml version="1.0" encoding="utf-8"?>
<!-- Generator: Adobe Illustrator 21.0.2, SVG Export Plug-In . SVG Version: 6.00 Build 0)  -->
<svg version="1.1" id="Layer_1" xmlns="http://www.w3.org/2000/svg" xmlns:xlink="http://www.w3.org/1999/xlink" x="0px" y="0px"
	 viewBox="0 0 51 46" style="enable-background:new 0 0 51 46;" xml:space="preserve">
<path d="M29.627,29.563H14.523c-1.064,0-2-0.726-2.277-1.766l-0.046-0.172l-0.177-0.013c-2.183-0.162-2.816-2.249-2.976-3.02h18.35
	c0.054-0.17,0.122-0.336,0.206-0.5h-1.775c0.015-0.785,0.188-1.648,0.678-2.534c0.435-0.787,0.899-1.401,1.359-1.899l2.086,1.917
	c0.122-0.114,0.248-0.223,0.378-0.333l-2.112-1.941c1.089-1.041,2.093-1.407,2.504-1.515l0.898,2.594
	c0.151-0.073,0.308-0.13,0.466-0.183l-1.03-2.975l-0.202,0.025c-0.112,0.015-2.754,0.394-4.784,4.067
	c-0.208,0.377-0.361,0.75-0.476,1.117c-0.005-3.101-2.425-4.903-2.452-4.922l-0.176-0.128L18,22.534l0.259-2.469l-7.365-1.697
	l-0.085,0.185c-0.044,0.095-0.983,2.251,0.573,5.542H8.469l0.032,0.279c0.004,0.034,0.428,3.38,3.311,3.722
	c0.388,1.168,1.479,1.969,2.71,1.969h16.022C30.222,29.93,29.918,29.756,29.627,29.563z M23.014,18.053
	c0.584,0.503,2.471,2.377,2.016,5.269c-0.044,0.277-0.104,0.524-0.164,0.772h-5.927l-0.799-0.984L23.014,18.053z M17.889,23.592
	l0.407,0.502h-0.46L17.889,23.592z M11.196,18.949l5.769,1.331l-5.815,1.596C10.846,20.4,11.069,19.355,11.196,18.949z
	 M11.265,22.363l6.435-1.766l-0.367,3.497h-5.389C11.638,23.476,11.409,22.894,11.265,22.363z M35.422,30.888
	c-1.427,0-2.81-0.066-3.602-0.233c-2.141-0.234-4.176-1.984-4.71-4.065c-0.413-1.606,0.174-3.106,1.61-4.115l0.047-0.058
	c0.989-1.049,2.343-2.486,4.072-2.643c1.719-0.152,4.117,0.137,5.832,0.709c0.23,0.097,0.43,0.202,0.601,0.293
	c0.138,0.073,0.282,0.149,0.347,0.167l-0.132,0.482c-0.119-0.032-0.265-0.11-0.45-0.208c-0.159-0.084-0.345-0.184-0.542-0.267
	c-1.638-0.546-3.954-0.826-5.61-0.679c-1.541,0.14-2.819,1.496-3.753,2.487l-0.085,0.091c-1.312,0.929-1.814,2.201-1.452,3.615
	c0.486,1.89,2.336,3.479,4.306,3.697c1.507,0.315,5.164,0.262,7.132,0.084l0.045,0.498C38.112,30.831,36.748,30.888,35.422,30.888z
	 M33.541,22.545c0.02,0.275-0.187,0.515-0.463,0.535c-0.275,0.02-0.515-0.187-0.535-0.463c-0.02-0.275,0.187-0.515,0.463-0.535
	C33.281,22.062,33.521,22.269,33.541,22.545z M31.19,23.881c0.02,0.275-0.187,0.515-0.463,0.535
	c-0.275,0.02-0.515-0.187-0.535-0.463s0.187-0.515,0.463-0.535S31.17,23.606,31.19,23.881z M32.685,28.101
	c0.025,0.275-0.178,0.518-0.453,0.543c-0.275,0.025-0.518-0.178-0.543-0.453s0.178-0.518,0.453-0.543
	C32.417,27.623,32.66,27.826,32.685,28.101z M38.733,30.76c-1.02,0-2.004-0.426-2.803-1.219c-0.873-0.868-1.419-2.074-1.539-3.397
	s0.203-2.607,0.907-3.617c0.713-1.024,1.732-1.644,2.868-1.746c1.137-0.101,2.25,0.325,3.134,1.204
	c0.873,0.868,1.419,2.074,1.539,3.397s-0.203,2.607-0.907,3.617c-0.713,1.024-1.732,1.644-2.868,1.746
	C38.953,30.755,38.843,30.76,38.733,30.76z M38.496,21.266c-0.095,0-0.189,0.004-0.285,0.013c-0.987,0.089-1.876,0.633-2.503,1.533
	c-0.637,0.914-0.927,2.081-0.819,3.287s0.603,2.303,1.393,3.087c0.778,0.773,1.752,1.156,2.737,1.062
	c0.987-0.089,1.876-0.633,2.503-1.533c0.637-0.914,0.927-2.081,0.819-3.287s-0.603-2.303-1.393-3.087
	C40.245,21.641,39.383,21.266,38.496,21.266z M15.847,22.746c0.016,0.224-0.152,0.419-0.377,0.435
	c-0.224,0.016-0.419-0.152-0.435-0.376c-0.016-0.224,0.152-0.419,0.377-0.436C15.636,22.353,15.831,22.522,15.847,22.746z
	 M22.527,21.44c0.016,0.224-0.152,0.419-0.377,0.436c-0.224,0.016-0.419-0.152-0.435-0.377c-0.016-0.224,0.152-0.419,0.377-0.435
	C22.316,21.047,22.511,21.216,22.527,21.44z"/>
</svg>
