<?xml version="1.0" encoding="utf-8"?>
<!-- Generator: Adobe Illustrator 21.0.2, SVG Export Plug-In . SVG Version: 6.00 Build 0)  -->
<svg version="1.1" id="Layer_1" xmlns="http://www.w3.org/2000/svg" xmlns:xlink="http://www.w3.org/1999/xlink" x="0px" y="0px"
	 viewBox="0 0 27 27" style="enable-background:new 0 0 27 27;" xml:space="preserve">
<path d="M20.583,13.917c0,4.4-3.5,8-7.8,8c-2,0-3.9-0.8-5.4-2.2c-0.4-0.3-0.9-1-0.9-1l1.2-0.9c0,0,0.4,0.6,0.7,0.8
	c1.2,1.2,2.8,1.8,4.4,1.8c3.5,0,6.4-2.9,6.4-6.5s-2.9-6.5-6.4-6.5c-3.3,0-6,2.5-6.4,5.8l2.8-1.6v1.9l-3.6,2l-3-2v-1.9l2.4,1.5
	c0.4-4,3.7-7.2,7.8-7.2C17.083,5.917,20.583,9.517,20.583,13.917z M11.5,11v5h4v-1h-3v-4H11.5z"/>
</svg>
