<?xml version="1.0" encoding="utf-8"?>
<!-- Generator: Adobe Illustrator 21.0.2, SVG Export Plug-In . SVG Version: 6.00 Build 0)  -->
<svg version="1.1" id="Layer_1" xmlns="http://www.w3.org/2000/svg" xmlns:xlink="http://www.w3.org/1999/xlink" x="0px" y="0px"
	 viewBox="0 0 41.083 43" style="enable-background:new 0 0 41.083 43;" xml:space="preserve">
<path id="XMLID_14_" d="M11.358,12.707H9.067v-2.291h2.291V12.707z M27.013,21.539c0.391,0,0.71-0.246,0.71-0.55
	c0-0.304-0.319-0.55-0.71-0.55H11.098c-0.391,0-0.71,0.246-0.71,0.55c0,0.304,0.319,0.55,0.71,0.55h7.584v3.912h-7.584
	c-0.391,0-0.71,0.246-0.71,0.55c0,0.304,0.319,0.55,0.71,0.55h15.915c0.391,0,0.71-0.246,0.71-0.55c0-0.304-0.319-0.55-0.71-0.55
	h-7.232v-3.912H27.013z M34.852,11.166v23.936c0,0.607-0.876,1.098-1.484,1.098H9.431c-0.608,0-0.862-0.491-0.862-1.098v-1.56H7.087
	c-0.608,0-1.176-0.528-1.176-1.135V8.471c0-0.607,0.568-1.212,1.176-1.212h23.937c0.608,0,1.17,0.605,1.17,1.212v1.446h1.174
	C33.976,9.918,34.852,10.559,34.852,11.166z M7.388,14.332c0,0,0.085,0.015,0.092,0.015h23.152c0.007,0,0.087-0.015,0.087-0.015
	V8.736H7.388V14.332z M7.388,32.066h23.33c0,0,0.007-16.538,0-16.538H7.388C7.381,15.529,7.388,32.066,7.388,32.066z M33.376,11.394
	h-1.181v21.014c0,0.607-0.563,1.135-1.17,1.135H10.046v1.181h23.33V18.122l0,0l0,0V11.394z"/>
</svg>
