<?xml version="1.0" encoding="utf-8"?>
<!-- Generator: Adobe Illustrator 20.0.0, SVG Export Plug-In . SVG Version: 6.00 Build 0)  -->
<svg version="1.1" id="Layer_1" xmlns="http://www.w3.org/2000/svg" xmlns:xlink="http://www.w3.org/1999/xlink" x="0px" y="0px"
	 viewBox="0 0 15.562 15.812" style="enable-background:new 0 0 15.562 15.812;" xml:space="preserve">
<path d="M7.75,0.264c-4.142,0-7.531,3.389-7.531,7.531s3.389,7.531,7.531,7.531s7.531-3.389,7.531-7.531S11.892,0.264,7.75,0.264z
	 M7.75,13.825c-3.325,0-6.031-2.705-6.031-6.031S4.425,1.764,7.75,1.764c3.325,0,6.031,2.705,6.031,6.031
	C13.781,11.12,11.075,13.825,7.75,13.825z M9.275,8.66C9.102,8.475,8.884,8.305,8.619,8.151c0.533-0.077,0.933-0.264,1.2-0.561
	c0.268-0.297,0.401-0.673,0.401-1.128c0-0.359-0.088-0.677-0.265-0.956C9.779,5.227,9.544,5.033,9.25,4.924S8.485,4.761,7.836,4.761
	H5.258v6.068h1.225V8.295h0.248c0.281,0,0.487,0.023,0.617,0.068s0.253,0.13,0.368,0.252c0.116,0.123,0.331,0.42,0.646,0.892
	l0.886,1.32h1.465L9.972,9.645C9.68,9.173,9.447,8.845,9.275,8.66z M7.389,7.327H6.483v-1.54h0.956c0.497,0,0.795,0.007,0.894,0.021
	C8.532,5.841,8.686,5.92,8.795,6.046s0.164,0.29,0.164,0.495c0,0.182-0.041,0.334-0.124,0.455C8.751,7.117,8.637,7.203,8.49,7.252
	C8.344,7.302,7.977,7.327,7.389,7.327z"/>
</svg>
