<?xml version="1.0" encoding="utf-8"?>
<!-- Generator: Adobe Illustrator 21.0.2, SVG Export Plug-In . SVG Version: 6.00 Build 0)  -->
<svg version="1.1" id="Layer_1" xmlns="http://www.w3.org/2000/svg" xmlns:xlink="http://www.w3.org/1999/xlink" x="0px" y="0px"
	 viewBox="0 0 51 46" style="enable-background:new 0 0 51 46;" xml:space="preserve">
<path d="M25.211,24.914c-0.436-0.288-1.041-0.236-1.704,0.143c-0.61,0.35-1.212,0.946-1.696,1.679
	c-1.048,1.587-1.197,3.274-0.338,3.842c0.187,0.123,0.403,0.182,0.638,0.182c0.848-0.001,1.941-0.761,2.761-2.003
	c0.484-0.732,0.795-1.521,0.877-2.219C25.838,25.778,25.647,25.202,25.211,24.914z M25.253,26.478
	c-0.073,0.623-0.356,1.333-0.797,2.002c-0.938,1.422-2.177,2.028-2.707,1.679c-0.538-0.354-0.473-1.705,0.48-3.148
	c0.441-0.669,0.984-1.209,1.527-1.521c0.299-0.171,0.578-0.259,0.81-0.259c0.143,0,0.268,0.033,0.37,0.101
	C25.202,25.507,25.317,25.925,25.253,26.478z M38.143,21.945c-1.902,0-3.393,0.806-3.393,1.834s1.49,1.834,3.393,1.834
	s3.393-0.806,3.393-1.834S40.045,21.945,38.143,21.945z M38.143,25.113c-1.73,0-2.893-0.689-2.893-1.334s1.162-1.334,2.893-1.334
	s2.893,0.689,2.893,1.334S39.873,25.113,38.143,25.113z M17.754,23.056c-0.612-0.353-1.243-0.611-1.834-0.761
	c0.498-0.272,0.952-0.571,1.296-0.901c0.663-0.637,0.921-1.286,0.727-1.828c-0.194-0.542-0.805-0.881-1.721-0.952
	c-0.845-0.069-1.875,0.099-2.897,0.464c-2.209,0.791-3.641,2.243-3.26,3.307c0.194,0.543,0.805,0.881,1.721,0.952
	c0.123,0.01,0.249,0.015,0.379,0.015c0.393,0,0.819-0.057,1.256-0.144c-0.035,0.898,0.941,2.125,2.5,3.026
	c0.854,0.492,1.745,0.809,2.511,0.889c0.128,0.014,0.25,0.021,0.367,0.021c0.646,0,1.116-0.205,1.339-0.593h0
	C20.652,25.66,19.604,24.125,17.754,23.056z M11.825,22.839c-0.698-0.055-1.167-0.281-1.29-0.622
	c-0.241-0.675,0.914-1.937,2.958-2.668c0.821-0.293,1.641-0.449,2.348-0.449c0.117,0,0.232,0.004,0.342,0.013
	c0.698,0.055,1.168,0.281,1.29,0.622c0.122,0.341-0.098,0.814-0.602,1.3c-0.444,0.426-1.063,0.816-1.773,1.131
	c-0.707-0.047-1.227,0.129-1.495,0.501C12.965,22.815,12.352,22.88,11.825,22.839z M19.705,26.3
	c-0.157,0.271-0.603,0.393-1.22,0.325c-0.698-0.073-1.52-0.366-2.314-0.825c-1.69-0.976-2.516-2.265-2.201-2.811
	c0.129-0.223,0.451-0.343,0.904-0.343c0.1,0,0.205,0.006,0.316,0.018c0.698,0.073,1.52,0.366,2.314,0.825
	C19.194,24.465,20.02,25.754,19.705,26.3z M23.342,22.445c1.551,0,2.836-0.338,3.556-0.859c0.583,0.387,1.327,0.726,2.173,0.965
	c0.743,0.21,1.482,0.317,2.149,0.317c0.271,0,0.531-0.018,0.773-0.054c0.909-0.135,1.495-0.515,1.651-1.069
	c0.156-0.554-0.146-1.184-0.851-1.773c-0.651-0.544-1.585-1.006-2.63-1.3c-1.045-0.296-2.085-0.387-2.922-0.265
	c-0.695,0.103-1.198,0.352-1.467,0.71c-0.678-0.21-1.501-0.34-2.432-0.34c-2.386,0-4.185,0.788-4.185,1.834
	S20.957,22.445,23.342,22.445z M26.071,19.611c0.098-0.348,0.551-0.606,1.244-0.709c0.22-0.032,0.455-0.049,0.701-0.049
	c0.62,0,1.312,0.102,2.012,0.299c0.979,0.275,1.847,0.703,2.445,1.203c0.537,0.449,0.788,0.906,0.69,1.255
	c-0.098,0.348-0.551,0.606-1.243,0.709c-0.773,0.116-1.735,0.025-2.713-0.249C27.117,21.48,25.877,20.301,26.071,19.611z
	 M23.342,19.277c0.88,0,1.635,0.122,2.24,0.302c-0.096,0.548,0.246,1.149,0.903,1.692c-0.621,0.379-1.74,0.674-3.143,0.674
	c-2.171,0-3.685-0.703-3.685-1.334S21.171,19.277,23.342,19.277z M30.837,24.327c-2.137,0-3.811,0.806-3.811,1.834
	s1.674,1.834,3.811,1.834c2.137,0,3.811-0.806,3.811-1.834S32.974,24.327,30.837,24.327z M30.837,27.495
	c-1.951,0-3.311-0.703-3.311-1.334s1.359-1.334,3.311-1.334s3.311,0.703,3.311,1.334S32.788,27.495,30.837,27.495z"/>
</svg>
