<?xml version="1.0" encoding="utf-8"?>
<!-- Generator: Adobe Illustrator 21.0.2, SVG Export Plug-In . SVG Version: 6.00 Build 0)  -->
<svg version="1.1" id="Layer_1" xmlns="http://www.w3.org/2000/svg" xmlns:xlink="http://www.w3.org/1999/xlink" x="0px" y="0px"
	 viewBox="0 0 51 46" style="enable-background:new 0 0 51 46;" xml:space="preserve">
<path d="M38.641,16.945l2.471-2.361l-0.221-0.231l0.014-0.014c-0.415-0.415-0.747-0.972-1.068-1.51
	c-0.464-0.777-0.943-1.582-1.703-2.021c-0.795-0.459-1.751-0.47-2.675-0.479c-0.634-0.008-1.233-0.014-1.767-0.156
	c-0.548-0.146-1.078-0.443-1.64-0.757c-0.8-0.447-1.627-0.909-2.526-0.909S27.8,8.969,27,9.416c-0.562,0.313-1.092,0.61-1.64,0.757
	c-0.534,0.143-1.133,0.148-1.767,0.156c-0.924,0.01-1.88,0.021-2.675,0.479c-0.76,0.439-1.239,1.244-1.703,2.022
	c-0.321,0.538-0.652,1.094-1.067,1.509c-0.415,0.414-0.971,0.746-1.508,1.066c-0.778,0.464-1.583,0.944-2.022,1.704
	c-0.459,0.795-0.47,1.751-0.48,2.675c-0.007,0.635-0.014,1.233-0.157,1.768c-0.146,0.548-0.443,1.079-0.757,1.641
	c-0.447,0.8-0.909,1.626-0.909,2.525s0.462,1.727,0.909,2.525c0.314,0.562,0.611,1.093,0.757,1.641
	c0.143,0.534,0.149,1.133,0.156,1.767c0.01,0.925,0.021,1.881,0.48,2.675c0.439,0.76,1.243,1.239,2.021,1.703
	c0.538,0.321,1.094,0.653,1.509,1.068l0.015-0.015l0.089,0.095l2.505-2.34l0.002,0.002l0.061-0.061l0.281-0.263l-0.009-0.01
	l17.554-17.555L38.641,16.945z M37.884,11.242c0.646,0.374,1.072,1.088,1.523,1.845c0.303,0.509,0.627,1.022,1.022,1.457
	l-2.153,2.057c-1.319-1.267-2.846-2.186-4.47-2.768l0.747-3.03c0.299,0.019,0.601,0.024,0.899,0.027
	C36.353,10.839,37.203,10.849,37.884,11.242z M27.244,9.853c0.778-0.435,1.513-0.846,2.282-0.846s1.504,0.411,2.282,0.846
	c0.564,0.314,1.146,0.641,1.755,0.803c0.159,0.043,0.323,0.073,0.489,0.097l-0.719,2.914c-2.089-0.656-4.311-0.758-6.443-0.307
	l-0.758-2.938C26.512,10.257,26.882,10.054,27.244,9.853z M19.645,13.087c0.451-0.757,0.877-1.471,1.523-1.845
	c0.682-0.394,1.531-0.403,2.431-0.413c0.637-0.008,1.295-0.015,1.89-0.174c0.058-0.016,0.115-0.039,0.172-0.057l0.743,2.88
	c-2.134,0.54-4.156,1.63-5.822,3.297c-0.051,0.051-0.094,0.107-0.144,0.159l-1.923-2.257C18.966,14.22,19.312,13.645,19.645,13.087z
	 M14.636,19.791c0.01-0.899,0.02-1.749,0.413-2.431c0.374-0.647,1.089-1.073,1.846-1.524c0.427-0.254,0.847-0.531,1.234-0.842
	l1.97,2.312c-1.277,1.428-2.203,3.092-2.722,4.898l-2.89-0.675C14.61,20.974,14.63,20.376,14.636,19.791z M13.66,28.001
	c-0.435-0.778-0.846-1.514-0.846-2.282s0.411-1.504,0.845-2.281c0.258-0.461,0.517-0.936,0.694-1.426l2.902,0.678
	c-0.24,0.981-0.378,1.994-0.378,3.029c0,0.954,0.116,1.888,0.32,2.796L14.412,29.6C14.239,29.048,13.948,28.516,13.66,28.001z
	 M15.05,34.076c-0.394-0.681-0.403-1.531-0.413-2.431c-0.006-0.52-0.016-1.052-0.105-1.555l2.788-1.086
	c0.546,2.039,1.595,3.913,3.092,5.471l-2.188,2.044c-0.409-0.346-0.868-0.644-1.329-0.919C16.138,35.15,15.424,34.723,15.05,34.076z
	 M20.761,34.131c-2.184-2.273-3.384-5.251-3.384-8.412c0-3.245,1.264-6.296,3.559-8.591c2.369-2.368,5.479-3.553,8.591-3.553
	c3.033,0,6.067,1.126,8.412,3.378L20.761,34.131z M24.248,19.8l-0.041,4.258c-0.001,0.138-0.113,0.248-0.25,0.248
	c-0.001,0-0.001,0-0.002,0c-0.138-0.001-0.249-0.114-0.248-0.252l0.041-4.258c0.001-0.138,0.113-0.248,0.25-0.248
	c0.001,0,0.001,0,0.002,0C24.139,19.549,24.25,19.662,24.248,19.8z M27.153,17.778v5.411c0,0.138-0.112,0.25-0.25,0.25
	s-0.25-0.112-0.25-0.25v-5.411c0-0.138,0.112-0.25,0.25-0.25S27.153,17.64,27.153,17.778z"/>
</svg>
