<?xml version="1.0" encoding="utf-8"?>
<!-- Generator: Adobe Illustrator 20.0.0, SVG Export Plug-In . SVG Version: 6.00 Build 0)  -->
<svg version="1.1" id="Layer_1" xmlns="http://www.w3.org/2000/svg" xmlns:xlink="http://www.w3.org/1999/xlink" x="0px" y="0px"
	 viewBox="0 0 42.5 43.5" style="enable-background:new 0 0 42.5 43.5;" xml:space="preserve">
<g id="XMLID_151_">
	<path d="M21.3,43C9.5,43,0,33.5,0,21.8S9.5,0.5,21.3,0.5S42.5,10,42.5,21.8S33,43,21.3,43z M21.3,1.7c-11.1,0-20.1,9-20.1,20.1
		s9,20.1,20.1,20.1s20.1-9,20.1-20.1S32.3,1.7,21.3,1.7z"/>
</g>
<path d="M30,11.6h-6.9l2.3-2.1h2c0.3,0,0.6-0.3,0.6-0.6s-0.3-0.6-0.6-0.6H15.1c-0.3,0-0.6,0.3-0.6,0.6s0.3,0.6,0.6,0.6h1.8l2.1,2.1
	h-6.4c-0.3,0-0.5,0.2-0.5,0.5V30c0,0.3,0.2,0.5,0.5,0.5h3.3l-3.4,3.6c-0.2,0.2-0.2,0.6,0,0.8c0.2,0.2,0.6,0.2,0.8,0l1-1h14.1l1,1
	c0.1,0.1,0.2,0.2,0.4,0.2c0.1,0,0.3-0.1,0.4-0.1c0.2-0.2,0.2-0.5,0-0.8l-3.4-3.6H30c0.3,0,0.5-0.2,0.5-0.5V12.1
	C30.5,11.8,30.3,11.6,30,11.6z M23.7,9.5L21,11.7l-2.4-2.2H23.7z M27.3,32.7H15.2l2.1-2.2h7.8L27.3,32.7z M25.3,30.3L25.3,30.3
	C25.3,30.3,25.3,30.3,25.3,30.3L25.3,30.3z M29.4,29.5H13.1v-7.4h16.3V29.5z M13.1,12.8h16.3V21H13.1V12.8z M14.9,26.4
	c0-0.7,0.5-1.2,1.2-1.2c0.7,0,1.2,0.5,1.2,1.2c0,0.7-0.5,1.2-1.2,1.2C15.4,27.6,14.9,27.1,14.9,26.4z M25.2,26.4
	c0-0.7,0.5-1.2,1.2-1.2c0.7,0,1.2,0.5,1.2,1.2c0,0.7-0.5,1.2-1.2,1.2C25.8,27.6,25.2,27.1,25.2,26.4z"/>
</svg>
