<?xml version="1.0" encoding="utf-8"?>
<!-- Generator: Adobe Illustrator 19.0.0, SVG Export Plug-In . SVG Version: 6.00 Build 0)  -->
<svg version="1.1" id="Layer_1" xmlns="http://www.w3.org/2000/svg" xmlns:xlink="http://www.w3.org/1999/xlink" x="0px" y="0px"
	 viewBox="0 0 612 792" style="enable-background:new 0 0 612 792;" xml:space="preserve">
<g id="XMLID_8837_">
	<g id="XMLID_8842_">
		<path id="XMLID_8843_" d="M305.1,408.9c-1.2,0-2.2-1.1-2.2-2.5c0-1.4,1-2.5,2.2-2.5c1.2,0,2.2,1.1,2.2,2.5
			C307.3,407.8,306.3,408.9,305.1,408.9L305.1,408.9z M305.1,404.9c-0.7,0-1.3,0.7-1.3,1.6s0.6,1.6,1.3,1.6c0.7,0,1.3-0.7,1.3-1.6
			S305.8,404.9,305.1,404.9L305.1,404.9z"/>
	</g>
	<g id="XMLID_8838_">
		<path id="XMLID_8839_" d="M308.4,414.6h-6.7c-0.2,0-0.4-0.2-0.5-0.4l-0.1-2.2c-0.1-0.8,0.6-1.7,1.4-2c1.7-0.6,3.5-0.6,5.2,0
			c0.8,0.3,1.4,1.2,1.4,2l-0.1,2.2C308.9,414.4,308.7,414.6,308.4,414.6L308.4,414.6z M302.1,413.6h5.9l0.1-1.7
			c0-0.4-0.3-0.9-0.8-1.1c-1.5-0.5-3.1-0.5-4.6,0c-0.4,0.2-0.8,0.7-0.8,1.1L302.1,413.6L302.1,413.6z"/>
	</g>
</g>
</svg>
