<?xml version="1.0" encoding="utf-8"?>
<!-- Generator: Adobe Illustrator 20.0.0, SVG Export Plug-In . SVG Version: 6.00 Build 0)  -->
<svg version="1.1" id="Layer_1" xmlns="http://www.w3.org/2000/svg" xmlns:xlink="http://www.w3.org/1999/xlink" x="0px" y="0px"
	 viewBox="0 0 21.312 19.75" style="enable-background:new 0 0 21.312 19.75;" xml:space="preserve">
<path d="M15.532,13.156c-0.508-0.116-1.034-0.236-1.416-0.396c-0.137-0.057-0.238-0.144-0.311-0.274
	c1.018-1.063,1.554-2.735,1.554-4.857c0-3.276-2.039-5.94-4.546-5.94c-2.507,0-4.547,2.664-4.547,5.94
	c0,2.132,0.541,3.809,1.565,4.871c-0.075,0.122-0.173,0.205-0.306,0.261c-0.373,0.156-0.871,0.27-1.417,0.396
	c-1.906,0.437-4.785,1.096-4.785,4.937c0,0.327,0.264,0.592,0.588,0.592c0.325,0,0.588-0.265,0.588-0.592
	c0-2.896,1.967-3.347,3.882-3.786c0.58-0.133,1.128-0.258,1.596-0.454c0.328-0.138,0.594-0.356,0.794-0.649
	c1.237,0.694,2.864,0.69,4.098-0.008c0.2,0.297,0.47,0.521,0.795,0.657c0.471,0.197,1.022,0.323,1.606,0.457
	c1.904,0.436,3.873,0.885,3.873,3.782c0,0.327,0.264,0.592,0.588,0.592c0.324,0,0.588-0.265,0.588-0.592
	C20.321,14.252,17.439,13.592,15.532,13.156z M10.813,2.872c1.858,0,3.369,2.134,3.369,4.756c0,3.122-1.228,4.913-3.369,4.913
	c-2.141,0-3.37-1.791-3.37-4.913C7.443,5.005,8.955,2.872,10.813,2.872z"/>
</svg>
