<?xml version="1.0" encoding="utf-8"?>
<!-- Generator: Adobe Illustrator 21.0.2, SVG Export Plug-In . SVG Version: 6.00 Build 0)  -->
<svg version="1.1" id="Layer_1" xmlns="http://www.w3.org/2000/svg" xmlns:xlink="http://www.w3.org/1999/xlink" x="0px" y="0px"
	 viewBox="0 0 51 46" style="enable-background:new 0 0 51 46;" xml:space="preserve">
<path d="M37.905,22.107c-0.084,0.059-0.19,0.097-0.304,0.097c-0.147,0-0.31-0.064-0.461-0.235c-1.255-1.419-2.364-1.985-3.565-1.819
	c-0.089,0.441-0.256,0.845-0.435,1.231c-0.295,0.637-0.574,1.237-0.465,2.038c0.035,0.259,0.232,0.677,0.441,1.12
	c0.522,1.11,1.172,2.492,0.467,3.506c-0.27,0.388-0.722,0.61-1.271,0.625c-0.735,0.005-1.542-0.337-1.956-0.867
	c-0.671-0.861-0.733-2.356-0.793-3.803c-0.038-0.922-0.088-1.856-0.295-2.545c-0.524,0.637-1.286,1.664-1.35,1.853
	c-1.13,3.589,2.771,15.769,2.811,15.891c0.042,0.132-0.03,0.272-0.161,0.315c-0.025,0.008-0.051,0.012-0.077,0.012
	c-0.105,0-0.204-0.067-0.238-0.173c-0.164-0.507-3.99-12.456-2.812-16.195c0.116-0.368,1.296-1.856,1.588-2.197
	c0.015-0.017,0.037-0.016,0.055-0.028c-0.506-1.183-0.302-2.792-0.098-4.354c0.189-1.445,0.368-2.811-0.111-3.438
	c-0.752-0.987-2.818-1.831-5.024-2.05c-1.545-0.155-4.451-0.131-6.579,1.742c-3.87,3.407-3.333,9.744-1.458,13.008
	c1.312,2.282,1.762,6.213,1.004,8.762c-0.032,0.108-0.132,0.179-0.24,0.179c-0.023,0-0.047-0.003-0.071-0.011
	c-0.132-0.039-0.208-0.178-0.168-0.311c0.712-2.395,0.273-6.228-0.958-8.369c-1.96-3.413-2.508-10.05,1.562-13.633
	c2.269-1.998,5.332-2.031,6.958-1.864c2.371,0.235,4.53,1.137,5.373,2.244c0.604,0.792,0.412,2.256,0.209,3.806
	c-0.202,1.546-0.411,3.144,0.103,4.201c0.38,0.782,0.427,1.925,0.478,3.135c0.057,1.367,0.115,2.781,0.688,3.516
	c0.318,0.406,0.971,0.712,1.548,0.675c0.274-0.008,0.648-0.085,0.875-0.41c0.54-0.777-0.042-2.014-0.509-3.008
	c-0.235-0.499-0.438-0.932-0.483-1.267c-0.128-0.944,0.194-1.641,0.507-2.314c0.199-0.429,0.386-0.834,0.443-1.281
	c0.003-0.02,0.022-0.031,0.029-0.049c0.012-0.034,0.025-0.06,0.051-0.086c0.022-0.021,0.043-0.033,0.07-0.045
	c0.02-0.009,0.031-0.03,0.053-0.034c1.886-0.346,3.29,0.954,4.182,1.962c0.05,0.057,0.083,0.068,0.088,0.069
	c0.01-0.001,0.064-0.03,0.13-0.147c0.162-0.291,0.22-0.823,0.05-1.152c-1.047-2.024-5.155-6.148-7.197-6.488
	c-0.136-0.023-0.228-0.152-0.206-0.288c0.022-0.137,0.154-0.227,0.288-0.206c2.344,0.391,6.562,4.824,7.559,6.752
	C38.538,20.778,38.37,21.789,37.905,22.107z M25.96,14.641c-0.415,0-0.751,0.336-0.751,0.751s0.336,0.751,0.751,0.751
	s0.751-0.336,0.751-0.751S26.375,14.641,25.96,14.641z"/>
</svg>
