<?xml version="1.0" encoding="utf-8"?>
<!-- Generator: Adobe Illustrator 20.0.0, SVG Export Plug-In . SVG Version: 6.00 Build 0)  -->
<svg version="1.1" id="Layer_1" xmlns="http://www.w3.org/2000/svg" xmlns:xlink="http://www.w3.org/1999/xlink" x="0px" y="0px"
	 viewBox="0 0 55 17" style="enable-background:new 0 0 55 17;" xml:space="preserve">
<g id="XMLID_343_">
	<path id="XMLID_370_" d="M16.401,7.387c0.098-0.144,0.146-0.322,0.146-0.537c0-0.241-0.064-0.436-0.193-0.584
		c-0.128-0.147-0.31-0.241-0.544-0.28c-0.117-0.017-0.469-0.024-1.055-0.024h-1.128v1.816h1.069c0.693,0,1.126-0.029,1.299-0.088
		S16.304,7.531,16.401,7.387z"/>
	<path id="XMLID_386_" d="M0,0v17h55V0H0z M10.654,8.51c0,0.859-0.039,1.467-0.117,1.821s-0.222,0.654-0.432,0.898
		s-0.491,0.438-0.842,0.583c-0.352,0.146-0.811,0.218-1.377,0.218c-0.684,0-1.202-0.079-1.555-0.237
		c-0.353-0.157-0.632-0.362-0.837-0.615c-0.205-0.252-0.34-0.517-0.405-0.793C4.994,9.975,4.946,9.37,4.946,8.569V4.751h1.445v3.877
		c0,0.615,0.018,1.014,0.054,1.196c0.062,0.293,0.209,0.528,0.442,0.706c0.233,0.177,0.551,0.266,0.955,0.266
		c0.41,0,0.719-0.084,0.928-0.252c0.208-0.167,0.333-0.373,0.376-0.617s0.063-0.649,0.063-1.216v-3.96h1.445V8.51z M16.89,11.909
		l-1.045-1.558c-0.371-0.557-0.625-0.907-0.762-1.052c-0.137-0.146-0.282-0.244-0.435-0.299c-0.153-0.053-0.396-0.08-0.728-0.08
		h-0.293v2.988h-1.445V4.751h3.042c0.765,0,1.321,0.064,1.667,0.193c0.347,0.128,0.624,0.356,0.833,0.686s0.312,0.705,0.312,1.128
		c0,0.537-0.158,0.98-0.474,1.331c-0.316,0.35-0.788,0.57-1.416,0.661c0.312,0.183,0.57,0.383,0.774,0.601s0.478,0.605,0.823,1.162
		l0.874,1.396H16.89z M25.845,10.922c-0.303,0.293-0.741,0.551-1.316,0.773c-0.575,0.224-1.156,0.335-1.746,0.335
		c-0.749,0-1.401-0.157-1.958-0.472c-0.557-0.313-0.975-0.763-1.255-1.348c-0.28-0.584-0.42-1.22-0.42-1.906
		c0-0.745,0.156-1.408,0.469-1.987s0.77-1.023,1.372-1.333c0.459-0.237,1.03-0.356,1.714-0.356c0.889,0,1.583,0.187,2.083,0.56
		c0.5,0.372,0.821,0.888,0.964,1.545l-1.436,0.269c-0.101-0.352-0.291-0.629-0.569-0.833c-0.278-0.203-0.626-0.305-1.042-0.305
		c-0.631,0-1.134,0.2-1.506,0.601S20.64,7.459,20.64,8.247c0,0.85,0.189,1.486,0.566,1.912c0.377,0.424,0.873,0.637,1.484,0.637
		c0.303,0,0.606-0.06,0.911-0.178c0.304-0.119,0.565-0.264,0.784-0.433V9.277h-1.655V8.071h3.115V10.922z M32.622,11.909h-5.444
		V4.751h5.308v1.211h-3.862v1.587h3.594v1.206h-3.594v1.948h3.999V11.909z M39.541,11.909h-1.45l-2.886-4.668v4.668h-1.343V4.751
		h1.406l2.93,4.78v-4.78h1.343V11.909z M46.245,5.962h-2.119v5.947h-1.445V5.962h-2.124V4.751h5.688V5.962z M48.779,11.909h-1.372
		v-1.372h1.372V11.909z M48.833,6.43l-0.352,3.633h-0.776L47.349,6.43v-1.68h1.484V6.43z"/>
</g>
</svg>
