<?xml version="1.0" encoding="utf-8"?>
<!-- Generator: Adobe Illustrator 21.0.2, SVG Export Plug-In . SVG Version: 6.00 Build 0)  -->
<svg version="1.1" id="Layer_1" xmlns="http://www.w3.org/2000/svg" xmlns:xlink="http://www.w3.org/1999/xlink" x="0px" y="0px"
	 viewBox="0 0 51 46" style="enable-background:new 0 0 51 46;" xml:space="preserve">
<path d="M15.657,17.128h-2.704c-0.138,0-0.25-0.112-0.25-0.25s0.112-0.25,0.25-0.25h2.518c-0.739-2.31-0.244-4.664,0.697-6.049
	c0.052-0.076,0.145-0.116,0.235-0.107c2.854,0.316,6.365,3.628,7.062,8.424c0.02,0.137-0.075,0.264-0.211,0.283
	c-0.139,0.018-0.264-0.074-0.284-0.211c-0.716-4.925-4.225-7.63-6.472-7.979c-1.322,2.101-1.563,6.338,2.081,9.112
	c0.11,0.084,0.131,0.241,0.047,0.351c-0.049,0.064-0.124,0.099-0.199,0.099c-0.053,0-0.106-0.017-0.151-0.051
	C16.969,19.505,16.139,18.333,15.657,17.128z M39.194,28.919c-0.162-0.163-0.329-0.331-0.494-0.505
	c-0.5-0.524-0.986-1.008-1.448-1.466c-1.181-1.173-2.202-2.188-2.853-3.32c-0.396-1.64-1.72-3.533-4.174-3.577
	c-0.895-0.722-2.963-2.857-1.935-4.199c1.484-1.938,1.926-2.906,1.576-3.454c-0.374-0.587-1.525-0.462-3.385-0.048
	c-1.485,0.33-1.884,0.948-2.437,1.804c-0.106,0.164-0.22,0.341-0.35,0.529c-0.079,0.114-0.05,0.27,0.063,0.349
	c0.112,0.075,0.269,0.049,0.348-0.063c0.134-0.194,0.25-0.375,0.359-0.543c0.542-0.84,0.84-1.302,2.125-1.587
	c0.71-0.158,2.598-0.577,2.855-0.172c0.136,0.213-0.023,0.886-1.551,2.881c-1.261,1.646,0.816,3.957,2.09,4.95
	c0.044,0.034,0.098,0.053,0.154,0.053c2.235,0,3.436,1.739,3.783,3.228c0.006,0.023,0.015,0.046,0.026,0.066
	c0.684,1.205,1.735,2.249,2.953,3.459c0.458,0.455,0.941,0.936,1.438,1.457c0.168,0.176,0.337,0.346,0.502,0.512
	c1.01,1.016,1.61,1.678,1.224,2.445c-1.386,2.753-2.1,3.73-3.343,3.73c-0.247,0-0.62,0.013-1.05,0.027
	c-1.105,0.038-2.956,0.102-3.347-0.075c-0.056-0.023-0.119-0.027-0.179-0.01c-4.169,1.354-11.788,0.459-13.477-0.522
	c-0.076-0.045-0.17-0.045-0.247-0.003c-0.554,0.308-3.343,2.526-3.462,2.621c-0.108,0.086-0.126,0.243-0.04,0.351
	c0.05,0.062,0.123,0.095,0.196,0.095c0.055,0,0.11-0.018,0.156-0.055c0.743-0.591,2.67-2.105,3.28-2.505
	c2.003,1.007,9.389,1.867,13.667,0.521c0.542,0.167,1.895,0.136,3.471,0.083c0.423-0.015,0.791-0.027,1.033-0.027
	c1.654,0,2.535-1.514,3.79-4.006C41.078,30.814,40.163,29.894,39.194,28.919z M16.654,24.502c-0.139-0.025-0.267,0.062-0.293,0.197
	c-0.041,0.204-0.963,5.033,1.038,6.897c0.048,0.045,0.109,0.067,0.17,0.067c0.067,0,0.134-0.026,0.183-0.079
	c0.094-0.102,0.088-0.26-0.013-0.354c-1.797-1.676-0.897-6.389-0.888-6.437C16.878,24.66,16.789,24.529,16.654,24.502z
	 M26.973,25.471c0-0.414-0.336-0.75-0.75-0.75c-0.414,0-0.75,0.336-0.75,0.75c0,0.414,0.336,0.75,0.75,0.75
	C26.638,26.221,26.973,25.886,26.973,25.471z"/>
</svg>
