<?xml version="1.0" encoding="utf-8"?>
<!-- Generator: Adobe Illustrator 21.0.2, SVG Export Plug-In . SVG Version: 6.00 Build 0)  -->
<svg version="1.1" id="Layer_1" xmlns="http://www.w3.org/2000/svg" xmlns:xlink="http://www.w3.org/1999/xlink" x="0px" y="0px"
	 viewBox="0 0 51 46" style="enable-background:new 0 0 51 46;" xml:space="preserve">
<path d="M39.276,15.451c-0.012-0.093-0.074-0.171-0.162-0.203c-0.087-0.034-0.186-0.014-0.254,0.049
	c-0.013,0.013-1.341,1.209-2.886,1.811c-1.123,0.438-2.672,0.414-3.364,0.376c0.297-0.665,0.971-2.022,1.837-2.816
	c1.609-1.474,4.336-2.599,4.363-2.609c0.096-0.039,0.158-0.135,0.155-0.239c-0.003-0.104-0.071-0.195-0.17-0.229
	c-0.162-0.056-4.004-1.327-6.169,0.318c-1.568,1.194-1.231,3.713-0.908,5.064c-0.631-0.515-1.387-0.86-2.219-0.972
	c-1.182-0.163-2.357,0.146-3.32,0.881c-2.663,2.429-15.871,14.645-14.402,16.573c0.134,0.177,0.384,0.258,0.73,0.258
	c3.435,0,16.308-7.983,19.08-9.727c0.006-0.004,0.012-0.009,0.018-0.013c1.633-1.244,2.151-3.398,1.419-5.217
	c0.828,0.649,2.074,1.417,3.377,1.417c0.34,0,0.684-0.053,1.024-0.174C39.724,19.18,39.296,15.603,39.276,15.451z M32.93,12.307
	c0.734-0.559,1.717-0.733,2.661-0.733c0.924,0,1.81,0.168,2.385,0.307c-0.932,0.433-2.667,1.319-3.866,2.418
	c-0.847,0.777-1.504,2.006-1.854,2.754C31.953,15.864,31.529,13.373,32.93,12.307z M31.312,23.567
	c-0.969,0.609-1.946,1.212-2.921,1.803l-2.65-3.3c-0.086-0.108-0.244-0.125-0.352-0.039c-0.107,0.087-0.125,0.244-0.038,0.352
	l2.609,3.25c-7.711,4.654-15.091,8.427-15.786,7.519c-0.407-0.535,1.377-2.881,4.24-5.978l1.398,1.836
	c0.049,0.064,0.124,0.099,0.199,0.099c0.053,0,0.106-0.017,0.151-0.051c0.11-0.084,0.131-0.241,0.047-0.351l-1.45-1.904
	c2.666-2.855,6.176-6.287,9.739-9.538c0.693-0.528,1.525-0.807,2.388-0.807c0.181,0,0.363,0.013,0.546,0.037
	c1.053,0.143,1.984,0.684,2.623,1.522C33.377,19.755,33.043,22.242,31.312,23.567z M37.257,19.528
	c-1.646,0.589-3.502-0.774-4.364-1.53c0.817,0.023,2.193-0.008,3.264-0.424c1.134-0.442,2.134-1.167,2.657-1.584
	C38.844,16.935,38.735,19.001,37.257,19.528z"/>
</svg>
