<?xml version="1.0" encoding="utf-8"?>
<!-- Generator: Adobe Illustrator 20.0.0, SVG Export Plug-In . SVG Version: 6.00 Build 0)  -->
<svg version="1.1" id="Layer_1" xmlns="http://www.w3.org/2000/svg" xmlns:xlink="http://www.w3.org/1999/xlink" x="0px" y="0px"
	 viewBox="0 0 38.119 38.119" style="enable-background:new 0 0 38.119 38.119;" xml:space="preserve">
<g id="XMLID_287_">
	<path id="XMLID_310_" d="M19.059,11.21c-4.329,0-7.85,3.521-7.85,7.85c0,4.329,3.521,7.85,7.85,7.85s7.85-3.521,7.85-7.85
		C26.909,14.731,23.388,11.21,19.059,11.21z M19.059,25.909c-3.777,0-6.85-3.073-6.85-6.85c0-3.777,3.073-6.85,6.85-6.85
		s6.85,3.073,6.85,6.85C25.909,22.837,22.837,25.909,19.059,25.909z"/>
	<path id="XMLID_293_" d="M19.059,6.104c-7.144,0-12.956,5.812-12.956,12.956c0,7.144,5.812,12.957,12.956,12.957
		s12.956-5.813,12.956-12.957C32.015,11.916,26.203,6.104,19.059,6.104z M19.059,31.016c-6.593,0-11.956-5.364-11.956-11.957
		c0-6.592,5.363-11.956,11.956-11.956s11.956,5.363,11.956,11.956C31.015,25.652,25.652,31.016,19.059,31.016z"/>
	<path id="XMLID_288_" d="M19.059,0.962C9.08,0.962,0.962,9.08,0.962,19.059c0,9.979,8.119,18.098,18.098,18.098
		c9.979,0,18.098-8.119,18.098-18.098C37.158,9.08,29.039,0.962,19.059,0.962z M19.059,36.158c-9.428,0-17.098-7.67-17.098-17.098
		S9.632,1.962,19.059,1.962s17.098,7.67,17.098,17.098S28.487,36.158,19.059,36.158z"/>
</g>
</svg>
