<?xml version="1.0" encoding="UTF-8" standalone="no"?><!DOCTYPE svg PUBLIC "-//W3C//DTD SVG 1.1//EN" "http://www.w3.org/Graphics/SVG/1.1/DTD/svg11.dtd"><svg width="100%" height="100%" viewBox="0 0 671 457" version="1.1" xmlns="http://www.w3.org/2000/svg" xmlns:xlink="http://www.w3.org/1999/xlink" xml:space="preserve" xmlns:serif="http://www.serif.com/" style="fill-rule:evenodd;clip-rule:evenodd;stroke-linejoin:round;stroke-miterlimit:1.41421;"><path d="M92.951,0l-13.491,65.84c15.254,-23.044 33.199,-45.034 53.682,-65.84l-40.191,0Z" style="fill:#231f20;fill-rule:nonzero;"/><path d="M112.014,137.682c-15.825,35.288 -23.862,71.047 -23.862,106.248c0,27.068 4.82,52.888 14.33,76.771c8.22,20.655 19.839,39.503 34.599,56.203l65.787,0c-9.23,-5.897 -17.741,-12.74 -25.465,-20.473c-37.181,-37.171 -54.825,-87.854 -49.639,-142.666c2.562,-27.069 10.532,-54.157 23.69,-80.536c13.587,-27.261 32.36,-52.93 55.782,-76.372c22.322,-22.324 47.605,-40.484 75.134,-53.931c2.055,-1.012 4.099,-1.98 6.165,-2.926l-63.592,0c-14.427,10.574 -28.219,22.387 -41.236,35.416c-31.113,31.112 -55.243,65.516 -71.693,102.266" style="fill:#231f20;fill-rule:nonzero;"/><path d="M196.153,87.593l32.168,0c1.689,-1.765 3.411,-3.551 5.176,-5.315c34.124,-34.103 76.533,-56.135 120.063,-62.472l4.061,-19.806l-35.08,0c-37.685,11.887 -74.757,33.952 -106.473,65.669c-7.1,7.098 -13.728,14.415 -19.915,21.924" style="fill:#231f20;fill-rule:nonzero;"/><path d="M396.609,244.651c22.348,-22.354 34.654,-48.056 34.654,-72.414c0,-18.74 -7.096,-35.716 -20.514,-49.153c-6.403,-6.39 -13.972,-11.22 -22.472,-14.406l-4.306,21.065c4.248,2.323 8.124,5.186 11.52,8.585c11.765,11.77 17.445,27.929 16.043,45.53c-1.397,17.47 -9.799,34.749 -23.675,48.626c-8.424,8.424 -18.424,15.114 -28.965,19.655l-4.037,19.699c14.773,-5.509 29.204,-14.631 41.752,-27.187" style="fill:#231f20;fill-rule:nonzero;"/><path d="M443.742,172.238c0,27.671 -13.597,56.535 -38.308,81.235c-15.527,15.524 -34.048,26.713 -53.478,32.545l-4.744,23.149c25.022,-6.647 49.71,-21.192 70.627,-42.128c54.307,-54.298 62.53,-127.98 19.104,-171.421c-11.312,-11.339 -25.397,-19.173 -41.243,-23.173l-4.918,23.968c10.952,3.787 20.751,9.834 28.779,17.86c15.827,15.814 24.181,35.846 24.181,57.964" style="fill:#231f20;fill-rule:nonzero;"/><path d="M399.096,182.856c1.111,-13.887 -3.299,-26.562 -12.423,-35.695c-1.655,-1.646 -3.447,-3.131 -5.356,-4.444l-19.25,93.919c6.104,-3.506 11.855,-7.864 16.966,-12.984c11.785,-11.782 18.903,-26.271 20.063,-40.796" style="fill:#231f20;fill-rule:nonzero;"/><path d="M37.483,349.211c-3.938,-9.834 -7.23,-19.882 -9.877,-30.167l-11.855,57.86l34.857,0c-4.939,-8.922 -9.318,-18.161 -13.125,-27.693" style="fill:#231f20;fill-rule:nonzero;"/><path d="M75.673,243.941c0,-36.975 8.404,-74.467 24.949,-111.378c17.084,-38.118 42.075,-73.759 74.264,-105.958c9.488,-9.5 19.366,-18.365 29.584,-26.605l-53.574,0c-2.154,2.076 -4.284,4.163 -6.412,6.283c-29.736,29.735 -54.072,62.052 -72.566,96.35l-37.814,184.673c2.669,19.873 7.66,39.033 14.964,57.277c4.476,11.212 9.802,21.99 15.935,32.321l55.791,0c-12.458,-15.665 -22.475,-32.942 -29.909,-51.599c-10.091,-25.324 -15.213,-52.715 -15.213,-81.364" style="fill:#231f20;fill-rule:nonzero;"/><path d="M110.186,437.21c-1.935,9.512 -7.896,15.453 -14.469,15.453c-4.078,0 -7.864,-1.787 -7.908,-6.717c-0.021,-1.235 0.194,-2.625 0.474,-3.762l4.981,-24.12l-4.551,0l-4.916,23.992c-0.334,1.708 -0.549,3.225 -0.549,4.387c0.075,7.163 4.884,10.071 11.393,10.071c5.583,0 10.467,-3.487 13.264,-7.885l0.14,0l-1.248,6.787l4.207,0l7.681,-37.352l-4.551,0l-3.948,19.146Z" style="fill:#231f20;fill-rule:nonzero;"/><path d="M14.61,407.907l29.704,0l0.893,-4.198l-34.686,0l-10.521,51.707l35.352,0l0.892,-4.174l-30.425,0l4.164,-20.441l27.671,0l0.902,-4.216l-27.755,0l3.809,-18.678Z" style="fill:#231f20;fill-rule:nonzero;"/><path d="M56.847,452.663c-6.886,0 -10.136,-4.779 -10.2,-11.146c-0.085,-9.136 5.23,-20.709 15.74,-20.709c6.658,0 10.478,4.282 10.542,10.789c0.098,9.232 -5.604,21.066 -16.082,21.066m22.106,-48.954l-4.271,21.381l-0.148,0c-1.723,-5.887 -6.371,-8.122 -12.233,-8.122c-12.555,0 -20.312,12.812 -20.204,24.268c0.086,9.136 4.755,15.278 14.34,15.278c6.584,0 10.393,-2.908 13.534,-7.843l0.161,0l-1.601,6.745l4.41,0l10.586,-51.707l-4.574,0Z" style="fill:#231f20;fill-rule:nonzero;"/><path d="M180.759,224.975c0,1.784 0.043,3.561 0.107,5.335l28.241,0c-0.462,-4.281 -0.699,-8.627 -0.699,-13.038c0,-25.69 7.8,-51.962 22.097,-75.867l-26.702,0c-15.061,26.894 -23.044,55.404 -23.044,83.57" style="fill:#231f20;fill-rule:nonzero;"/><path d="M307.135,141.406l-23.012,-0.001c-18.75,20.547 -29.413,45.442 -29.413,69.078c0,6.95 0.883,13.566 2.605,19.827l22.204,0c-3.787,-7.682 -5.799,-16.33 -5.799,-25.411c0,-19.901 9.146,-40.009 25.755,-56.632c2.454,-2.451 5.002,-4.742 7.66,-6.862" style="fill:#231f20;fill-rule:nonzero;"/><path d="M220.877,217.272c0,4.442 0.27,8.79 0.764,13.038l22.849,0c-1.485,-6.367 -2.258,-13.016 -2.258,-19.827c0,-14.092 3.153,-28.325 9.359,-42.291c4.153,-9.391 9.586,-18.33 16.181,-26.787l-22.538,0c-15.707,23.646 -24.357,50.123 -24.357,75.867" style="fill:#231f20;fill-rule:nonzero;"/><path d="M426.658,275.873c-24.104,24.108 -53.001,40.374 -82.203,46.797l-5.098,24.927c37.757,-7.433 75.267,-27.575 104.601,-56.911c33.265,-33.252 54.778,-73.617 60.613,-113.66c1.055,-7.25 1.563,-14.383 1.569,-21.365c0,-1.646 -0.029,-3.305 -0.084,-4.937c-1.173,-32.535 -13.923,-61.667 -37.598,-85.347c-17.666,-17.664 -40.036,-28.476 -64.592,-32.791l-5.651,27.618c18.227,4.517 34.451,13.489 47.577,26.593c48.43,48.455 40.209,129.744 -19.134,189.076" style="fill:#231f20;fill-rule:nonzero;"/><path d="M477.279,56.545c16.812,16.825 28.687,36.299 35.278,57.901c0.188,0.623 0.375,1.249 0.557,1.871l5.881,-28.724l16.646,0c-7.875,-19.988 -19.818,-38.062 -35.563,-53.834c-15.258,-15.255 -33.293,-26.465 -53.085,-33.758l-36.445,0l-4.166,20.333c5.91,1.042 11.694,2.441 17.374,4.185c20.667,6.421 38.689,17.191 53.523,32.026" style="fill:#231f20;fill-rule:nonzero;"/><path d="M548.968,87.593l42.461,0c-8.065,-32.855 -24.008,-62.677 -47.163,-87.593l-68.05,0c11.98,6.842 22.909,15.169 32.682,24.938c18.159,18.181 31.626,39.224 40.07,62.655" style="fill:#231f20;fill-rule:nonzero;"/><path d="M345.542,59.039l5.347,-26.141c-36.47,6.325 -73.736,24.819 -104.979,54.695l34.04,0c20.172,-14.577 42.634,-24.4 65.592,-28.554" style="fill:#231f20;fill-rule:nonzero;"/><path d="M342.829,72.296c-13.618,3.012 -27.033,8.175 -39.759,15.297l36.641,0l3.118,-15.297Z" style="fill:#231f20;fill-rule:nonzero;"/><path d="M140.18,214.937c-4.82,51.037 11.533,98.17 46.044,132.692c12.286,12.273 26.747,22.096 43.055,29.275l50.919,0l3.218,-15.452c-29.328,-4.519 -55.149,-17.382 -75.652,-37.879c-10.544,-10.531 -19.129,-22.731 -25.562,-36.093l-29.639,0l11.435,-57.18l4.39,0c-0.064,-1.774 -0.109,-3.541 -0.109,-5.336c0,-28.175 7.381,-56.598 21.368,-83.559l-7.317,0l9.962,-49.014c-29.885,37.934 -48.131,80.472 -52.112,122.546" style="fill:#231f20;fill-rule:nonzero;"/><path d="M298.786,287.566l0.033,-0.086l-0.323,0l-48.142,0c12.565,11.619 27.347,19.474 43.613,23.236l4.819,-23.15Z" style="fill:#231f20;fill-rule:nonzero;"/><path d="M142.008,420.807c5.368,0 9.382,3.343 9.08,8.896l4.562,0c0.193,-8.682 -5.982,-12.736 -14.094,-12.736c-12.823,0 -20.183,12.479 -20.074,24.118c0.086,9.209 5.294,15.428 14.566,15.428c9.037,0 14.653,-4.65 17.321,-13.192l-4.55,0c-1.905,5.424 -6.209,9.341 -12.233,9.341c-7.089,0 -10.457,-4.926 -10.521,-11.577c-0.097,-9.725 5.014,-20.278 15.943,-20.278" style="fill:#231f20;fill-rule:nonzero;"/><path d="M291.419,322.939c-19.904,-4.519 -37.849,-14.48 -52.78,-29.403c-1.958,-1.957 -3.799,-3.968 -5.573,-6.056l-36.836,0c5.442,10.004 12.264,19.171 20.355,27.272c18.719,18.719 42.407,30.414 69.368,34.435l5.466,-26.248Z" style="fill:#231f20;fill-rule:nonzero;"/><path d="M356.052,455.416l4.585,0l7.693,-37.353l-4.576,0l-7.702,37.353Z" style="fill:#231f20;fill-rule:nonzero;"/><path d="M442.041,406.764l-4.569,0l-2.279,11.299l-6.75,0l-0.833,3.82l6.75,0l-4.902,24.777c-0.347,1.654 -0.493,3.055 -0.493,3.829c0.04,4.496 3.568,5.377 6.944,5.377c1.528,0 3.124,-0.148 4.653,-0.281l0.75,-3.999c-1.819,0.301 -3.542,0.429 -5.347,0.429c-1.743,0 -2.396,-1.29 -2.396,-2.603c-0.021,-1.139 0.082,-1.796 0.451,-3.563l4.903,-23.966l7.598,0l0.687,-3.82l-7.466,0l2.299,-11.299Z" style="fill:#231f20;fill-rule:nonzero;"/><path d="M371.288,403.709l-4.562,0l-1.527,7.317l4.569,0l1.52,-7.317Z" style="fill:#231f20;fill-rule:nonzero;"/><path d="M459.7,376.904l8.544,-41.614c-18.453,16.696 -39.231,30.713 -61.273,41.614l52.729,0Z" style="fill:#231f20;fill-rule:nonzero;"/><path d="M394.657,417.613c-0.798,-0.066 -1.659,-0.066 -2.459,-0.066c-6.666,-0.067 -10.625,3.754 -13.457,9.122l-0.14,0l1.812,-8.606l-4.132,0l-7.708,37.353l4.578,0l4.034,-19.538c1.436,-7.035 5.723,-13.619 13.888,-13.769c0.882,0 1.73,0.064 2.605,0.064l0.979,-4.56Z" style="fill:#231f20;fill-rule:nonzero;"/><path d="M410.907,420.797c5.146,0 9.183,2.472 8.834,8.199l4.584,0c0.075,-8.63 -5.625,-12.044 -13.46,-12.044c-5.998,0 -13.798,2.983 -13.729,10.214c0.055,6.174 5.104,8.414 10.106,10.382c4.936,1.872 10.091,3.398 10.145,8.26c0.042,4.767 -5.313,6.875 -9.361,6.875c-5.271,0 -10.674,-2.194 -10.625,-9.404l-4.598,0c-0.333,9.318 7.006,13.235 14.187,13.235c7.086,0 15.021,-3.055 14.96,-11.449c-0.077,-6.884 -7.125,-8.984 -12.265,-10.995c-4.228,-1.689 -7.931,-3.428 -7.971,-6.904c-0.057,-5.123 5.236,-6.369 9.193,-6.369" style="fill:#231f20;fill-rule:nonzero;"/><path d="M546.628,155.66l-28.029,0c0,7.605 -0.534,15.341 -1.681,23.172c-3.237,22.227 -10.978,44.507 -22.611,65.734l27.973,0c12.181,-24.068 20.062,-49.09 23.104,-74.006c0.618,-5.004 1.014,-9.962 1.244,-14.9" style="fill:#231f20;fill-rule:nonzero;"/><path d="M619.739,0l-58.841,0c21.273,25.475 35.912,55.21 43.378,87.593l45.5,0c-2.792,-19.451 -7.764,-38.235 -14.82,-56.092c-4.326,-10.941 -9.404,-21.441 -15.217,-31.501" style="fill:#231f20;fill-rule:nonzero;"/><path d="M634.055,0c4.666,8.67 8.84,17.642 12.498,26.907c4.433,11.198 8.071,22.709 10.884,34.522l12.569,-61.429l-35.951,0Z" style="fill:#231f20;fill-rule:nonzero;"/><path d="M596.996,155.66l-37.89,0c-0.214,5.443 -0.658,10.898 -1.325,16.405c-2.994,24.4 -10.349,48.875 -21.626,72.501l38.495,0c11.422,-26.251 18.755,-53.308 21.597,-80.323c0.32,-2.871 0.563,-5.711 0.749,-8.583" style="fill:#231f20;fill-rule:nonzero;"/><path d="M608.664,165.547c-2.8,26.574 -9.75,53.169 -20.466,79.03l28.771,0l17.919,-88.916l-25.385,0c-0.214,3.292 -0.499,6.594 -0.839,9.886" style="fill:#231f20;fill-rule:nonzero;"/><path d="M336.645,360.742l-3.301,16.162l41.924,0c34.44,-12.428 66.947,-32.772 93.502,-59.345c1.335,-1.312 2.634,-2.669 3.925,-4.002l10.403,-50.671c-8.693,12.846 -18.826,25.143 -30.307,36.623c-32.37,32.38 -74.231,54.157 -116.146,61.233" style="fill:#231f20;fill-rule:nonzero;"/><path d="M228.428,403.709l-1.504,7.317l4.55,0l1.528,-7.317l-4.574,0Z" style="fill:#231f20;fill-rule:nonzero;"/><path d="M217.8,455.416l4.529,0l7.702,-37.353l-4.581,0l-7.65,37.353Z" style="fill:#231f20;fill-rule:nonzero;"/><path d="M184.783,441.721c-1.376,6.527 -6.004,10.941 -13.297,10.941c-4.347,0 -8.327,-1.937 -8.38,-6.716c-0.077,-7.83 9.111,-8.089 14.684,-8.562c2.302,-0.175 6.778,-0.291 8.219,-2.088l0.15,0.151l-1.376,6.274Zm7.445,-16.427c-0.064,-6.575 -7.983,-8.327 -13.039,-8.327c-8.049,0 -14.525,3.763 -15.686,12.24l4.56,0c0.883,-6.242 5.864,-8.4 11.663,-8.4c3.506,0 7.897,0.943 7.939,5.389c0.043,4.882 -1.462,6.584 -4.389,7.291c-2.905,0.713 -7.121,0.349 -11.908,1.098c-6.64,1.142 -12.9,3.66 -12.836,11.555c0.076,7.318 5.251,10.373 12.049,10.373c5.23,0 10.329,-2.538 12.933,-6.875l0.106,0.139c-0.052,0.645 -0.106,1.379 -0.085,2.044c0.064,2.452 1.464,4.045 3.981,4.045c1.225,0 2.753,-0.128 3.776,-0.365l0.614,-3.638c-0.647,0.087 -1.152,0.152 -1.808,0.152c-1.098,0 -2.39,-0.194 -2.411,-1.516c-0.022,-2.251 0.754,-4.195 2.334,-12.597c0.71,-3.317 2.249,-8.973 2.207,-12.608" style="fill:#231f20;fill-rule:nonzero;"/><path d="M332.127,407.918l28.185,0l0.796,-4.209l-33.068,0l-10.575,51.707l4.915,0l5.058,-24.615l25.108,0l0.753,-4.216l-24.98,0l3.808,-18.667Z" style="fill:#231f20;fill-rule:nonzero;"/><path d="M248.299,452.663c-7.595,0 -11.264,-4.927 -11.339,-12.156c-0.086,-8.758 5.336,-19.699 15.32,-19.699c7.315,0 11.06,4.786 11.123,11.736c0.076,8.692 -5.121,20.119 -15.104,20.119m4.732,-35.695c-13.337,0 -20.761,11.725 -20.643,23.966c0.097,9.361 5.465,15.58 15.06,15.58c13.847,0 20.636,-12.311 20.506,-24.917c-0.084,-9.188 -6.228,-14.629 -14.923,-14.629" style="fill:#231f20;fill-rule:nonzero;"/><path d="M308.308,157.091c-14.264,14.264 -22.119,31.23 -22.119,47.809c0,9.575 2.689,18.234 7.812,25.4l13.361,0l17.299,-85.817c-5.809,3.356 -11.35,7.594 -16.353,12.608" style="fill:#231f20;fill-rule:nonzero;"/><path d="M294.408,416.968c-5.571,0 -10.478,3.462 -13.254,7.895l-0.107,0l1.205,-6.8l-4.195,0l-7.683,37.353l4.583,0l3.928,-19.171c1.936,-9.49 7.886,-15.438 14.491,-15.438c4.045,0 7.821,1.806 7.875,6.743c0,1.229 -0.216,2.594 -0.463,3.758l-5.002,24.108l4.572,0l4.917,-23.948c0.366,-1.766 0.526,-3.272 0.515,-4.457c-0.064,-7.141 -4.873,-10.043 -11.382,-10.043" style="fill:#231f20;fill-rule:nonzero;"/><path d="M212.399,406.764l-4.571,0l-2.261,11.299l-6.735,0l-0.859,3.831l6.755,0l-4.927,24.766c-0.322,1.676 -0.451,3.044 -0.451,3.839c0.044,4.507 3.528,5.367 6.926,5.367c1.519,0 3.121,-0.128 4.628,-0.3l0.775,-3.98c-1.807,0.277 -3.551,0.429 -5.369,0.429c-1.71,0 -2.389,-1.29 -2.399,-2.592c-0.021,-1.175 0.108,-1.816 0.485,-3.559l4.883,-23.97l7.628,0l0.668,-3.831l-7.468,0l2.292,-11.299Z" style="fill:#231f20;fill-rule:nonzero;"/></svg>