<?xml version="1.0" encoding="utf-8"?>
<!-- Generator: Adobe Illustrator 19.0.0, SVG Export Plug-In . SVG Version: 6.00 Build 0)  -->
<svg version="1.1" id="Layer_1" xmlns="http://www.w3.org/2000/svg" xmlns:xlink="http://www.w3.org/1999/xlink" x="0px" y="0px"
	 viewBox="0 0 44.2 36.2" enable-background="new 0 0 44.2 36.2" xml:space="preserve">
<path id="XMLID_1_" d="M44,1.9L14.4,35.8c-0.2,0.2-0.5,0.4-0.8,0.4h0c-0.3,0-0.6-0.1-0.9-0.4l-12.5-15c-0.4-0.5-0.3-1.2,0.1-1.6
	C0.6,19,0.9,18.9,1.2,19c0.3,0,0.6,0.2,0.8,0.4l11.6,14L42.3,0.4C42.5,0.2,42.7,0,43,0c0.3,0,0.6,0.1,0.8,0.3
	C44.3,0.7,44.4,1.4,44,1.9z"/>
</svg>
