<?xml version="1.0" encoding="utf-8"?>
<!-- Generator: Adobe Illustrator 20.0.0, SVG Export Plug-In . SVG Version: 6.00 Build 0)  -->
<svg version="1.1" id="Layer_1" xmlns="http://www.w3.org/2000/svg" xmlns:xlink="http://www.w3.org/1999/xlink" x="0px" y="0px"
	 viewBox="0 0 22.875 21.2" style="enable-background:new 0 0 22.875 21.2;" xml:space="preserve">
<style type="text/css">
	.st0{enable-background:new    ;}
	.st1{fill-rule:evenodd;clip-rule:evenodd;}
</style>
<g>
	<defs>
		<rect id="SVGID_1_" x="-260.93" y="-849.767" width="1281" height="1085"/>
	</defs>
	<clipPath id="SVGID_2_">
		<use xlink:href="#SVGID_1_"  style="overflow:visible;"/>
	</clipPath>
</g>
<g class="st0">
</g>
<g>
	<defs>
		<rect id="SVGID_3_" x="-260.93" y="-849.768" width="1281" height="1085"/>
	</defs>
	<clipPath id="SVGID_4_">
		<use xlink:href="#SVGID_3_"  style="overflow:visible;"/>
	</clipPath>
</g>
<path class="st1" d="M12.788,10.6l1.983-1.983c0.373-0.373,0.373-0.977,0-1.35s-0.977-0.373-1.35,0L11.438,9.25L9.455,7.267
	c-0.373-0.373-0.977-0.373-1.35,0s-0.373,0.977,0,1.35l1.983,1.983l-1.983,1.983c-0.373,0.373-0.373,0.977,0,1.35
	c0.187,0.186,0.431,0.28,0.675,0.28c0.245,0,0.488-0.094,0.675-0.28l1.983-1.983l1.983,1.983c0.187,0.186,0.431,0.28,0.675,0.28
	c0.244,0,0.488-0.094,0.675-0.28c0.373-0.373,0.373-0.977,0-1.35L12.788,10.6z"/>
<path class="st1" d="M11.438,0.233C5.72,0.233,1.071,4.884,1.071,10.6c0,5.717,4.65,10.368,10.367,10.368S21.805,16.316,21.805,10.6
	C21.805,4.884,17.155,0.233,11.438,0.233 M11.438,19.718c-5.027,0-9.117-4.09-9.117-9.118c0-5.027,4.09-9.117,9.117-9.117
	s9.117,4.09,9.117,9.117C20.555,15.627,16.465,19.718,11.438,19.718"/>
</svg>
