<?xml version="1.0" encoding="utf-8"?>
<!-- Generator: Adobe Illustrator 20.0.0, SVG Export Plug-In . SVG Version: 6.00 Build 0)  -->
<svg version="1.1" id="Layer_1" xmlns="http://www.w3.org/2000/svg" xmlns:xlink="http://www.w3.org/1999/xlink" x="0px" y="0px"
	 viewBox="0 0 22.875 21.2" style="enable-background:new 0 0 22.875 21.2;" xml:space="preserve">
<style type="text/css">
	.st0{fill:#231F20;}
</style>
<path class="st0" d="M9.392,13.476c-0.178,0-0.356-0.064-0.496-0.195l-1.547-1.437c-0.293-0.272-0.31-0.73-0.035-1.021
	c0.274-0.291,0.734-0.307,1.027-0.035l1.035,0.96l3.121-3.104c0.284-0.282,0.744-0.282,1.028,0c0.284,0.282,0.284,0.74,0,1.022
	l-3.618,3.598C9.764,13.405,9.578,13.476,9.392,13.476z M19.101,15.871c-0.398,0.636-0.865,1.24-1.42,1.792
	c-3.918,3.895-10.292,3.896-14.209,0c-3.918-3.895-3.917-10.233,0-14.127c3.917-3.895,10.291-3.895,14.209,0
	c0.703,0.699,1.274,1.478,1.724,2.305h-1.405c-0.334-0.515-0.723-1.003-1.176-1.454c-3.445-3.425-9.05-3.425-12.495,0
	c-3.445,3.426-3.446,8.999-0.001,12.424c3.445,3.425,9.051,3.425,12.496,0c0.298-0.297,0.561-0.614,0.808-0.94H19.101z
	 M19.75,13.907c0,0.393-0.318,0.71-0.711,0.71c-0.196,0-0.374-0.079-0.503-0.208c-0.129-0.129-0.208-0.306-0.208-0.503v-2.087H16.24
	c-0.196,0-0.374-0.079-0.503-0.208c-0.129-0.129-0.208-0.306-0.208-0.503c0-0.392,0.318-0.71,0.711-0.71l2.089,0V8.313
	c0-0.392,0.318-0.71,0.711-0.71c0.392,0,0.711,0.318,0.711,0.71l0,2.087h2.089c0.393,0,0.711,0.318,0.711,0.71
	c0,0.392-0.318,0.71-0.711,0.71H19.75V13.907z"/>
</svg>
