<?xml version="1.0" encoding="utf-8"?>
<!-- Generator: Adobe Illustrator 20.0.0, SVG Export Plug-In . SVG Version: 6.00 Build 0)  -->
<svg version="1.1" id="Layer_1" xmlns="http://www.w3.org/2000/svg" xmlns:xlink="http://www.w3.org/1999/xlink" x="0px" y="0px"
	 viewBox="0 0 21.2 21.2" style="enable-background:new 0 0 21.2 21.2;" xml:space="preserve">
<style type="text/css">
	.st0{fill:#050505;}
</style>
<path class="st0" d="M10.6,0.2C4.9,0.2,0.2,4.9,0.2,10.6C0.2,16.3,4.9,21,10.6,21S21,16.3,21,10.6C21,4.9,16.3,0.2,10.6,0.2z
	 M10.6,19.7c-5,0-9.1-4.1-9.1-9.1s4.1-9.1,9.1-9.1s9.1,4.1,9.1,9.1S15.6,19.7,10.6,19.7z M9.5,11.1 M10.6,12.2
	c-0.5,0-0.9-0.4-0.9-0.9c0-0.5,0.4-0.9,0.9-0.9s0.9,0.4,0.9,0.9C11.5,11.8,11.1,12.2,10.6,12.2z M5.9,12.2c-0.5,0-0.9-0.4-0.9-0.9
	c0-0.5,0.4-0.9,0.9-0.9s0.9,0.4,0.9,0.9C6.9,11.8,6.5,12.2,5.9,12.2z M15.2,12.2c-0.5,0-0.9-0.4-0.9-0.9c0-0.5,0.4-0.9,0.9-0.9
	c0.5,0,0.9,0.4,0.9,0.9C16.2,11.8,15.7,12.2,15.2,12.2z"/>
</svg>
