<?xml version="1.0" encoding="utf-8"?>
<!-- Generator: Adobe Illustrator 21.0.2, SVG Export Plug-In . SVG Version: 6.00 Build 0)  -->
<svg version="1.1" id="Layer_1" xmlns="http://www.w3.org/2000/svg" xmlns:xlink="http://www.w3.org/1999/xlink" x="0px" y="0px"
	 viewBox="0 0 28.5 25.25" style="enable-background:new 0 0 28.5 25.25;" xml:space="preserve">
<path id="XMLID_148_" d="M19.456,7.973h-1.683V7.577c0-0.328-0.266-0.594-0.594-0.594c-0.328,0-0.594,0.266-0.594,0.594v0.396
	h-4.603V7.577c0-0.328-0.266-0.594-0.594-0.594c-0.328,0-0.594,0.266-0.594,0.594v0.396H9.044c-0.328,0-0.594,0.266-0.594,0.594
	v9.107c0,0.328,0.266,0.594,0.594,0.594h10.412c0.328,0,0.594-0.266,0.594-0.594V8.567C20.05,8.239,19.784,7.973,19.456,7.973z
	 M10.794,8.8v0.756c0,0.328,0.266,0.594,0.594,0.594c0.328,0,0.594-0.266,0.594-0.594V8.8h4.603v0.756
	c0,0.328,0.266,0.594,0.594,0.594c0.328,0,0.594-0.266,0.594-0.594V8.8h1.556v3.862H9.172V8.8H10.794z M9.172,17.44v-4.056h10.157
	v4.056H9.172z"/>
</svg>
