<?xml version="1.0" encoding="utf-8"?>
<!-- Generator: Adobe Illustrator 19.0.0, SVG Export Plug-In . SVG Version: 6.00 Build 0)  -->
<svg version="1.1" id="Layer_1" xmlns="http://www.w3.org/2000/svg" xmlns:xlink="http://www.w3.org/1999/xlink" x="0px" y="0px"
	 viewBox="0 0 66 58.3" style="enable-background:new 0 0 66 58.3;" xml:space="preserve">
<path id="XMLID_152_" d="M33.7,33.4v-6.2c0-0.2,0.2-0.4,0.4-0.4s0.4,0.2,0.4,0.4v6.2c0,0.2-0.2,0.4-0.4,0.4S33.7,33.6,33.7,33.4z
	 M31.1,33.7c0.2,0,0.4-0.2,0.4-0.4v-6.2c0-0.2-0.2-0.4-0.4-0.4s-0.4,0.2-0.4,0.4v6.2C30.7,33.6,30.9,33.7,31.1,33.7z M38.6,24.7
	c0,0.2-0.2,0.4-0.4,0.4h-1.1v10.1c0,0.4-0.3,0.7-0.7,0.7h-7.7c-0.4,0-0.7-0.3-0.7-0.7V25.1h-1.1c-0.2,0-0.4-0.2-0.4-0.4
	c0-0.2,0.2-0.4,0.4-0.4h3.7v-1c0-0.1,0-0.3,0.2-0.5c0.1-0.1,0.3-0.1,0.4-0.1l2.6,0c0.1,0,0.3,0,0.4,0.1c0.2,0.1,0.2,0.4,0.2,0.5v1
	h3.7C38.4,24.4,38.6,24.5,38.6,24.7z M33.7,24.4v-0.8h-2.3l0,0.8H33.7z M28.8,25.1l0,9.9l7.5,0v-9.9L28.8,25.1z"/>
</svg>
