<?xml version="1.0" encoding="utf-8"?>
<!-- Generator: Adobe Illustrator 19.0.0, SVG Export Plug-In . SVG Version: 6.00 Build 0)  -->
<svg version="1.1" id="Layer_1" xmlns="http://www.w3.org/2000/svg" xmlns:xlink="http://www.w3.org/1999/xlink" x="0px" y="0px"
	 viewBox="-6886 1704 50 50" style="enable-background:new -6886 1704 50 50;" xml:space="preserve">
<path id="XMLID_139_" d="M-6867.5,1736.1c0,0,5.1-2.1,5.1-2.2l0,0l0,0l0,0l8.3-8.3c0.3-0.3,0.3-0.9,0-1.2l-2.3-2.3
	c-0.3-0.3-0.9-0.3-1.2,0l-8.4,8.4l-2.1,5c-0.1,0.2,0,0.3,0.1,0.4C-6867.8,1736.2-6867.5,1736.1-6867.5,1736.1z M-6861.3,1731.9
	l-2.5-2.5l3.7-3.7l2.5,2.5L-6861.3,1731.9z M-6857.1,1722.5L-6857.1,1722.5c0-0.1,0.1,0,0.1,0l2.5,2.5l-2.6,2.6l-2.5-2.5
	L-6857.1,1722.5z M-6865.3,1730.8l0.9-0.9l2.5,2.5l-0.9,0.9l-4.4,1.9L-6865.3,1730.8z"/>
</svg>
