<?xml version="1.0" encoding="utf-8"?>
<!-- Generator: Adobe Illustrator 21.0.2, SVG Export Plug-In . SVG Version: 6.00 Build 0)  -->
<svg version="1.1" id="Layer_1" xmlns="http://www.w3.org/2000/svg" xmlns:xlink="http://www.w3.org/1999/xlink" x="0px" y="0px"
	 viewBox="0 0 12.292 9.271" style="enable-background:new 0 0 12.292 9.271;" xml:space="preserve">
<path d="M5.909,4.728L0.916,0.357c0.213-0.116,0.454-0.188,0.714-0.188h9c0.259,0,0.501,0.073,0.715,0.188L6.349,4.728
	C6.223,4.838,6.035,4.838,5.909,4.728z M3.859,3.931L0.363,0.872C0.217,1.103,0.129,1.375,0.129,1.668v6
	c0,0.262,0.074,0.507,0.193,0.721l3.566-3.991C4.011,4.261,3.998,4.052,3.859,3.931z M7.334,4.862l-0.958,0.84
	c-0.07,0.061-0.159,0.091-0.247,0.091c-0.088,0-0.175-0.03-0.247-0.091l-0.958-0.84C4.786,4.742,4.577,4.755,4.455,4.89L0.839,8.938
	c0.23,0.144,0.5,0.231,0.791,0.231h9c0.291,0,0.561-0.087,0.791-0.231L7.804,4.89C7.682,4.755,7.472,4.742,7.334,4.862z
	 M11.895,0.872l-3.257,2.85C8.367,3.958,8.342,4.368,8.581,4.637l3.356,3.753c0.118-0.214,0.192-0.459,0.192-0.721v-6
	C12.129,1.375,12.041,1.103,11.895,0.872z"/>
</svg>
