<?xml version="1.0" encoding="utf-8"?>
<!-- Generator: Adobe Illustrator 20.0.0, SVG Export Plug-In . SVG Version: 6.00 Build 0)  -->
<svg version="1.1" id="Layer_1" xmlns="http://www.w3.org/2000/svg" xmlns:xlink="http://www.w3.org/1999/xlink" x="0px" y="0px"
	 viewBox="0 0 20.301 14.633" style="enable-background:new 0 0 20.301 14.633;" xml:space="preserve">
<path d="M20.301,13.983V0.65c0-0.317-0.226-0.648-0.641-0.648C19.657,0.002,19.654,0,19.65,0c0,0-19.006,0.002-19.009,0.002
	C0.275,0.002,0,0.204,0,0.65v13.333c0,0.347,0.359,0.65,0.575,0.65H19.65C20.004,14.633,20.301,14.208,20.301,13.983z M1.3,2.15
	l6.456,6.053L1.3,12.733V2.15z M10.15,8.666L2.293,1.3h15.714L10.15,8.666z M8.724,9.111l0.982,0.921
	c0.125,0.117,0.284,0.176,0.444,0.176s0.319-0.059,0.444-0.176l0.981-0.92l6.016,4.221H2.709L8.724,9.111z M12.545,8.203L19,2.151
	v10.582L12.545,8.203z"/>
</svg>
