<?xml version="1.0" encoding="utf-8"?>
<!-- Generator: Adobe Illustrator 21.0.2, SVG Export Plug-In . SVG Version: 6.00 Build 0)  -->
<svg version="1.1" id="Layer_1" xmlns="http://www.w3.org/2000/svg" xmlns:xlink="http://www.w3.org/1999/xlink" x="0px" y="0px"
	 viewBox="0 0 41.083 43" style="enable-background:new 0 0 41.083 43;" xml:space="preserve">
<style type="text/css">
	.st0{fill-rule:evenodd;clip-rule:evenodd;}
</style>
<path class="st0" d="M13.175,13.589v15.6c0,0.244,0.173,0.454,0.413,0.501l9.231,1.801c0.315,0.061,0.608-0.18,0.608-0.501V11.788
	c0-0.321-0.293-0.562-0.608-0.501l-9.231,1.801C13.348,13.135,13.175,13.345,13.175,13.589z M21.453,25.317h-1.917l-1.236-2.229
	l-1.236,2.229h-1.917l2.194-3.958l-2.194-3.958h1.917l1.236,2.229l1.236-2.229h1.917l-2.194,3.958L21.453,25.317z M29.794,13.528
	h-5.333v2.477h1.922v1.458h-1.922v1.625h1.922v1.458h-1.922v1.625h1.922v1.458h-1.922v1.625h1.922v1.458h-1.922v2.539h5.335
	c0.829,0,1.5-0.672,1.5-1.5V15.03C31.297,14.2,30.624,13.528,29.794,13.528z M29.904,26.713h-2.708v-1.458h2.708V26.713z
	 M29.904,23.63h-2.708v-1.458h2.708V23.63z M29.904,20.546h-2.708v-1.458h2.708V20.546z M29.904,17.463h-2.708v-1.458h2.708V17.463z
	"/>
</svg>
