<?xml version="1.0" encoding="utf-8"?>
<!-- Generator: Adobe Illustrator 21.0.2, SVG Export Plug-In . SVG Version: 6.00 Build 0)  -->
<svg version="1.1" id="Layer_1" xmlns="http://www.w3.org/2000/svg" xmlns:xlink="http://www.w3.org/1999/xlink" x="0px" y="0px"
	 viewBox="0 0 27 27" style="enable-background:new 0 0 27 27;" xml:space="preserve">
<style type="text/css">
	.st0{fill:#222222;}
</style>
<g>
	<g>
		<path class="st0" d="M21.709,21.447h-7.3v-5.312h-2.15v5.312h-7.3V12.67l-0.261,0.185c-0.269,0.181-0.609,0.245-0.95,0.175
			c-0.339-0.068-0.633-0.258-0.807-0.521c-0.347-0.694-0.178-1.503,0.348-1.858l9.22-6.893c0.503-0.341,1.039-0.341,1.524-0.014
			l9.251,6.914c0.535,0.372,0.696,1.199,0.336,1.745c-0.387,0.657-1.13,0.637-1.493,0.526c-0.116-0.029-0.276-0.104-0.419-0.295
			V21.447z M15.409,20.447h5.3v-9.858l1.775,1.398c0.084,0.013,0.218,0.008,0.289-0.114c0.072-0.11,0.029-0.333-0.059-0.393
			l-0.021-0.014L13.455,4.56c-0.126-0.084-0.22-0.085-0.366,0.014l-9.22,6.892c-0.098,0.067-0.175,0.316-0.061,0.547
			c-0.01-0.021,0.051,0.021,0.137,0.037c0.084,0.017,0.155,0.003,0.185-0.018l1.83-1.296v9.711h5.3v-5.312h4.15V20.447z"/>
	</g>
</g>
</svg>
