<?xml version="1.0" encoding="utf-8"?>
<!-- Generator: Adobe Illustrator 20.0.0, SVG Export Plug-In . SVG Version: 6.00 Build 0)  -->
<svg version="1.1" id="Layer_1" xmlns="http://www.w3.org/2000/svg" xmlns:xlink="http://www.w3.org/1999/xlink" x="0px" y="0px"
	 viewBox="0 0 16.006 16.006" style="enable-background:new 0 0 16.006 16.006;" xml:space="preserve">
<style type="text/css">
	.st0{fill:#231F20;}
</style>
<path class="st0" d="M8.003,0C3.59,0,0,3.59,0,8.003s3.59,8.003,8.003,8.003s8.003-3.59,8.003-8.003S12.416,0,8.003,0z
	 M8.003,15.041c-3.881,0-7.038-3.158-7.038-7.038c0-3.881,3.157-7.038,7.038-7.038s7.038,3.157,7.038,7.038
	S11.884,15.041,8.003,15.041z M9.775,11.35l-0.119,0.488c-0.358,0.14-0.643,0.248-0.856,0.322c-0.213,0.074-0.461,0.111-0.743,0.111
	c-0.434,0-0.77-0.106-1.011-0.317c-0.24-0.211-0.36-0.479-0.36-0.805c0-0.126,0.009-0.256,0.027-0.387
	C6.731,10.63,6.76,10.481,6.8,10.314l0.447-1.583c0.041-0.151,0.074-0.294,0.101-0.43C7.375,8.166,7.389,8.042,7.389,7.93
	c0-0.202-0.041-0.343-0.125-0.423C7.18,7.428,7.021,7.388,6.786,7.388c-0.116,0-0.235,0.018-0.356,0.054s-0.226,0.07-0.313,0.103
	l0.119-0.488C6.53,6.938,6.81,6.836,7.077,6.751c0.268-0.085,0.521-0.127,0.76-0.127c0.431,0,0.762,0.104,0.995,0.312
	c0.234,0.208,0.351,0.478,0.351,0.81c0,0.069-0.008,0.19-0.024,0.363c-0.017,0.173-0.047,0.332-0.09,0.477l-0.446,1.577
	c-0.036,0.127-0.069,0.271-0.097,0.434c-0.029,0.163-0.043,0.285-0.043,0.369c0,0.21,0.047,0.352,0.141,0.428
	s0.256,0.114,0.487,0.114c0.108,0,0.231-0.019,0.368-0.057C9.614,11.412,9.714,11.378,9.775,11.35z M9.889,4.732
	c0,0.275-0.104,0.509-0.312,0.702c-0.207,0.194-0.457,0.29-0.75,0.29s-0.544-0.097-0.753-0.29c-0.21-0.193-0.315-0.427-0.315-0.702
	c0-0.274,0.105-0.509,0.314-0.705c0.21-0.195,0.461-0.293,0.753-0.293c0.293,0,0.543,0.098,0.751,0.293
	C9.785,4.223,9.889,4.458,9.889,4.732z"/>
</svg>
