<?xml version="1.0" encoding="utf-8"?>
<!-- Generator: Adobe Illustrator 15.0.2, SVG Export Plug-In . SVG Version: 6.00 Build 0)  -->
<!DOCTYPE svg PUBLIC "-//W3C//DTD SVG 1.1//EN" "http://www.w3.org/Graphics/SVG/1.1/DTD/svg11.dtd">
<svg version="1.1" id="Layer_1" xmlns="http://www.w3.org/2000/svg" xmlns:xlink="http://www.w3.org/1999/xlink" x="0px" y="0px"
	 width="50px" height="50px" viewBox="0 0 50 50" enable-background="new 0 0 50 50" xml:space="preserve">
<path fill-rule="evenodd" clip-rule="evenodd" fill="#231F20" d="M25.137,16.009c-4.418,0-8,3.582-8,8c0,4.419,3.581,7.999,8,7.999
	c4.419,0,8-3.58,8-7.999C33.137,19.59,29.557,16.009,25.137,16.009z M26.684,28.154c-0.387,0.152-0.695,0.269-0.926,0.349
	s-0.497,0.12-0.801,0.12c-0.469,0-0.833-0.114-1.093-0.343s-0.39-0.519-0.39-0.87c0-0.137,0.01-0.276,0.029-0.419
	s0.051-0.304,0.094-0.483l0.483-1.711c0.044-0.164,0.08-0.319,0.109-0.466s0.044-0.28,0.044-0.401c0-0.219-0.045-0.371-0.136-0.457
	c-0.09-0.086-0.262-0.129-0.517-0.129c-0.125,0-0.254,0.02-0.385,0.059s-0.244,0.076-0.338,0.111l0.129-0.527
	c0.317-0.129,0.62-0.239,0.909-0.331c0.29-0.092,0.563-0.138,0.821-0.138c0.466,0,0.823,0.112,1.075,0.337
	c0.254,0.225,0.379,0.517,0.379,0.876c0,0.074-0.008,0.205-0.025,0.393s-0.051,0.359-0.098,0.516l-0.482,1.706
	c-0.039,0.137-0.074,0.293-0.105,0.469s-0.047,0.309-0.047,0.398c0,0.227,0.051,0.381,0.152,0.463
	c0.102,0.082,0.277,0.123,0.527,0.123c0.117,0,0.25-0.021,0.396-0.062c0.148-0.041,0.256-0.077,0.322-0.108L26.684,28.154z
	 M26.6,21.231c-0.225,0.209-0.496,0.313-0.812,0.313c-0.316,0-0.586-0.104-0.813-0.313s-0.34-0.462-0.34-0.759
	s0.113-0.551,0.34-0.762s0.497-0.316,0.813-0.316c0.316,0,0.588,0.105,0.812,0.316s0.336,0.465,0.336,0.762
	S26.824,21.022,26.6,21.231z"/>
</svg>
