<?xml version="1.0" encoding="utf-8"?>
<!-- Generator: Adobe Illustrator 15.0.2, SVG Export Plug-In . SVG Version: 6.00 Build 0)  -->
<!DOCTYPE svg PUBLIC "-//W3C//DTD SVG 1.1//EN" "http://www.w3.org/Graphics/SVG/1.1/DTD/svg11.dtd">
<svg version="1.1" id="Layer_1" xmlns="http://www.w3.org/2000/svg" xmlns:xlink="http://www.w3.org/1999/xlink" x="0px" y="0px"
	 width="50px" height="50px" viewBox="0 0 50 50" enable-background="new 0 0 50 50" xml:space="preserve">
<path fill="#231F20" d="M46.784,41.333l-9.894-8.926c2.323-3.004,3.703-7.793,3.703-12.184c0-10.589-8.635-18.891-19.287-18.891
	c-10.65,0-18.86,8.302-18.86,18.891c0,10.59,8.21,19.173,18.86,19.173c2.965,0,6.715-0.62,9.05-1.729l10.051,10.007
	c0.88,0.877,2.309,0.877,3.187,0l3.189-3.172C47.667,43.627,47.667,42.207,46.784,41.333z M21.555,31.796
	c-6.309,0-11.42-5.081-11.42-11.35c0-6.272,5.111-11.354,11.42-11.354c6.303,0,11.416,5.082,11.416,11.354
	C32.971,26.713,27.858,31.796,21.555,31.796z"/>
</svg>
