<?xml version="1.0" encoding="utf-8"?>
<!-- Generator: Adobe Illustrator 19.0.0, SVG Export Plug-In . SVG Version: 6.00 Build 0)  -->
<svg version="1.1" id="Layer_1" xmlns="http://www.w3.org/2000/svg" xmlns:xlink="http://www.w3.org/1999/xlink" x="0px" y="0px"
	 viewBox="-6862 1692.7 98.9 73.3" style="enable-background:new -6862 1692.7 98.9 73.3;" xml:space="preserve">
<path d="M-6812.9,1731.4c0.2,0.6,0.4,1.2,0.8,1.7l-0.9,0.5c-0.4-0.6-0.7-1.3-0.9-1.9L-6812.9,1731.4z M-6811.2,1724.4l-0.7-0.7
	c-0.5,0.5-0.9,1.1-1.2,1.7l0.9,0.5C-6812,1725.4-6811.6,1724.9-6811.2,1724.4z M-6808.1,1722.5l-0.3-1c-0.7,0.2-1.3,0.5-1.9,0.9
	l0.5,0.8C-6809.2,1722.9-6808.6,1722.7-6808.1,1722.5z M-6811.6,1735.3c0.5,0.5,1.1,0.9,1.7,1.3l0.5-0.9c-0.5-0.3-1-0.7-1.5-1.1
	L-6811.6,1735.3z M-6798.1,1726.9c-0.2-0.7-0.5-1.3-0.9-1.9l-0.8,0.5c0.3,0.5,0.6,1.1,0.8,1.7L-6798.1,1726.9z M-6806,1722.2
	c0.5,0,1.1,0.1,1.6,0.2l0.2-1c-0.6-0.1-1.2-0.2-1.8-0.2h-0.3v1H-6806z M-6807.7,1736.3l-0.2,1c0.7,0.2,1.3,0.2,2,0.2l0,0l0.1-1
	C-6805.8,1736.5-6807.1,1736.5-6807.7,1736.3z M-6800.8,1734.4l0.7,0.7c0.5-0.5,0.9-1.1,1.3-1.7l-0.9-0.5
	C-6800,1733.5-6800.4,1734-6800.8,1734.4z M-6797.8,1729h-1c0,0.1,0,0.2,0,0.4c0,0.6-0.1,1.3-0.2,1.8l1,0.3
	C-6797.8,1730.8-6797.7,1729.3-6797.8,1729z M-6802.1,1722.1l-0.5,0.9c0.6,0.3,1.1,0.7,1.5,1.1l0.7-0.7
	C-6800.9,1722.8-6801.5,1722.4-6802.1,1722.1z M-6804,1736.3l0.3,1c0.7-0.2,1.3-0.5,2-0.8l-0.5-0.9
	C-6802.8,1735.9-6803.4,1736.1-6804,1736.3z M-6803.9,1729.4c0,1-0.8,1.8-1.8,1.8c-0.8,0-1.5-0.5-1.7-1.3h-11.7
	c-0.2,2.1-2,3.7-4.1,3.7c-2.3,0-4.2-1.9-4.2-4.2c0-2.3,1.9-4.2,4.2-4.2c2.1,0,3.9,1.6,4.1,3.7h5c0-0.5,0.1-1,0.2-1.4l1,0.2
	c-0.1,0.4-0.2,0.8-0.2,1.2h5.7c0.2-0.7,0.9-1.3,1.7-1.3C-6804.7,1727.6-6803.9,1728.4-6803.9,1729.4z M-6820,1729.4
	c0-1.7-1.4-3.2-3.2-3.2c-1.7,0-3.2,1.4-3.2,3.2c0,1.7,1.4,3.2,3.2,3.2C-6821.5,1732.5-6820,1731.1-6820,1729.4z"/>
</svg>
