<?xml version="1.0" encoding="utf-8"?>
<!-- Generator: Adobe Illustrator 15.0.2, SVG Export Plug-In . SVG Version: 6.00 Build 0)  -->
<!DOCTYPE svg PUBLIC "-//W3C//DTD SVG 1.1//EN" "http://www.w3.org/Graphics/SVG/1.1/DTD/svg11.dtd">
<svg version="1.1" id="Layer_1" xmlns="http://www.w3.org/2000/svg" xmlns:xlink="http://www.w3.org/1999/xlink" x="0px" y="0px"
	 width="50px" height="50px" viewBox="0 0 50 50" enable-background="new 0 0 50 50" xml:space="preserve">
<path fill="#231F20" d="M27.24,12.329H16.192v22.703h17.615V18.986L27.24,12.329z M27.598,14.44l4.043,4.099h-4.043V14.44z
	 M17.421,33.804V13.558h8.948v6.21h6.21v14.036H17.421z M21.481,23.445h-1.68v3.726h0.819v-1.336h0.86
	c0.93,0,1.289-0.59,1.289-1.195C22.771,24.035,22.411,23.445,21.481,23.445z M21.258,25.198h-0.637v-1.117h0.637
	c0.381,0,0.72,0.083,0.72,0.559C21.978,25.115,21.639,25.198,21.258,25.198z M25.15,23.445h-1.607v3.726h1.607
	c1.138,0,1.69-0.804,1.69-1.884C26.841,24.05,26.115,23.445,25.15,23.445z M25.093,26.481h-0.73v-2.348h0.584
	c0.814,0,1.075,0.48,1.075,1.231C26.021,26.19,25.567,26.481,25.093,26.481z M27.67,23.445h2.619v0.689h-1.8v0.861h1.56v0.637h-1.56
	v1.539H27.67V23.445z"/>
</svg>
