<?xml version="1.0" encoding="utf-8"?>
<!-- Generator: Adobe Illustrator 21.0.2, SVG Export Plug-In . SVG Version: 6.00 Build 0)  -->
<svg version="1.1" id="Layer_1" xmlns="http://www.w3.org/2000/svg" xmlns:xlink="http://www.w3.org/1999/xlink" x="0px" y="0px"
	 viewBox="0 0 41.083 43" style="enable-background:new 0 0 41.083 43;" xml:space="preserve">
<style type="text/css">
	.st0{fill-rule:evenodd;clip-rule:evenodd;}
</style>
<path class="st0" d="M16.689,14.475h-1.123v-1.442c0-1.276,1.049-2.315,2.34-2.315h7.957c1.29,0,2.339,1.038,2.339,2.315v1.442
	h-1.123v-1.442c0-0.657-0.545-1.192-1.216-1.192h-7.957c-0.671,0-1.217,0.535-1.217,1.192V14.475z M18.111,24.47h7.547v-1.123
	h-7.547V24.47z M18.111,26.986h5.53v-1.123h-5.53V26.986z M31.99,17.472v6.583c0,0.961-0.779,1.74-1.74,1.74h-2.049v2.7
	c0,1.276-1.049,2.315-2.339,2.315h-7.957c-1.291,0-2.34-1.038-2.34-2.315v-2.7h-2.048c-0.961,0-1.74-0.779-1.74-1.74v-6.583
	c0-0.961,0.779-1.74,1.74-1.74H30.25C31.211,15.732,31.99,16.511,31.99,17.472z M27.079,25.796h-0.008v-3.752H16.693v3.752h-0.004
	v2.7c0,0.657,0.546,1.192,1.217,1.192h7.957c0.671,0,1.216-0.535,1.216-1.192V25.796z M30.799,18.186
	c0-0.698-0.566-1.263-1.263-1.263c-0.698,0-1.263,0.566-1.263,1.263c0,0.698,0.566,1.263,1.263,1.263
	C30.234,19.45,30.799,18.884,30.799,18.186z"/>
</svg>
