<?xml version="1.0" encoding="utf-8"?>
<!-- Generator: Adobe Illustrator 21.0.2, SVG Export Plug-In . SVG Version: 6.00 Build 0)  -->
<svg version="1.1" id="Layer_1" xmlns="http://www.w3.org/2000/svg" xmlns:xlink="http://www.w3.org/1999/xlink" x="0px" y="0px"
	 viewBox="0 0 27 27" style="enable-background:new 0 0 27 27;" xml:space="preserve">
<path d="M21.65,13.545l-2.051,1.84c-0.129,0.115-0.29,0.173-0.451,0.173c-0.162,0-0.323-0.057-0.451-0.173l-2.05-1.84
	c-0.278-0.249-0.301-0.676-0.051-0.954c0.249-0.277,0.677-0.3,0.954-0.051l0.998,0.896c-0.267-2.979-2.775-5.322-5.822-5.322
	c-2.012,0-3.858,1.015-4.94,2.715c-0.199,0.313-0.616,0.406-0.933,0.207c-0.314-0.2-0.408-0.617-0.207-0.933
	c1.331-2.092,3.604-3.34,6.08-3.34c3.75,0,6.835,2.881,7.167,6.545l0.856-0.768c0.277-0.249,0.704-0.226,0.954,0.051
	C21.951,12.869,21.929,13.296,21.65,13.545z M18.635,17.016c-0.313-0.198-0.732-0.107-0.933,0.207
	c-1.083,1.701-2.93,2.717-4.941,2.717c-3.026,0-5.523-2.311-5.819-5.261l0.929,0.834c0.128,0.116,0.29,0.173,0.451,0.173
	c0.185,0,0.369-0.076,0.503-0.224c0.249-0.278,0.226-0.704-0.051-0.954l-2.05-1.841c-0.256-0.231-0.645-0.231-0.902,0L3.77,14.509
	c-0.278,0.249-0.301,0.676-0.051,0.954c0.248,0.278,0.675,0.3,0.954,0.051l0.919-0.825c0.306,3.691,3.402,6.602,7.169,6.602
	c2.475,0,4.749-1.249,6.081-3.342C19.042,17.634,18.95,17.217,18.635,17.016z"/>
</svg>
