<?xml version="1.0" encoding="utf-8"?>
<!-- Generator: Adobe Illustrator 21.0.2, SVG Export Plug-In . SVG Version: 6.00 Build 0)  -->
<svg version="1.1" id="Layer_1" xmlns="http://www.w3.org/2000/svg" xmlns:xlink="http://www.w3.org/1999/xlink" x="0px" y="0px"
	 viewBox="0 0 41.083 43" style="enable-background:new 0 0 41.083 43;" xml:space="preserve">
<style type="text/css">
	.st0{fill-rule:evenodd;clip-rule:evenodd;}
</style>
<path class="st0" d="M21.57,17.189v-4.547h2.381v4.546c0,0.299-0.243,0.542-0.542,0.542h-1.297
	C21.812,17.73,21.57,17.488,21.57,17.189z M24.671,23.139H17.07c-0.118,0-0.213,0.096-0.213,0.213v0.721
	c0,0.118,0.096,0.213,0.213,0.213h7.601c0.118,0,0.213-0.095,0.213-0.213v-0.721C24.884,23.235,24.788,23.139,24.671,23.139z
	 M23.737,25.271h-5.734c-0.118,0-0.213,0.096-0.213,0.213v0.721c0,0.118,0.096,0.213,0.213,0.213h5.734
	c0.118,0,0.213-0.096,0.213-0.213v-0.721C23.951,25.367,23.855,25.271,23.737,25.271z M29.624,17.174v12.404
	c0,0.316-0.256,0.573-0.573,0.573h-16.36c-0.318,0-0.575-0.258-0.575-0.575V13.137c0-0.273,0.221-0.494,0.494-0.494h3.317v6.404
	c0,0.291,0.236,0.526,0.526,0.526h8.529c0.29,0,0.524-0.235,0.524-0.524v-6.397l3.902,3.996
	C29.547,16.788,29.624,16.977,29.624,17.174z M27.238,22.397c0-0.333-0.27-0.602-0.602-0.602h-11.53
	c-0.333,0-0.602,0.27-0.602,0.602v4.765c0,0.333,0.27,0.602,0.602,0.602h11.53c0.333,0,0.602-0.27,0.602-0.602V22.397z"/>
</svg>
