<?xml version="1.0" encoding="UTF-8" standalone="no"?><!DOCTYPE svg PUBLIC "-//W3C//DTD SVG 1.1//EN" "http://www.w3.org/Graphics/SVG/1.1/DTD/svg11.dtd"><svg width="100%" height="100%" viewBox="0 0 21 21" version="1.1" xmlns="http://www.w3.org/2000/svg" xmlns:xlink="http://www.w3.org/1999/xlink" xml:space="preserve" xmlns:serif="http://www.serif.com/" style="fill-rule:evenodd;clip-rule:evenodd;stroke-linejoin:round;stroke-miterlimit:1.41421;"><path d="M10.636,0.001l0.135,0.002l0.135,0.005l0.134,0.006l0.134,0.007l0.133,0.01l0.133,0.011l0.133,0.012l0.132,0.015l0.132,0.015l0.131,0.018l0.13,0.019l0.13,0.021l0.13,0.022l0.129,0.024l0.128,0.025l0.128,0.028l0.127,0.028l0.127,0.03l0.126,0.032l0.125,0.033l0.125,0.035l0.124,0.036l0.124,0.037l0.123,0.04l0.122,0.04l0.122,0.042l0.121,0.044l0.12,0.044l0.119,0.047l0.119,0.048l0.118,0.049l0.118,0.05l0.116,0.052l0.116,0.053l0.115,0.055l0.115,0.056l0.113,0.057l0.113,0.059l0.112,0.06l0.111,0.061l0.111,0.063l0.109,0.064l0.109,0.065l0.108,0.066l0.107,0.068l0.106,0.069l0.105,0.07l0.104,0.072l0.104,0.072l0.102,0.074l0.102,0.075l0.1,0.076l0.1,0.078l0.099,0.078l0.097,0.08l0.097,0.081l0.096,0.082l0.095,0.083l0.093,0.084l0.093,0.085l0.092,0.087l0.091,0.087l0.089,0.089l0.089,0.089l0.087,0.091l0.087,0.092l0.085,0.093l0.084,0.093l0.083,0.095l0.082,0.096l0.081,0.097l0.08,0.097l0.078,0.099l0.078,0.1l0.076,0.1l0.075,0.102l0.074,0.102l0.072,0.104l0.072,0.104l0.07,0.105l0.069,0.106l0.068,0.107l0.066,0.108l0.065,0.109l0.064,0.109l0.063,0.111l0.061,0.111l0.06,0.112l0.059,0.113l0.057,0.113l0.056,0.115l0.055,0.115l0.053,0.116l0.052,0.116l0.05,0.118l0.049,0.118l0.048,0.119l0.047,0.119l0.044,0.12l0.044,0.121l0.042,0.122l0.04,0.122l0.04,0.123l0.037,0.124l0.036,0.124l0.035,0.125l0.033,0.125l0.032,0.126l0.03,0.127l0.028,0.127l0.028,0.128l0.025,0.128l0.024,0.129l0.022,0.13l0.021,0.13l0.019,0.13l0.018,0.131l0.015,0.132l0.015,0.132l0.012,0.133l0.011,0.133l0.01,0.133l0.007,0.134l0.006,0.134l0.005,0.135l0.002,0.135l0.001,0.136l-0.001,0.136l-0.002,0.135l-0.005,0.135l-0.006,0.134l-0.007,0.134l-0.01,0.133l-0.011,0.133l-0.012,0.133l-0.015,0.132l-0.015,0.132l-0.018,0.131l-0.019,0.13l-0.021,0.13l-0.022,0.13l-0.024,0.129l-0.025,0.128l-0.028,0.128l-0.028,0.127l-0.03,0.127l-0.032,0.126l-0.033,0.125l-0.035,0.125l-0.036,0.124l-0.037,0.124l-0.04,0.123l-0.04,0.122l-0.042,0.122l-0.044,0.121l-0.044,0.12l-0.047,0.119l-0.048,0.119l-0.049,0.118l-0.05,0.118l-0.052,0.116l-0.053,0.116l-0.055,0.115l-0.056,0.115l-0.057,0.113l-0.059,0.113l-0.06,0.112l-0.061,0.111l-0.063,0.111l-0.064,0.109l-0.065,0.109l-0.066,0.108l-0.068,0.107l-0.069,0.106l-0.07,0.105l-0.072,0.104l-0.072,0.104l-0.074,0.102l-0.075,0.102l-0.076,0.1l-0.078,0.1l-0.078,0.099l-0.08,0.097l-0.081,0.097l-0.082,0.096l-0.083,0.095l-0.084,0.093l-0.085,0.093l-0.087,0.092l-0.087,0.091l-0.089,0.089l-0.089,0.089l-0.091,0.087l-0.092,0.087l-0.093,0.085l-0.093,0.084l-0.095,0.083l-0.096,0.082l-0.097,0.081l-0.097,0.08l-0.099,0.078l-0.1,0.078l-0.1,0.076l-0.102,0.075l-0.102,0.074l-0.104,0.072l-0.104,0.072l-0.105,0.07l-0.106,0.069l-0.107,0.068l-0.108,0.066l-0.109,0.065l-0.109,0.064l-0.111,0.063l-0.111,0.061l-0.112,0.06l-0.113,0.059l-0.113,0.057l-0.115,0.056l-0.115,0.055l-0.116,0.053l-0.116,0.052l-0.118,0.05l-0.118,0.049l-0.119,0.048l-0.119,0.047l-0.12,0.044l-0.121,0.044l-0.122,0.042l-0.122,0.04l-0.123,0.04l-0.124,0.037l-0.124,0.036l-0.125,0.035l-0.125,0.033l-0.126,0.032l-0.127,0.03l-0.127,0.028l-0.128,0.028l-0.128,0.025l-0.129,0.024l-0.13,0.022l-0.13,0.021l-0.13,0.019l-0.131,0.018l-0.132,0.015l-0.132,0.015l-0.133,0.012l-0.133,0.011l-0.133,0.01l-0.134,0.007l-0.134,0.006l-0.135,0.005l-0.135,0.002l-0.136,0.001l-0.136,-0.001l-0.135,-0.002l-0.135,-0.005l-0.134,-0.006l-0.134,-0.007l-0.133,-0.01l-0.133,-0.011l-0.133,-0.012l-0.132,-0.015l-0.132,-0.015l-0.131,-0.018l-0.13,-0.019l-0.13,-0.021l-0.13,-0.022l-0.129,-0.024l-0.128,-0.025l-0.128,-0.028l-0.127,-0.028l-0.127,-0.03l-0.126,-0.032l-0.125,-0.033l-0.125,-0.035l-0.124,-0.036l-0.124,-0.037l-0.123,-0.04l-0.122,-0.04l-0.122,-0.042l-0.121,-0.044l-0.12,-0.044l-0.119,-0.047l-0.119,-0.048l-0.118,-0.049l-0.118,-0.05l-0.116,-0.052l-0.116,-0.053l-0.115,-0.055l-0.115,-0.056l-0.113,-0.057l-0.113,-0.059l-0.112,-0.06l-0.111,-0.061l-0.111,-0.063l-0.109,-0.064l-0.109,-0.065l-0.108,-0.066l-0.107,-0.068l-0.106,-0.069l-0.105,-0.07l-0.104,-0.072l-0.104,-0.072l-0.102,-0.074l-0.102,-0.075l-0.1,-0.076l-0.1,-0.078l-0.099,-0.078l-0.097,-0.08l-0.097,-0.081l-0.096,-0.082l-0.095,-0.083l-0.093,-0.084l-0.093,-0.085l-0.092,-0.087l-0.091,-0.087l-0.089,-0.089l-0.089,-0.089l-0.087,-0.091l-0.087,-0.092l-0.085,-0.093l-0.084,-0.093l-0.083,-0.095l-0.082,-0.096l-0.081,-0.097l-0.08,-0.097l-0.078,-0.099l-0.078,-0.1l-0.076,-0.1l-0.075,-0.102l-0.074,-0.102l-0.072,-0.104l-0.072,-0.104l-0.07,-0.105l-0.069,-0.106l-0.068,-0.107l-0.066,-0.108l-0.065,-0.109l-0.064,-0.109l-0.063,-0.111l-0.061,-0.111l-0.06,-0.112l-0.059,-0.113l-0.057,-0.113l-0.056,-0.115l-0.055,-0.115l-0.053,-0.116l-0.052,-0.116l-0.05,-0.118l-0.049,-0.118l-0.048,-0.119l-0.047,-0.119l-0.044,-0.12l-0.044,-0.121l-0.042,-0.122l-0.04,-0.122l-0.04,-0.123l-0.037,-0.124l-0.036,-0.124l-0.035,-0.125l-0.033,-0.125l-0.032,-0.126l-0.03,-0.127l-0.028,-0.127l-0.028,-0.128l-0.025,-0.128l-0.024,-0.129l-0.022,-0.13l-0.021,-0.13l-0.019,-0.13l-0.018,-0.131l-0.015,-0.132l-0.015,-0.132l-0.012,-0.133l-0.011,-0.133l-0.01,-0.133l-0.007,-0.134l-0.006,-0.134l-0.005,-0.135l-0.002,-0.135l-0.001,-0.136l0.001,-0.136l0.002,-0.135l0.005,-0.135l0.006,-0.134l0.007,-0.134l0.01,-0.133l0.011,-0.133l0.012,-0.133l0.015,-0.132l0.015,-0.132l0.018,-0.131l0.019,-0.13l0.021,-0.13l0.022,-0.13l0.024,-0.129l0.025,-0.128l0.028,-0.128l0.028,-0.127l0.03,-0.127l0.032,-0.126l0.033,-0.125l0.035,-0.125l0.036,-0.124l0.037,-0.124l0.04,-0.123l0.04,-0.122l0.042,-0.122l0.044,-0.121l0.044,-0.12l0.047,-0.119l0.048,-0.119l0.049,-0.118l0.05,-0.118l0.052,-0.116l0.053,-0.116l0.055,-0.115l0.056,-0.115l0.057,-0.113l0.059,-0.113l0.06,-0.112l0.061,-0.111l0.063,-0.111l0.064,-0.109l0.065,-0.109l0.066,-0.108l0.068,-0.107l0.069,-0.106l0.07,-0.105l0.072,-0.104l0.072,-0.104l0.074,-0.102l0.075,-0.102l0.076,-0.1l0.078,-0.1l0.078,-0.099l0.08,-0.097l0.081,-0.097l0.082,-0.096l0.083,-0.095l0.084,-0.093l0.085,-0.093l0.087,-0.092l0.087,-0.091l0.089,-0.089l0.089,-0.089l0.091,-0.087l0.092,-0.087l0.093,-0.085l0.093,-0.084l0.095,-0.083l0.096,-0.082l0.097,-0.081l0.097,-0.08l0.099,-0.078l0.1,-0.078l0.1,-0.076l0.102,-0.075l0.102,-0.074l0.104,-0.072l0.104,-0.072l0.105,-0.07l0.106,-0.069l0.107,-0.068l0.108,-0.066l0.109,-0.065l0.109,-0.064l0.111,-0.063l0.111,-0.061l0.112,-0.06l0.113,-0.059l0.113,-0.057l0.115,-0.056l0.115,-0.055l0.116,-0.053l0.116,-0.052l0.118,-0.05l0.118,-0.049l0.119,-0.048l0.119,-0.047l0.12,-0.044l0.121,-0.044l0.122,-0.042l0.122,-0.04l0.123,-0.04l0.124,-0.037l0.124,-0.036l0.125,-0.035l0.125,-0.033l0.126,-0.032l0.127,-0.03l0.127,-0.028l0.128,-0.028l0.128,-0.025l0.129,-0.024l0.13,-0.022l0.13,-0.021l0.13,-0.019l0.131,-0.018l0.132,-0.015l0.132,-0.015l0.133,-0.012l0.133,-0.011l0.133,-0.01l0.134,-0.007l0.134,-0.006l0.135,-0.005l0.135,-0.002l0.136,-0.001l0.136,0.001Zm-0.259,1l-0.122,0.002l-0.123,0.004l-0.121,0.005l-0.122,0.007l-0.12,0.009l-0.121,0.01l-0.12,0.011l-0.119,0.013l-0.119,0.014l-0.119,0.016l-0.118,0.018l-0.118,0.018l-0.117,0.021l-0.116,0.021l-0.116,0.023l-0.116,0.025l-0.115,0.025l-0.114,0.028l-0.114,0.028l-0.114,0.03l-0.113,0.032l-0.112,0.032l-0.112,0.034l-0.111,0.036l-0.11,0.036l-0.11,0.038l-0.11,0.04l-0.108,0.04l-0.108,0.042l-0.108,0.043l-0.107,0.045l-0.106,0.045l-0.105,0.047l-0.105,0.048l-0.104,0.05l-0.104,0.051l-0.102,0.051l-0.102,0.053l-0.102,0.055l-0.1,0.055l-0.1,0.057l-0.099,0.058l-0.098,0.059l-0.098,0.06l-0.097,0.061l-0.096,0.062l-0.095,0.064l-0.094,0.064l-0.094,0.066l-0.093,0.067l-0.092,0.068l-0.091,0.069l-0.09,0.07l-0.089,0.071l-0.089,0.072l-0.087,0.073l-0.087,0.075l-0.086,0.075l-0.085,0.076l-0.084,0.077l-0.083,0.079l-0.082,0.079l-0.081,0.08l-0.08,0.081l-0.079,0.082l-0.079,0.083l-0.077,0.084l-0.076,0.085l-0.075,0.086l-0.075,0.087l-0.073,0.087l-0.072,0.089l-0.071,0.089l-0.07,0.09l-0.069,0.091l-0.068,0.092l-0.067,0.093l-0.066,0.094l-0.064,0.094l-0.064,0.095l-0.062,0.096l-0.061,0.097l-0.06,0.098l-0.059,0.098l-0.058,0.099l-0.057,0.1l-0.055,0.1l-0.055,0.102l-0.053,0.102l-0.051,0.102l-0.051,0.104l-0.05,0.104l-0.048,0.105l-0.047,0.105l-0.045,0.106l-0.045,0.107l-0.043,0.108l-0.042,0.108l-0.04,0.108l-0.04,0.11l-0.038,0.11l-0.036,0.11l-0.036,0.111l-0.034,0.112l-0.032,0.112l-0.032,0.113l-0.03,0.114l-0.028,0.114l-0.028,0.114l-0.025,0.115l-0.025,0.116l-0.023,0.116l-0.021,0.116l-0.021,0.117l-0.018,0.118l-0.018,0.118l-0.016,0.119l-0.014,0.119l-0.013,0.119l-0.011,0.12l-0.01,0.121l-0.009,0.12l-0.007,0.122l-0.005,0.121l-0.004,0.123l-0.002,0.122l-0.001,0.123l0.001,0.123l0.002,0.122l0.004,0.123l0.005,0.121l0.007,0.122l0.009,0.12l0.01,0.121l0.011,0.12l0.013,0.119l0.014,0.119l0.016,0.119l0.018,0.118l0.018,0.118l0.021,0.117l0.021,0.116l0.023,0.116l0.025,0.116l0.025,0.115l0.028,0.114l0.028,0.114l0.03,0.114l0.032,0.113l0.032,0.112l0.034,0.112l0.036,0.111l0.036,0.11l0.038,0.11l0.04,0.11l0.04,0.108l0.042,0.108l0.043,0.108l0.045,0.107l0.045,0.106l0.047,0.105l0.048,0.105l0.05,0.104l0.051,0.104l0.051,0.102l0.053,0.102l0.055,0.102l0.055,0.1l0.057,0.1l0.058,0.099l0.059,0.098l0.06,0.098l0.061,0.097l0.062,0.096l0.064,0.095l0.064,0.094l0.066,0.094l0.067,0.093l0.068,0.092l0.069,0.091l0.07,0.09l0.071,0.089l0.072,0.089l0.073,0.087l0.075,0.087l0.075,0.086l0.076,0.085l0.077,0.084l0.079,0.083l0.079,0.082l0.08,0.081l0.081,0.08l0.082,0.079l0.083,0.079l0.084,0.077l0.085,0.076l0.086,0.075l0.087,0.075l0.087,0.073l0.089,0.072l0.089,0.071l0.09,0.07l0.091,0.069l0.092,0.068l0.093,0.067l0.094,0.066l0.094,0.064l0.095,0.064l0.096,0.062l0.097,0.061l0.098,0.06l0.098,0.059l0.099,0.058l0.1,0.057l0.1,0.055l0.102,0.055l0.102,0.053l0.102,0.051l0.104,0.051l0.104,0.05l0.105,0.048l0.105,0.047l0.106,0.045l0.107,0.045l0.108,0.043l0.108,0.042l0.108,0.04l0.11,0.04l0.11,0.038l0.11,0.036l0.111,0.036l0.112,0.034l0.112,0.032l0.113,0.032l0.114,0.03l0.114,0.028l0.114,0.028l0.115,0.025l0.116,0.025l0.116,0.023l0.116,0.021l0.117,0.021l0.118,0.018l0.118,0.018l0.119,0.016l0.119,0.014l0.119,0.013l0.12,0.011l0.121,0.01l0.12,0.009l0.122,0.007l0.121,0.005l0.123,0.004l0.122,0.002l0.123,0.001l0.123,-0.001l0.122,-0.002l0.123,-0.004l0.121,-0.005l0.122,-0.007l0.12,-0.009l0.121,-0.01l0.12,-0.011l0.119,-0.013l0.119,-0.014l0.119,-0.016l0.118,-0.018l0.118,-0.018l0.117,-0.021l0.116,-0.021l0.116,-0.023l0.116,-0.025l0.115,-0.025l0.114,-0.028l0.114,-0.028l0.114,-0.03l0.113,-0.032l0.112,-0.032l0.112,-0.034l0.111,-0.036l0.11,-0.036l0.11,-0.038l0.11,-0.04l0.108,-0.04l0.108,-0.042l0.108,-0.043l0.107,-0.045l0.106,-0.045l0.105,-0.047l0.105,-0.048l0.104,-0.05l0.104,-0.051l0.102,-0.051l0.102,-0.053l0.102,-0.055l0.1,-0.055l0.1,-0.057l0.099,-0.058l0.098,-0.059l0.098,-0.06l0.097,-0.061l0.096,-0.062l0.095,-0.064l0.094,-0.064l0.094,-0.066l0.093,-0.067l0.092,-0.068l0.091,-0.069l0.09,-0.07l0.089,-0.071l0.089,-0.072l0.087,-0.073l0.087,-0.075l0.086,-0.075l0.085,-0.076l0.084,-0.077l0.083,-0.079l0.082,-0.079l0.081,-0.08l0.08,-0.081l0.079,-0.082l0.079,-0.083l0.077,-0.084l0.076,-0.085l0.075,-0.086l0.075,-0.087l0.073,-0.087l0.072,-0.089l0.071,-0.089l0.07,-0.09l0.069,-0.091l0.068,-0.092l0.067,-0.093l0.066,-0.094l0.064,-0.094l0.064,-0.095l0.062,-0.096l0.061,-0.097l0.06,-0.098l0.059,-0.098l0.058,-0.099l0.057,-0.1l0.055,-0.1l0.055,-0.102l0.053,-0.102l0.051,-0.102l0.051,-0.104l0.05,-0.104l0.048,-0.105l0.047,-0.105l0.045,-0.106l0.045,-0.107l0.043,-0.108l0.042,-0.108l0.04,-0.108l0.04,-0.11l0.038,-0.11l0.036,-0.11l0.036,-0.111l0.034,-0.112l0.032,-0.112l0.032,-0.113l0.03,-0.114l0.028,-0.114l0.028,-0.114l0.025,-0.115l0.025,-0.116l0.023,-0.116l0.021,-0.116l0.021,-0.117l0.018,-0.118l0.018,-0.118l0.016,-0.119l0.014,-0.119l0.013,-0.119l0.011,-0.12l0.01,-0.121l0.009,-0.12l0.007,-0.122l0.005,-0.121l0.004,-0.123l0.002,-0.122l0.001,-0.123l-0.001,-0.123l-0.002,-0.122l-0.004,-0.123l-0.005,-0.121l-0.007,-0.122l-0.009,-0.12l-0.01,-0.121l-0.011,-0.12l-0.013,-0.119l-0.014,-0.119l-0.016,-0.119l-0.018,-0.118l-0.018,-0.118l-0.021,-0.117l-0.021,-0.116l-0.023,-0.116l-0.025,-0.116l-0.025,-0.115l-0.028,-0.114l-0.028,-0.114l-0.03,-0.114l-0.032,-0.113l-0.032,-0.112l-0.034,-0.112l-0.036,-0.111l-0.036,-0.11l-0.038,-0.11l-0.04,-0.11l-0.04,-0.108l-0.042,-0.108l-0.043,-0.108l-0.045,-0.107l-0.045,-0.106l-0.047,-0.105l-0.048,-0.105l-0.05,-0.104l-0.051,-0.104l-0.051,-0.102l-0.053,-0.102l-0.055,-0.102l-0.055,-0.1l-0.057,-0.1l-0.058,-0.099l-0.059,-0.098l-0.06,-0.098l-0.061,-0.097l-0.062,-0.096l-0.064,-0.095l-0.064,-0.094l-0.066,-0.094l-0.067,-0.093l-0.068,-0.092l-0.069,-0.091l-0.07,-0.09l-0.071,-0.089l-0.072,-0.089l-0.073,-0.087l-0.075,-0.087l-0.075,-0.086l-0.076,-0.085l-0.077,-0.084l-0.079,-0.083l-0.079,-0.082l-0.08,-0.081l-0.081,-0.08l-0.082,-0.079l-0.083,-0.079l-0.084,-0.077l-0.085,-0.076l-0.086,-0.075l-0.087,-0.075l-0.087,-0.073l-0.089,-0.072l-0.089,-0.071l-0.09,-0.07l-0.091,-0.069l-0.092,-0.068l-0.093,-0.067l-0.094,-0.066l-0.094,-0.064l-0.095,-0.064l-0.096,-0.062l-0.097,-0.061l-0.098,-0.06l-0.098,-0.059l-0.099,-0.058l-0.1,-0.057l-0.1,-0.055l-0.102,-0.055l-0.102,-0.053l-0.102,-0.051l-0.104,-0.051l-0.104,-0.05l-0.105,-0.048l-0.105,-0.047l-0.106,-0.045l-0.107,-0.045l-0.108,-0.043l-0.108,-0.042l-0.108,-0.04l-0.11,-0.04l-0.11,-0.038l-0.11,-0.036l-0.111,-0.036l-0.112,-0.034l-0.112,-0.032l-0.113,-0.032l-0.114,-0.03l-0.114,-0.028l-0.114,-0.028l-0.115,-0.025l-0.116,-0.025l-0.116,-0.023l-0.116,-0.021l-0.117,-0.021l-0.118,-0.018l-0.118,-0.018l-0.119,-0.016l-0.119,-0.014l-0.119,-0.013l-0.12,-0.011l-0.121,-0.01l-0.12,-0.009l-0.122,-0.007l-0.121,-0.005l-0.123,-0.004l-0.122,-0.002l-0.123,-0.001l-0.123,0.001Z" style="fill:#ceceba;"/><circle cx="10.5" cy="10.5" r="7" style="fill:#ceceba;"/></svg>