<?xml version="1.0" encoding="utf-8"?>
<!-- Generator: Adobe Illustrator 21.0.2, SVG Export Plug-In . SVG Version: 6.00 Build 0)  -->
<svg version="1.1" id="Layer_1" xmlns="http://www.w3.org/2000/svg" xmlns:xlink="http://www.w3.org/1999/xlink" x="0px" y="0px"
	 viewBox="0 0 13.8 14" style="enable-background:new 0 0 13.8 14;" xml:space="preserve">
<style type="text/css">
	.st0{fill:#222222;}
</style>
<path class="st0" d="M12.9,0.6v12.7H0.8V10c0-0.3,0.2-0.5,0.5-0.5S1.8,9.7,1.8,10v2.3h10.1V1.6H1.8V4c0,0.3-0.2,0.5-0.5,0.5
	S0.8,4.3,0.8,4V0.6H12.9z M1.2,7.4h6L5.5,9.1c-0.2,0.2-0.2,0.5,0,0.7l0,0c0.1,0.1,0.2,0.1,0.3,0.1c0.1,0,0.2,0,0.3-0.1l2.5-2.5
	C8.7,7.1,8.8,7,8.8,6.9c0-0.1,0-0.2-0.1-0.3L6.2,4C6.1,3.9,6,3.9,5.9,3.9c-0.1,0-0.2,0-0.3,0.1c-0.2,0.2-0.2,0.5,0,0.7l1.7,1.7h-6
	C1,6.4,0.8,6.6,0.8,6.9S1,7.4,1.2,7.4"/>
</svg>
