<?xml version="1.0" encoding="utf-8"?>
<!-- Generator: Adobe Illustrator 15.0.2, SVG Export Plug-In . SVG Version: 6.00 Build 0)  -->
<!DOCTYPE svg PUBLIC "-//W3C//DTD SVG 1.1//EN" "http://www.w3.org/Graphics/SVG/1.1/DTD/svg11.dtd">
<svg version="1.1" id="Layer_1" xmlns="http://www.w3.org/2000/svg" xmlns:xlink="http://www.w3.org/1999/xlink" x="0px" y="0px"
	 width="50px" height="50px" viewBox="0 0 50 50" enable-background="new 0 0 50 50" xml:space="preserve">
<path d="M28.551,28.311c0.911,0.975,0.129,3.119-1.756,1.391c0.604,1.312-0.485,2.637-1.958,0.791
	c0.271,1.562-0.62,1.846-1.349,1.559c-0.291-0.113-0.918-0.764-0.918-0.764s0.285,0.979-0.525,1.145
	c-0.461,0.094-1.096-0.463-1.373-0.691c-1.133-0.934-2.09-2.732-3.164-3.496c-0.158,0-0.971-0.088-1.129-0.088
	c-0.16-0.193-0.742-0.941-0.742-2.797c0-1.837,0.643-2.936,0.742-3.094c0.156-0.016,1.49,0.035,1.584-0.041
	c1.008-0.418,1.748-3.053,3.436-1.442c-0.068,0.153-2.314,1.797-2.428,2.586c-0.08,0.577,1.152,2.058,1.676,2.095
	c0.609,0.042,2.752-1.466,3.503-1.871C25.239,24.55,28.205,27.941,28.551,28.311z M20.855,22.273
	c-0.258,0.259-0.943,0.759-0.955,1.115c-0.012,0.417,0.602,1.105,0.955,1.114c0.236,0.006,0.656-0.289,0.916-0.438
	c0.947-0.544,1.613-1.07,2.588-1.473c1.237,1.133,2.475,2.541,3.662,3.861c0.321,0.357,0.866,1.134,1.273,1.235
	c0.465,0.111,2.216,0.02,2.502,0c0.057-0.176,0.543-1.135,0.543-2.518c0-1.908-0.42-2.411-0.543-2.704
	c-0.998,0.05-2.455-0.264-3.137-0.668c-0.983-0.586-1.809-1.119-2.787-1.672c-0.477-0.271-1.28-0.869-1.673-0.639
	C23.085,20.147,21.851,21.278,20.855,22.273z M23.986,13.095c6.857,0,12.431,5.574,12.431,12.427
	c0,6.853-5.575,12.429-12.431,12.429c-6.854,0-12.428-5.574-12.428-12.429C11.558,18.669,17.132,13.095,23.986,13.095z
	 M23.986,13.843c-6.439,0-11.678,5.238-11.678,11.677c0,6.442,5.24,11.679,11.678,11.679c6.443,0,11.681-5.236,11.681-11.679
	C35.667,19.082,30.428,13.843,23.986,13.843z"/>
</svg>
