<?xml version="1.0" encoding="utf-8"?>
<!-- Generator: Adobe Illustrator 15.0.2, SVG Export Plug-In . SVG Version: 6.00 Build 0)  -->
<!DOCTYPE svg PUBLIC "-//W3C//DTD SVG 1.1//EN" "http://www.w3.org/Graphics/SVG/1.1/DTD/svg11.dtd">
<svg version="1.1" id="Layer_1" xmlns="http://www.w3.org/2000/svg" xmlns:xlink="http://www.w3.org/1999/xlink" x="0px" y="0px"
	 width="50px" height="50px" viewBox="0 0 50 50" enable-background="new 0 0 50 50" xml:space="preserve">
<path d="M30.436,27.983c0,0.499-0.651,0.499-0.651,0.499h-0.188c-0.65,0-0.65-0.499-0.65-0.499v-5.284
	c0-0.498,0.65-0.498,0.65-0.498h0.188c0.651,0,0.651,0.498,0.651,0.498V27.983z M28.524,26.807c0,0.868-0.867,0.868-0.867,0.868
	h-8.031c-0.868,0-0.868-0.868-0.868-0.868V24.06c0-0.868,0.868-0.868,0.868-0.868h8.031c0.867,0,0.867,0.868,0.867,0.868V26.807z
	 M22.476,22.12c0,0.651-0.697,0.651-0.697,0.651h-2.324c-0.696,0-0.696-0.651-0.696-0.651v-0.24c0-0.65,0.696-0.65,0.696-0.65h2.324
	c0.697,0,0.697,0.65,0.697,0.65V22.12z M18.311,27.831c0,0.651-0.651,0.651-0.651,0.651h-0.188c-0.65,0-0.65-0.651-0.65-0.651
	v-6.903c0-0.651,0.65-0.651,0.65-0.651h0.188c0.651,0,0.651,0.651,0.651,0.651V27.831z M23.628,36.807
	c-6.853,0-12.428-5.574-12.428-12.427c0-6.853,5.575-12.429,12.428-12.429c6.854,0,12.429,5.576,12.429,12.429
	C36.057,31.232,30.481,36.807,23.628,36.807z M23.628,12.701c-6.439,0-11.678,5.239-11.678,11.679
	c0,6.438,5.239,11.677,11.678,11.677c6.439,0,11.679-5.238,11.679-11.677C35.307,17.94,30.067,12.701,23.628,12.701z"/>
</svg>
