<?xml version="1.0" encoding="utf-8"?>
<!-- Generator: Adobe Illustrator 15.0.2, SVG Export Plug-In . SVG Version: 6.00 Build 0)  -->
<!DOCTYPE svg PUBLIC "-//W3C//DTD SVG 1.1//EN" "http://www.w3.org/Graphics/SVG/1.1/DTD/svg11.dtd">
<svg version="1.1" id="Layer_1" xmlns="http://www.w3.org/2000/svg" xmlns:xlink="http://www.w3.org/1999/xlink" x="0px" y="0px"
	 width="50px" height="50px" viewBox="0 0 50 50" enable-background="new 0 0 50 50" xml:space="preserve">
<path fill="#010101" d="M27.575,27.699c-0.854,0.6-1.853,0.898-2.874,0.885c-0.135,0-0.269-0.008-0.4-0.02
	c-0.055-0.006-0.109-0.015-0.163-0.021c-0.104-0.014-0.208-0.027-0.311-0.047c-0.062-0.012-0.124-0.027-0.186-0.043
	c-0.099-0.023-0.198-0.047-0.296-0.074c-0.046-0.016-0.092-0.031-0.14-0.047c-0.111-0.037-0.223-0.076-0.332-0.121
	c-0.023-0.012-0.048-0.023-0.072-0.033c-0.127-0.057-0.252-0.115-0.374-0.18c-0.005-0.004-0.01-0.008-0.017-0.01
	c-0.41-0.228-0.787-0.508-1.115-0.836c-0.007-0.006-0.012-0.012-0.017-0.019c-0.102-0.104-0.2-0.211-0.293-0.321
	c-0.02-0.025-0.039-0.052-0.058-0.074c-0.671-0.84-1.076-1.902-1.076-3.056h1.292l-2.066-3.101l-2.066,3.101h1.292
	c0,1.357,0.423,2.617,1.143,3.658c0.009,0.014,0.016,0.029,0.025,0.045c0.074,0.105,0.157,0.205,0.237,0.305
	c0.029,0.039,0.058,0.078,0.089,0.115c0.117,0.144,0.241,0.277,0.371,0.408c0.012,0.014,0.023,0.025,0.035,0.039
	c0.433,0.432,0.92,0.795,1.45,1.086c0.016,0.01,0.029,0.018,0.043,0.025c0.153,0.082,0.311,0.156,0.471,0.227
	c0.04,0.018,0.078,0.037,0.118,0.053c0.138,0.058,0.276,0.107,0.417,0.154c0.067,0.021,0.134,0.045,0.201,0.064
	c0.123,0.037,0.249,0.068,0.376,0.098c0.085,0.02,0.168,0.041,0.254,0.059c0.035,0.006,0.069,0.019,0.105,0.023
	c0.119,0.021,0.239,0.031,0.358,0.047c0.045,0.006,0.087,0.014,0.131,0.018c0.215,0.021,0.43,0.035,0.644,0.035
	c1.313,0,2.592-0.402,3.692-1.172c0.35-0.244,0.436-0.729,0.189-1.078C28.408,27.539,27.926,27.453,27.575,27.699 M31.218,23.681
	c-0.001-1.354-0.422-2.611-1.138-3.649c-0.012-0.019-0.018-0.036-0.029-0.054c-0.089-0.127-0.188-0.244-0.281-0.363
	c-0.013-0.014-0.021-0.029-0.035-0.045c-0.653-0.795-1.478-1.408-2.408-1.811c-0.026-0.011-0.053-0.023-0.077-0.033
	c-0.149-0.062-0.302-0.117-0.455-0.168c-0.056-0.018-0.11-0.037-0.166-0.055c-0.133-0.04-0.271-0.072-0.405-0.104
	c-0.076-0.019-0.15-0.037-0.228-0.053c-0.037-0.007-0.073-0.019-0.111-0.024c-0.103-0.019-0.204-0.026-0.306-0.039
	c-0.071-0.009-0.142-0.021-0.213-0.027c-0.171-0.016-0.342-0.022-0.512-0.026c-0.031,0-0.061-0.004-0.092-0.004
	c-0.006,0-0.011,0.002-0.016,0.002c-1.312,0.002-2.591,0.397-3.688,1.166c-0.351,0.244-0.436,0.728-0.189,1.078
	c0.244,0.352,0.728,0.437,1.078,0.19c0.848-0.593,1.836-0.894,2.851-0.886c0.146,0.002,0.29,0.01,0.432,0.022
	c0.043,0.005,0.086,0.011,0.13,0.017c0.116,0.015,0.232,0.031,0.347,0.054c0.05,0.01,0.101,0.022,0.147,0.034
	c0.112,0.025,0.226,0.052,0.334,0.085c0.033,0.011,0.067,0.022,0.104,0.034c0.125,0.041,0.248,0.084,0.367,0.136
	c0.013,0.005,0.023,0.011,0.037,0.016c0.722,0.312,1.354,0.789,1.85,1.388c0.003,0.004,0.006,0.008,0.01,0.012
	c0.695,0.847,1.114,1.929,1.114,3.107h-1.292l2.066,3.098l2.065-3.098H31.218z M24.759,11.255c-6.854,0-12.428,5.576-12.428,12.429
	s5.572,12.427,12.428,12.427c6.854,0,12.431-5.574,12.431-12.427C37.188,16.832,31.611,11.255,24.759,11.255z M24.759,35.361
	c-6.441,0-11.678-5.238-11.678-11.677s5.238-11.679,11.678-11.679c6.441,0,11.681,5.24,11.681,11.679
	C36.438,30.123,31.198,35.361,24.759,35.361z"/>
</svg>
