<?xml version="1.0" encoding="utf-8"?>
<!-- Generator: Adobe Illustrator 15.0.2, SVG Export Plug-In . SVG Version: 6.00 Build 0)  -->
<!DOCTYPE svg PUBLIC "-//W3C//DTD SVG 1.1//EN" "http://www.w3.org/Graphics/SVG/1.1/DTD/svg11.dtd">
<svg version="1.1" id="Layer_1" xmlns="http://www.w3.org/2000/svg" xmlns:xlink="http://www.w3.org/1999/xlink" x="0px" y="0px"
	 width="50px" height="50px" viewBox="0 0 50 50" enable-background="new 0 0 50 50" xml:space="preserve">
<path fill="#231F20" d="M37.662,24.208c0,6.853-5.576,12.427-12.429,12.427s-12.428-5.574-12.428-12.427
	c0-6.853,5.575-12.429,12.428-12.429S37.662,17.354,37.662,24.208z M36.912,24.208c0-6.439-5.238-11.679-11.679-11.679
	c-6.439,0-11.678,5.239-11.678,11.679c0,6.44,5.239,11.677,11.678,11.677S36.912,30.646,36.912,24.208z M26.762,19.686
	c0.006-0.042,0.01-0.085,0.01-0.128c0-0.607-0.494-1.102-1.103-1.102h-0.866c-0.608,0-1.102,0.495-1.102,1.102
	c0,0.043,0.004,0.086,0.008,0.128c-1.554,0.552-2.66,1.923-2.682,3.534c0,0.005-0.001,0.007-0.001,0.013
	c0,1.229,0.481,5.674,0.681,6.193c0.158,0.41,0.411,0.531,1.046,0.531h4.965c0.636,0,0.89-0.121,1.048-0.531
	c0.197-0.52,0.68-4.964,0.68-6.193c0-0.005-0.002-0.008-0.002-0.013C29.423,21.609,28.314,20.238,26.762,19.686 M24.803,18.9h0.866
	c0.36,0,0.654,0.293,0.656,0.654c-0.349-0.084-0.712-0.13-1.089-0.13c-0.376,0-0.742,0.046-1.09,0.13
	C24.147,19.193,24.441,18.9,24.803,18.9 M28.348,26.961h-0.225l0.139,0.952c0,0.198-0.16,0.358-0.357,0.358
	c-0.196,0-0.355-0.16-0.355-0.358l0.141-0.952h-5.562c-0.124,0-0.224-0.1-0.224-0.225c0-0.119,0.1-0.221,0.224-0.221h6.221
	c0.123,0,0.223,0.102,0.223,0.221C28.568,26.861,28.471,26.961,28.348,26.961 M31.527,19.665c-0.416,0.106-1.1,0.521-2.068,1.873
	c-0.325-0.673-0.833-1.256-1.467-1.695c0.431-0.495,0.835-0.88,1.041-1.021c0.135-0.091,0.365-0.163,0.554-0.157L31.527,19.665
	 M22.479,19.843c-0.633,0.439-1.143,1.022-1.467,1.695c-0.971-1.352-1.651-1.766-2.069-1.873l1.942-1
	c0.188-0.007,0.419,0.067,0.554,0.158C21.646,18.963,22.05,19.348,22.479,19.843 M20.164,21.239
	c-0.116,1.042-0.108,2.482,0.609,4.305c0.067,0.722,0.15,1.492,0.235,2.17c-1.34-1.649-2.695-3.974-2.249-7.521
	C18.992,20.236,19.518,20.455,20.164,21.239 M31.734,20.139c0.447,3.547-0.932,5.925-2.271,7.577c0.085-0.68,0.168-1.45,0.238-2.171
	c0.715-1.823,0.744-3.315,0.629-4.359C30.979,20.402,31.502,20.182,31.734,20.139"/>
</svg>
