<?xml version="1.0" encoding="utf-8"?>
<!-- Generator: Adobe Illustrator 15.0.2, SVG Export Plug-In . SVG Version: 6.00 Build 0)  -->
<!DOCTYPE svg PUBLIC "-//W3C//DTD SVG 1.1//EN" "http://www.w3.org/Graphics/SVG/1.1/DTD/svg11.dtd">
<svg version="1.1" id="Layer_1" xmlns="http://www.w3.org/2000/svg" xmlns:xlink="http://www.w3.org/1999/xlink" x="0px" y="0px"
	 width="50px" height="50px" viewBox="0 0 50 50" enable-background="new 0 0 50 50" xml:space="preserve">
<path fill="#231F20" d="M30.304,28.189c0,0.585-0.475,1.062-1.062,1.062c-0.586,0-1.061-0.478-1.061-1.062
	c0-0.584,0.475-1.061,1.061-1.061C29.829,27.129,30.304,27.605,30.304,28.189z M19.983,27.129c-0.585,0-1.061,0.477-1.061,1.061
	c0,0.585,0.476,1.062,1.061,1.062c0.587,0,1.062-0.478,1.062-1.062C21.045,27.605,20.57,27.129,19.983,27.129z M32.299,22.524v4.89
	c0,0.697-0.46,0.871-0.46,0.871h-0.79H30.71c0.001-0.032,0.004-0.063,0.004-0.096c0-0.812-0.659-1.472-1.472-1.472
	c-0.814,0-1.473,0.659-1.473,1.472c0,0.032,0.003,0.063,0.005,0.096h-6.341c0-0.032,0.01-0.063,0.01-0.096
	c0-0.812-0.66-1.472-1.472-1.472c-0.815,0-1.476,0.659-1.476,1.472c0,0.032,0.008,0.063,0.01,0.096h-1.81
	c-0.049-3.545,0.505-5.697,1.63-6.125c1.122-0.429,2.516-0.284,2.516-0.284s10.208,0.11,10.809,0.095
	C32.25,21.955,32.299,22.524,32.299,22.524z M21.443,22.65c0,0-2.477-0.159-3.008,0.238c-0.434,0.324-0.995,0.98-0.965,3.829h0.406
	c0.578-1.057,1.354-1.185,3.566-1.185v-2.817V22.65z M24.733,22.61h-2.8v2.923h2.8V22.61z M28.058,22.61h-2.802v2.923h2.802V22.61z
	 M31.405,24.134c0.002-0.645,0.004-1.523,0.004-1.523h-2.798v2.923h2.798C31.409,25.533,31.399,24.964,31.405,24.134z
	 M37.101,25.553c0-6.853-5.575-12.429-12.429-12.429c-6.853,0-12.428,5.576-12.428,12.429c0,6.853,5.575,12.428,12.428,12.428
	C31.525,37.98,37.101,32.405,37.101,25.553z M36.351,25.553c0,6.439-5.239,11.678-11.679,11.678
	c-6.439,0-11.678-5.238-11.678-11.678s5.239-11.679,11.678-11.679C31.111,13.874,36.351,19.113,36.351,25.553z"/>
</svg>
