<?xml version="1.0" encoding="utf-8"?>
<!-- Generator: Adobe Illustrator 15.0.2, SVG Export Plug-In . SVG Version: 6.00 Build 0)  -->
<!DOCTYPE svg PUBLIC "-//W3C//DTD SVG 1.1//EN" "http://www.w3.org/Graphics/SVG/1.1/DTD/svg11.dtd">
<svg version="1.1" id="Layer_1" xmlns="http://www.w3.org/2000/svg" xmlns:xlink="http://www.w3.org/1999/xlink" x="0px" y="0px"
	 width="50px" height="50px" viewBox="0 0 50 50" enable-background="new 0 0 50 50" xml:space="preserve">
<path fill="#231F20" d="M24.619,35.941c-6.853,0-12.428-5.575-12.428-12.427c0-6.853,5.575-12.429,12.428-12.429
	c6.854,0,12.429,5.576,12.429,12.429C37.048,30.366,31.473,35.941,24.619,35.941z M24.619,11.835
	c-6.439,0-11.678,5.239-11.678,11.679c0,6.439,5.239,11.677,11.678,11.677c6.439,0,11.679-5.238,11.679-11.677
	C36.298,17.075,31.059,11.835,24.619,11.835z M32.202,25.53l-4.712,3.938v-2.267h-4.539c-0.289,0-0.521-0.289-0.521-0.647v-1.888
	c0-0.359,0.232-0.648,0.521-0.648h4.539v-2.375L32.202,25.53z M26.426,22.468c0,0.357-0.225,0.648-0.504,0.648h-4.359v2.265
	l-4.526-3.938l4.526-3.885v2.374h4.359c0.279,0,0.504,0.291,0.504,0.648V22.468z"/>
</svg>
