<?xml version="1.0" encoding="utf-8"?>
<!-- Generator: Adobe Illustrator 18.1.1, SVG Export Plug-In . SVG Version: 6.00 Build 0)  -->
<svg version="1.1" baseProfile="tiny" id="Layer_1" xmlns="http://www.w3.org/2000/svg" xmlns:xlink="http://www.w3.org/1999/xlink"
	 x="0px" y="0px" viewBox="-280 372 50 50" xml:space="preserve">
<path fill="#231F20" d="M-241.7,396.3c0,6.9-5.6,12.4-12.4,12.4c-6.9,0-12.4-5.6-12.4-12.4c0-6.9,5.6-12.4,12.4-12.4
	C-247.3,383.8-241.7,389.4-241.7,396.3z M-242.5,396.3c0-6.4-5.2-11.7-11.7-11.7c-6.4,0-11.7,5.2-11.7,11.7s5.2,11.7,11.7,11.7
	C-247.7,408-242.5,402.7-242.5,396.3z M-261,398.7c-0.2-0.1-0.3-0.1-0.5-0.2c-0.2-0.1,0-0.3-0.2-0.5c-0.3-0.3-0.8-0.4-0.8-0.7
	c0.2-1.6,0.7-2.9,2.1-3.4c0.4,0.3,0.8,0.5,1.3,0.5c0.1,0.2,0.2,0.4,0.3,0.6C-260.3,395.7-260.8,397.3-261,398.7z M-259.2,393.9
	c0-0.1,0-0.1,0-0.2c0-1.2,0.9-2.2,2.1-2.4c-0.3-0.6-0.9-1-1.6-1c-1,0-1.8,0.8-1.8,1.8C-260.6,392.9-260,393.7-259.2,393.9z
	 M-248,394c-0.3,0.2-0.7,0.4-1.2,0.5c-0.1,0.3-0.2,0.5-0.4,0.7c1.4,0.6,2.1,1.7,2.3,3.5c0.2-0.1,0.3-0.1,0.5-0.2
	c0.2-0.1,0-0.5,0.2-0.7c0,0,0.6-0.2,0.8-0.5C-246,395.6-246.7,394.5-248,394z M-249.1,393.7C-249.1,393.8-249.1,393.8-249.1,393.7
	c0.8-0.1,1.4-0.8,1.4-1.7c0-1-0.8-1.8-1.8-1.8c-0.8,0-1.4,0.5-1.7,1.1C-250,391.5-249.1,392.5-249.1,393.7z M-254.4,392.9
	c0.1,0,0.2,0,0.2,0c0.1,0,0.2,0,0.3,0c0.2-0.7,0.8-1.3,1.5-1.5c-0.3-0.7-0.9-1.2-1.7-1.2c-0.8,0-1.4,0.5-1.7,1.2
	C-255.2,391.6-254.6,392.2-254.4,392.9z M-250.1,395.7c-0.4,0.3-0.9,0.5-1.5,0.5c-0.1,0-0.2,0-0.3,0c-0.1,0.2-0.2,0.5-0.4,0.7
	c1.4,0.6,2.2,1.8,2.4,3.7c0.4-0.1,0.8-0.2,1-0.4c0.2-0.1,0-0.5,0.2-0.7c0,0,0.6-0.2,0.8-0.5C-248,397.3-248.7,396.2-250.1,395.7z
	 M-253.3,393.1c0.9,0.4,1.6,1.3,1.6,2.3c0,0.1,0,0.1,0,0.2c0,0,0.1,0,0.1,0c1,0,1.8-0.8,1.8-1.8c0-1-0.8-1.8-1.8-1.8
	C-252.3,391.9-253,392.4-253.3,393.1z M-256.2,396.8c-0.1-0.2-0.3-0.4-0.3-0.7c-0.1,0-0.2,0-0.2,0c-0.6,0-1.1-0.2-1.5-0.5
	c-1.4,0.4-1.9,1.8-2.1,3.4c0,0.3,0.6,0.3,0.8,0.7c0.1,0.2,0,0.4,0.2,0.5c0.3,0.2,0.6,0.3,1,0.4
	C-258.2,399.1-257.7,397.4-256.2,396.8z M-258.6,393.7c0,1,0.8,1.8,1.9,1.8c0,0,0.1,0,0.1,0c0,0,0-0.1,0-0.1c0-1.1,0.7-2,1.6-2.3
	c-0.3-0.7-0.9-1.2-1.7-1.2C-257.8,391.8-258.6,392.7-258.6,393.7z M-254.2,393.5c-1,0-1.8,0.8-1.8,1.8c0,1,0.8,1.8,1.8,1.8
	c1,0,1.8-0.8,1.8-1.8C-252.3,394.4-253.1,393.5-254.2,393.5z M-252.7,397.4c-0.4,0.3-0.9,0.5-1.5,0.5c-0.6,0-1.1-0.2-1.5-0.5
	c-1.4,0.4-1.9,1.8-2.1,3.4c0,0.3,0.6,0.3,0.8,0.7c0.1,0.2,0,0.4,0.2,0.5c0.6,0.4,1.6,0.5,2.6,0.5c1.1,0,2.3-0.2,2.8-0.5
	c0.2-0.1,0-0.5,0.2-0.7c0,0,0.6-0.2,0.8-0.5C-250.6,398.9-251.3,397.8-252.7,397.4z"/>
</svg>
