<?xml version="1.0" encoding="utf-8"?>
<!-- Generator: Adobe Illustrator 19.0.0, SVG Export Plug-In . SVG Version: 6.00 Build 0)  -->
<svg version="1.1" id="Layer_1" xmlns="http://www.w3.org/2000/svg" xmlns:xlink="http://www.w3.org/1999/xlink" x="0px" y="0px"
	 viewBox="-730 1020 50 50" style="enable-background:new -730 1020 50 50;" xml:space="preserve">
<path d="M-705.5,1034.2c-6.9,0-12.4,5.6-12.4,12.4s5.6,12.4,12.4,12.4c6.9,0,12.4-5.6,12.4-12.4
	C-693,1039.8-698.6,1034.2-705.5,1034.2z M-705.5,1058.3c-6.4,0-11.7-5.2-11.7-11.7c0-6.4,5.2-11.7,11.7-11.7
	c6.4,0,11.7,5.2,11.7,11.7C-693.8,1053.1-699,1058.3-705.5,1058.3z M-697.7,1046.6l-5.3-1.6v-2.3l-6.6-0.9v6.7l6.4-1v1.5l5.5-2.2
	C-697.6,1046.8-697.6,1046.6-697.7,1046.6z M-711.8,1041.8h1.2v10.3h-1.2V1041.8z"/>
</svg>
