<?xml version="1.0" encoding="utf-8"?>
<!-- Generator: Adobe Illustrator 19.0.0, SVG Export Plug-In . SVG Version: 6.00 Build 0)  -->
<svg version="1.1" id="Layer_1" xmlns="http://www.w3.org/2000/svg" xmlns:xlink="http://www.w3.org/1999/xlink" x="0px" y="0px"
	 viewBox="-730 1020 50 50" style="enable-background:new -730 1020 50 50;" xml:space="preserve">
<path d="M-706.2,1031.9c-6.9,0-12.4,5.6-12.4,12.4s5.6,12.4,12.4,12.4c6.9,0,12.4-5.6,12.4-12.4
	C-693.8,1037.5-699.4,1031.9-706.2,1031.9z M-706.2,1056c-6.4,0-11.7-5.2-11.7-11.7c0-6.4,5.2-11.7,11.7-11.7
	c6.4,0,11.7,5.2,11.7,11.7C-694.5,1050.8-699.8,1056-706.2,1056z M-710.9,1038.8v9.5l4.7,2.8l4.7-2.8v-9.5H-710.9z M-704.7,1045.9
	l-1.5-0.8l-1.5,0.8l0.3-1.7l-1.2-1.2l1.7-0.2l0.7-1.5l0.7,1.5l1.7,0.2l-1.2,1.2L-704.7,1045.9z"/>
</svg>
