<?xml version="1.0" encoding="utf-8"?>
<!-- Generator: Adobe Illustrator 15.0.2, SVG Export Plug-In . SVG Version: 6.00 Build 0)  -->
<!DOCTYPE svg PUBLIC "-//W3C//DTD SVG 1.1//EN" "http://www.w3.org/Graphics/SVG/1.1/DTD/svg11.dtd">
<svg version="1.1" id="Layer_1" xmlns="http://www.w3.org/2000/svg" xmlns:xlink="http://www.w3.org/1999/xlink" x="0px" y="0px"
	 width="50px" height="50px" viewBox="0 0 50 50" enable-background="new 0 0 50 50" xml:space="preserve">
<path fill="#231F20" d="M24.189,36.062c-6.853,0-12.428-5.574-12.428-12.427c0-6.853,5.575-12.429,12.428-12.429
	c6.854,0,12.429,5.576,12.429,12.429C36.618,30.488,31.043,36.062,24.189,36.062z M24.189,11.957
	c-6.439,0-11.678,5.239-11.678,11.679c0,6.438,5.239,11.677,11.678,11.677c6.439,0,11.679-5.238,11.679-11.677
	C35.868,17.196,30.629,11.957,24.189,11.957z M18.968,24.387c0-0.142-0.115-0.258-0.258-0.258h-0.597
	c-0.143,0-0.259,0.116-0.259,0.258v0.643c0,0.142,0.116,0.258,0.259,0.258h0.597c0.143,0,0.258-0.117,0.258-0.258V24.387z
	 M18.215,25.164l-0.642,4.049c0,0,0.204-0.117,0.325-0.134c0.059-0.008,0.026,0.265,0.081,0.282
	c0.157,0.053,0.242-0.209,0.427-0.209c0.111,0,0.235,0.266,0.352,0.237c0.115-0.028,0.149-0.165,0.189-0.254
	s0.358,0.056,0.358,0.056l-0.687-4.027H18.215z M18.321,24.239l0.195-0.021c-0.199-1.841,0.753-2.348,0.761-2.353l-0.099-0.17
	C19.141,21.717,18.106,22.259,18.321,24.239L18.321,24.239z M24.327,24.655c-0.031,0-0.064-0.006-0.094-0.018l-3.912-1.531
	l-0.447,3.967c0,0,1.767-1.089,2.273-1.089c0.508,0,2.029,1.331,2.029,1.331s1.616-1.181,2.292-1.181
	c0.677,0,1.897,0.938,1.897,0.938l-0.181-3.874l-3.766,1.438C24.39,24.649,24.358,24.655,24.327,24.655z M24.323,18.878
	l-7.138,2.335l4.365,1.82l2.777,0.962l2.849-0.962l4.018-1.82L24.323,18.878z"/>
</svg>
