<?xml version="1.0" encoding="utf-8"?>
<!-- Generator: Adobe Illustrator 15.0.2, SVG Export Plug-In . SVG Version: 6.00 Build 0)  -->
<!DOCTYPE svg PUBLIC "-//W3C//DTD SVG 1.1//EN" "http://www.w3.org/Graphics/SVG/1.1/DTD/svg11.dtd">
<svg version="1.1" id="Layer_1" xmlns="http://www.w3.org/2000/svg" xmlns:xlink="http://www.w3.org/1999/xlink" x="0px" y="0px"
	 width="50px" height="50px" viewBox="0 0 50 50" enable-background="new 0 0 50 50" xml:space="preserve">
<path fill="#231F20" d="M30.329,20.181c0.315,0.368,0.437,0.861,0.313,1.235c-0.149,0.459-0.523,0.701-0.865,0.82
	c-0.521,0.183-1.359,0.03-1.661,0.831c-0.312,0.833,1.13,1.355,1.695,1.943c-0.336,0.364-0.672,0.85-1.055,1.326
	c-0.599,0.742-1.479,1.621-2.089,0.605c-0.364-0.605-0.031-1.637-1.079-2.044c-0.94-0.364-2.22,0.876-1.91,1.865
	c0.148,0.469,0.656,0.824,1.057,0.965c0.363,0.129,0.822,0.018,1.157,0.416c0.238,0.285,0.214,0.717,0.067,1.012
	c-0.385,0.764-1.603,1.416-2.18,1.91c-1.788-1.791-3.579-3.58-5.368-5.369c0.402-0.278,0.778-0.547,1.213-0.899
	c0.421-0.342,0.885-0.73,1.033-1.146c0.102-0.286,0.078-0.697-0.213-0.956c-0.309-0.271-0.7-0.204-1.078-0.336
	c-0.393-0.138-0.861-0.462-1.034-0.921c-0.362-0.964,0.953-2.332,1.921-1.898c0.382,0.17,0.65,0.518,0.764,0.854
	c0.135,0.393,0.07,0.816,0.258,1.157c0.346,0.625,0.945,0.572,1.382,0.213c0.675-0.555,1.175-1.476,1.764-2.1
	c0.482,0.546,1.007,1.461,1.685,2.022c0.358,0.296,0.959,0.407,1.325,0.044c0.289-0.286,0.249-0.735,0.349-1.045
	c0.178-0.557,0.661-1.155,1.28-1.168C29.523,19.508,30.011,19.81,30.329,20.181z M36.909,24.761c0,6.852-5.575,12.426-12.429,12.426
	c-6.853,0-12.428-5.574-12.428-12.426c0-6.853,5.575-12.429,12.428-12.429C31.334,12.333,36.909,17.908,36.909,24.761z
	 M36.159,24.761c0-6.439-5.239-11.679-11.679-11.679c-6.439,0-11.678,5.239-11.678,11.679c0,6.438,5.239,11.676,11.678,11.676
	C30.92,36.438,36.159,31.199,36.159,24.761z"/>
</svg>
