<?xml version="1.0" encoding="utf-8"?>
<!-- Generator: Adobe Illustrator 15.0.2, SVG Export Plug-In . SVG Version: 6.00 Build 0)  -->
<!DOCTYPE svg PUBLIC "-//W3C//DTD SVG 1.1//EN" "http://www.w3.org/Graphics/SVG/1.1/DTD/svg11.dtd">
<svg version="1.1" id="Layer_1" xmlns="http://www.w3.org/2000/svg" xmlns:xlink="http://www.w3.org/1999/xlink" x="0px" y="0px"
	 width="50px" height="50px" viewBox="0 0 50 50" enable-background="new 0 0 50 50" xml:space="preserve">
<path fill="#231F20" d="M28.002,23.968c-0.398-0.305-1.175-0.658-2.328-1.059v-2.785c0.48,0.035,0.812,0.225,0.996,0.57
	c0.105,0.201,0.176,0.518,0.215,0.951h1.922c-0.027-1.17-0.451-2.016-1.271-2.535c-0.451-0.328-1.07-0.521-1.861-0.586l-0.002-0.986
	h-0.709v0.973c-0.496,0.039-0.873,0.1-1.132,0.182c-0.423,0.133-0.808,0.371-1.153,0.717c-0.269,0.268-0.478,0.586-0.625,0.957
	c-0.148,0.371-0.223,0.781-0.223,1.234c0,0.688,0.191,1.273,0.573,1.762c0.382,0.486,1.039,0.867,1.968,1.141l0.592,0.174V27.8
	c-0.555-0.098-0.927-0.309-1.117-0.637c-0.121-0.209-0.217-0.619-0.285-1.233h-1.973c-0.014,1.35,0.395,2.303,1.229,2.862
	c0.472,0.312,1.188,0.521,2.146,0.629v1.455h0.711v-1.472c0.755-0.059,1.407-0.258,1.957-0.598c0.9-0.555,1.353-1.447,1.353-2.674
	C28.982,25.203,28.654,24.48,28.002,23.968 M24.963,22.705c-0.354-0.111-0.617-0.232-0.787-0.365
	c-0.309-0.238-0.461-0.562-0.461-0.973c0-0.375,0.103-0.67,0.308-0.887c0.204-0.217,0.518-0.33,0.94-0.34V22.705z M26.504,27.512
	c-0.174,0.127-0.451,0.217-0.83,0.266V24.92c0.403,0.15,0.691,0.297,0.858,0.438c0.284,0.246,0.427,0.576,0.427,0.996
	C26.959,26.9,26.807,27.289,26.504,27.512 M25.283,11.778c-6.854,0-12.428,5.577-12.428,12.428c0,6.854,5.572,12.428,12.428,12.428
	c6.854,0,12.43-5.573,12.43-12.428C37.713,17.355,32.137,11.778,25.283,11.778z M25.283,35.885c-6.441,0-11.678-5.236-11.678-11.678
	c0-6.439,5.238-11.678,11.678-11.678c6.441,0,11.68,5.241,11.68,11.678C36.963,30.646,31.723,35.885,25.283,35.885z"/>
</svg>
