<?xml version="1.0" encoding="utf-8"?>
<!-- Generator: Adobe Illustrator 18.1.1, SVG Export Plug-In . SVG Version: 6.00 Build 0)  -->
<svg version="1.1" id="Layer_1" xmlns="http://www.w3.org/2000/svg" xmlns:xlink="http://www.w3.org/1999/xlink" x="0px" y="0px"
	 viewBox="0 0 612 792" enable-background="new 0 0 612 792" xml:space="preserve">
<path fill="#231F20" d="M306,547.8c-84.5,0-151.8-68.5-151.8-151.8S222.8,244.2,306,244.2c84.5,0,151.8,68.5,151.8,151.8
	S389.2,547.8,306,547.8z M306,252.8c-78.3,0-143.2,63.6-143.2,143.2c0,78.3,63.6,143.2,143.2,143.2S449.2,475.6,449.2,396
	C448,317.7,384.3,252.8,306,252.8z M380.1,337.9l-16-16c-6.8-6.8-17.1-6.8-22.8,0L230.7,432.5c-6.8,6.8-6.8,17.1,0,22.8l16,16
	c6.8,6.8,17.1,6.8,22.8,0l110.6-110.6C386.9,353.8,386.9,343.6,380.1,337.9z M320.8,352.7c1.1-1.1,4.6-1.1,5.7,0
	c1.1,1.1,1.1,4.6,0,5.7c-1.1,1.1-4.6,1.1-5.7,0C318.5,357.2,318.5,355,320.8,352.7z M262.6,433.6c-1.1,1.1-4.6,1.1-5.7,0
	c-1.1-1.1-1.1-4.6,0-5.7c1.1-1.1,4.6-1.1,5.7,0C263.8,429.1,263.8,432.5,262.6,433.6z M262.6,416.5c-1.1-1.1-1.1-4.6,0-5.7
	c1.1-1.1,4.6-1.1,5.7,0c1.1,1.1,1.1,4.6,0,5.7C267.2,417.7,264.9,417.7,262.6,416.5z M274,445c-1.1,1.1-4.6,1.1-5.7,0
	c-1.1-1.1-1.1-4.6,0-5.7c1.1-1.1,4.6-1.1,5.7,0C275.2,440.5,275.2,443.9,274,445z M280.9,426.8c-1.1,1.1-4.6,1.1-5.7,0
	c-1.1-1.1-1.1-4.6,0-5.7c1.1-1.1,4.6-1.1,5.7,0C282,423.4,282,425.6,280.9,426.8z M291.1,438.2c-1.1,1.1-4.6,1.1-5.7,0
	c-1.1-1.1-1.1-4.6,0-5.7c1.1-1.1,4.6-1.1,5.7,0C293.4,433.6,293.4,437,291.1,438.2z M334.5,393.7l-30.8,30.8c-1.1,1.1-4.6,1.1-5.7,0
	L277.5,404c-1.1-1.1-1.1-4.6,0-5.7l30.8-30.8c1.1-1.1,4.6-1.1,5.7,0l20.5,20.5C335.6,389.2,335.6,391.4,334.5,393.7z M337.9,369.8
	c-1.1,1.1-4.6,1.1-5.7,0c-1.1-1.1-1.1-4.6,0-5.7c1.1-1.1,4.6-1.1,5.7,0C339,365.2,339,368.6,337.9,369.8z M337.9,352.7
	c-1.1-1.1-1.1-4.6,0-5.7c1.1-1.1,4.6-1.1,5.7,0c1.1,1.1,1.1,4.6,0,5.7C342.4,353.8,340.2,353.8,337.9,352.7z M348.1,381.2
	c-1.1,1.1-4.6,1.1-5.7,0c-1.1-1.1-1.1-4.6,0-5.7c1.1-1.1,4.6-1.1,5.7,0C350.4,376.6,350.4,380,348.1,381.2z M355,362.9
	c-1.1,1.1-4.6,1.1-5.7,0c-1.1-1.1-1.1-4.6,0-5.7c1.1-1.1,4.6-1.1,5.7,0C357.3,358.4,357.3,361.8,355,362.9z M349.3,400.6l-39.9,39.9
	l31.9,31.9c6.8,6.8,17.1,6.8,22.8,0l16-16c6.8-6.8,6.8-17.1,0-22.8L349.3,400.6z M326.5,439.3c-1.1,1.1-4.6,1.1-5.7,0
	c-1.1-1.1-1.1-4.6,0-5.7c1.1-1.1,4.6-1.1,5.7,0C327.6,434.8,327.6,437,326.5,439.3z M331,427.9c-1.1-1.1-1.1-4.6,0-5.7
	c1.1-1.1,4.6-1.1,5.7,0c1.1,1.1,1.1,4.6,0,5.7C335.6,430.2,333.3,430.2,331,427.9z M344.7,446.2c-1.1,1.1-4.6,1.1-5.7,0
	c-1.1-1.1-1.1-4.6,0-5.7c1.1-1.1,4.6-1.1,5.7,0C345.9,441.6,345.9,443.9,344.7,446.2z M342.4,416.5c-1.1-1.1-1.1-4.6,0-5.7
	c1.1-1.1,4.6-1.1,5.7,0c1.1,1.1,1.1,4.6,0,5.7C347,418.8,344.7,418.8,342.4,416.5z M355,434.8c-1.1,1.1-4.6,1.1-5.7,0
	c-1.1-1.1-1.1-4.6,0-5.7c1.1-1.1,4.6-1.1,5.7,0C357.3,430.2,357.3,433.6,355,434.8z M261.5,391.4l39.9-39.9l-31.9-31.9
	c-6.8-6.8-17.1-6.8-22.8,0l-16,16c-6.8,6.8-6.8,17.1,0,22.8L261.5,391.4z M285.4,353.8c1.1-1.1,4.6-1.1,5.7,0c1.1,1.1,1.1,4.6,0,5.7
	c-1.1,1.1-4.6,1.1-5.7,0C284.3,358.4,284.3,355,285.4,353.8z M280.9,365.2c1.1,1.1,1.1,4.6,0,5.7c-1.1,1.1-4.6,1.1-5.7,0
	c-1.1-1.1-1.1-4.6,0-5.7C276.3,362.9,278.6,362.9,280.9,365.2z M267.2,347c1.1-1.1,4.6-1.1,5.7,0c1.1,1.1,1.1,4.6,0,5.7
	c-1.1,1.1-4.6,1.1-5.7,0C266.1,351.5,266.1,348.1,267.2,347z M269.5,375.5c1.1,1.1,1.1,4.6,0,5.7c-1.1,1.1-4.6,1.1-5.7,0
	c-1.1-1.1-1.1-4.6,0-5.7C264.9,374.3,267.2,374.3,269.5,375.5z M256.9,358.4c1.1-1.1,4.6-1.1,5.7,0c1.1,1.1,1.1,4.6,0,5.7
	c-1.1,1.1-4.6,1.1-5.7,0C255.8,362.9,254.7,359.5,256.9,358.4z"/>
</svg>
