<?xml version="1.0" encoding="utf-8"?>
<!-- Generator: Adobe Illustrator 15.0.2, SVG Export Plug-In . SVG Version: 6.00 Build 0)  -->
<!DOCTYPE svg PUBLIC "-//W3C//DTD SVG 1.1//EN" "http://www.w3.org/Graphics/SVG/1.1/DTD/svg11.dtd">
<svg version="1.1" id="Layer_1" xmlns="http://www.w3.org/2000/svg" xmlns:xlink="http://www.w3.org/1999/xlink" x="0px" y="0px"
	 width="50px" height="50px" viewBox="0 0 50 50" enable-background="new 0 0 50 50" xml:space="preserve">
<path fill="#231F20" d="M24.289,36.651c-6.853,0-12.428-5.575-12.428-12.428c0-6.853,5.575-12.429,12.428-12.429
	c6.854,0,12.429,5.576,12.429,12.429C36.718,31.076,31.143,36.651,24.289,36.651z M24.289,12.545
	c-6.439,0-11.678,5.239-11.678,11.679s5.239,11.678,11.678,11.678c6.439,0,11.679-5.238,11.679-11.678S30.729,12.545,24.289,12.545z
	 M20.547,25.356l2.61,2.609l4.788-4.787l-2.609-2.61L20.547,25.356z M30.979,21.771l-1.11-1.109
	c-0.211,0.115-0.454,0.181-0.712,0.181c-0.821,0-1.487-0.666-1.487-1.487c0-0.258,0.066-0.5,0.182-0.712l-1.11-1.11
	c-0.289-0.289-0.762-0.289-1.052,0l-8.089,8.09c-0.289,0.288-0.289,0.762,0,1.051l1.11,1.11c0.211-0.114,0.454-0.18,0.712-0.18
	c0.821,0,1.487,0.665,1.487,1.486c0,0.258-0.066,0.5-0.182,0.712l1.11,1.109c0.289,0.29,0.762,0.29,1.053,0l8.088-8.088
	C31.269,22.534,31.269,22.062,30.979,21.771z M23.157,29.159l-3.804-3.803l5.982-5.981l3.803,3.804L23.157,29.159z"/>
</svg>
