<?xml version="1.0" encoding="utf-8"?>
<!-- Generator: Adobe Illustrator 15.0.2, SVG Export Plug-In . SVG Version: 6.00 Build 0)  -->
<!DOCTYPE svg PUBLIC "-//W3C//DTD SVG 1.1//EN" "http://www.w3.org/Graphics/SVG/1.1/DTD/svg11.dtd">
<svg version="1.1" id="Layer_1" xmlns="http://www.w3.org/2000/svg" xmlns:xlink="http://www.w3.org/1999/xlink" x="0px" y="0px"
	 width="50px" height="50px" viewBox="0 0 50 50" enable-background="new 0 0 50 50" xml:space="preserve">
<path fill="#231F20" d="M23.334,37.057c-6.853,0-12.428-5.575-12.428-12.428c0-6.853,5.575-12.428,12.428-12.428
	s12.428,5.575,12.428,12.428C35.762,31.481,30.187,37.057,23.334,37.057z M23.334,12.951c-6.439,0-11.678,5.239-11.678,11.678
	s5.239,11.678,11.678,11.678c6.439,0,11.678-5.238,11.678-11.678S29.773,12.951,23.334,12.951z M25.189,29.628v0.453
	c0,0.168-0.137,0.305-0.305,0.305h-3.229c-0.168,0-0.305-0.137-0.305-0.305v-0.453c0-0.169,0.137-0.306,0.305-0.306h3.229
	C25.053,29.322,25.189,29.459,25.189,29.628z M24.885,27.986h-3.229c-0.168,0-0.305,0.138-0.305,0.305v0.453
	c0,0.17,0.137,0.305,0.305,0.305h3.229c0.169,0,0.305-0.135,0.305-0.305v-0.453C25.189,28.124,25.053,27.986,24.885,27.986z
	 M23.895,30.675h-1.248c-0.168,0-0.305,0.137-0.305,0.305l0.156,0.203c0,0.169,0.137,0.305,0.305,0.305h0.936
	c0.168,0,0.305-0.137,0.305-0.305l0.155-0.203C24.199,30.812,24.063,30.675,23.895,30.675z M27.139,23.542
	c0,0.267-0.027,0.528-0.078,0.78c-0.052,0.252-0.127,0.495-0.226,0.725c-0.144,0.353-0.339,0.674-0.589,0.971
	c-0.37,0.441-0.713,0.879-1.065,1.305h-3.878c-0.614-0.705-1.176-1.441-1.596-2.275c-0.099-0.23-0.175-0.473-0.226-0.725
	c-0.052-0.252-0.079-0.513-0.079-0.78c0-2.136,1.732-3.869,3.868-3.869C25.407,19.673,27.139,21.406,27.139,23.542z M22.982,20.836
	c0.01-0.13-0.281-0.316-0.759-0.279c-0.466,0.029-1.12,0.28-1.558,0.867c-0.458,0.571-0.538,1.267-0.449,1.725
	c0.085,0.473,0.337,0.708,0.461,0.666c0.145-0.042,0.188-0.32,0.291-0.652c0.1-0.337,0.258-0.729,0.537-1.087
	c0.276-0.36,0.615-0.612,0.918-0.792C22.72,21.098,22.978,20.987,22.982,20.836z M28.923,19.112l-0.242-0.241
	c-0.089-0.089-0.219-0.105-0.289-0.034l-1.354,1.354c-0.07,0.071-0.056,0.201,0.034,0.29l0.241,0.242
	c0.09,0.09,0.22,0.105,0.29,0.034l1.354-1.354C29.027,19.332,29.013,19.202,28.923,19.112z M19.629,20.19l-1.354-1.354
	c-0.071-0.07-0.2-0.055-0.29,0.034l-0.241,0.242c-0.09,0.09-0.104,0.22-0.034,0.29l1.354,1.354c0.07,0.071,0.2,0.056,0.29-0.034
	l0.241-0.242C19.685,20.392,19.699,20.262,19.629,20.19z M23.007,18.766h0.342c0.126,0,0.229-0.077,0.229-0.171v-1.819
	c0-0.095-0.103-0.172-0.229-0.172h-0.342c-0.127,0-0.229,0.078-0.229,0.172v1.818C22.777,18.689,22.88,18.766,23.007,18.766z"/>
</svg>
