<?xml version="1.0" encoding="utf-8"?>
<!-- Generator: Adobe Illustrator 15.0.2, SVG Export Plug-In . SVG Version: 6.00 Build 0)  -->
<!DOCTYPE svg PUBLIC "-//W3C//DTD SVG 1.1//EN" "http://www.w3.org/Graphics/SVG/1.1/DTD/svg11.dtd">
<svg version="1.1" id="Layer_1" xmlns="http://www.w3.org/2000/svg" xmlns:xlink="http://www.w3.org/1999/xlink" x="0px" y="0px"
	 width="50px" height="50px" viewBox="0 0 50 50" enable-background="new 0 0 50 50" xml:space="preserve">
<path d="M29.589,25.805c-0.013,1.031-0.659,2.122-2.019,2.251v1.79c0,0-2.519-1.678-2.657-1.766h-4.869
	c-1.098-0.014-2.273-0.732-2.273-2.275v-3.753c0.016-1.098,0.732-2.271,2.273-2.271h7.272c1.097,0.017,2.272,0.732,2.272,2.274
	V25.805z M23.679,36.574c-6.853,0-12.428-5.575-12.428-12.428c0-6.853,5.575-12.428,12.428-12.428
	c6.854,0,12.429,5.575,12.429,12.428C36.107,30.999,30.532,36.574,23.679,36.574z M23.679,12.468
	c-6.439,0-11.678,5.239-11.678,11.678s5.239,11.678,11.678,11.678c6.439,0,11.679-5.239,11.679-11.678S30.118,12.468,23.679,12.468z
	"/>
</svg>
