<?xml version="1.0" encoding="utf-8"?>
<!-- Generator: Adobe Illustrator 18.1.1, SVG Export Plug-In . SVG Version: 6.00 Build 0)  -->
<svg version="1.1" id="Layer_1" xmlns="http://www.w3.org/2000/svg" xmlns:xlink="http://www.w3.org/1999/xlink" x="0px" y="0px"
	 viewBox="-280 372 50 50" enable-background="new -280 372 50 50" xml:space="preserve">
<path fill="#231F20" d="M-255.9,409.4c-6.9,0-12.4-5.6-12.4-12.4s5.6-12.4,12.4-12.4c6.9,0,12.4,5.6,12.4,12.4
	S-249.1,409.4-255.9,409.4z M-255.9,385.3c-6.4,0-11.7,5.2-11.7,11.7c0,6.4,5.2,11.7,11.7,11.7s11.7-5.2,11.7-11.7
	C-244.2,390.6-249.5,385.3-255.9,385.3z M-254.7,398.1c-0.4,0.3-0.9,0.4-1.4,0.4c-0.5,0-1-0.2-1.4-0.5c-1.8,0.4-2.4,1.9-2.6,3.8
	c0,0.4,0.6,0.4,0.9,0.7c0.1,0.2,0,0.4,0.2,0.6c1.4,0.9,4.9,0.7,5.9,0c0.2-0.1,0-0.5,0.2-0.7c0-0.1,0.7-0.2,0.9-0.6
	C-252.2,399.8-253,398.6-254.7,398.1z M-256.1,398.1c1.1,0,2-0.9,2-2c0-1.1-0.9-2-2-2c-1.1,0-2,0.9-2,2
	C-258.2,397.2-257.2,398.1-256.1,398.1z M-253.2,396c0.9,0,1.7-0.8,1.7-1.7c0-0.9-0.8-1.7-1.7-1.7c-0.8,0-1.5,0.6-1.7,1.3
	c0.7,0.4,1.2,1.2,1.2,2C-253.5,396-253.3,396-253.2,396z M-254.7,391.4c0.1,0.1,0.3,0.3,0.4,0.4c0,0,0,0,0,0
	c0.1,0.1,0.2,0.3,0.2,0.5c0.2-0.1,0.5-0.2,0.8-0.2c0-0.1,0.1-0.2,0.1-0.3c0,0,0,0,0-0.1c0-0.1,0.1-0.2,0.1-0.3c0,0,0,0,0,0
	c0.1-0.1,0.1-0.2,0.2-0.3c0,0,0,0,0,0c0.1-0.1,0.2-0.2,0.3-0.2c-0.3-0.4-0.8-0.7-1.3-0.7c-0.6,0-1.1,0.3-1.4,0.8
	C-255.1,391.2-255,391.3-254.7,391.4C-254.8,391.4-254.8,391.4-254.7,391.4z M-258.9,392.6c-0.9,0-1.7,0.8-1.7,1.7
	c0,0.9,0.8,1.7,1.7,1.7c0.1,0,0.2,0,0.3,0c0-0.9,0.6-1.7,1.4-2.1C-257.4,393.1-258.1,392.6-258.9,392.6z M-251.1,393.9
	c0.6-0.2,1-0.7,1-1.4c0-0.8-0.7-1.5-1.5-1.5c-0.7,0-1.3,0.5-1.4,1.1C-252,392.3-251.2,393-251.1,393.9z M-257.7,392.5
	c0.2,0.2,0.4,0.3,0.6,0.6c0,0,0,0,0,0l0,0c0.1,0.2,0.2,0.4,0.3,0.6c0.2-0.1,0.5-0.1,0.7-0.1c0.3,0,0.6,0.1,0.8,0.2
	c0.1-0.5,0.4-0.9,0.8-1.2c-0.2-0.7-0.8-1.2-1.6-1.2C-256.8,391.4-257.5,391.9-257.7,392.5z M-251.9,396.1c-0.4,0.3-0.8,0.4-1.3,0.4
	c-0.1,0-0.3,0-0.4-0.1c-0.1,0.5-0.3,1-0.6,1.3c1.3,0.5,2.1,1.4,2.5,2.8c0.4-0.1,0.8-0.2,1.1-0.4c0.2-0.1,0-0.5,0.2-0.6
	c0,0,0.6-0.2,0.8-0.5C-249.9,397.5-250.6,396.5-251.9,396.1z M-250.1,393.8c-0.2,0.3-0.6,0.4-0.9,0.5c0,0.5-0.2,1-0.5,1.3
	c0.1,0,0.1,0.1,0.1,0.1c0.8,0.4,1.4,1,1.7,1.8c0.2-0.1,0.3-0.1,0.4-0.2c0.1-0.1,0-0.3,0.1-0.4c0.2-0.3,0.6-0.3,0.7-0.5
	C-248.6,395.2-249,394.2-250.1,393.8z M-258,397.7c-0.3-0.4-0.5-0.8-0.6-1.3c-0.1,0-0.2,0-0.3,0c-0.5,0-1-0.2-1.4-0.5
	c-1.5,0.3-1.9,1.6-2.2,3.2c0,0.3,0.5,0.3,0.8,0.6c0.1,0.1,0,0.4,0.2,0.5c0.3,0.2,0.7,0.3,1.1,0.4C-260,399.4-259.4,398.2-258,397.7z
	 M-261,393.8c0.2-0.7,0.6-1.2,1.2-1.5c0,0,0.1,0,0.1-0.1c0,0,0,0,0,0c0.2-0.1,0.4-0.1,0.7-0.1c-0.2-0.6-0.7-1.1-1.4-1.1
	c-0.8,0-1.5,0.7-1.5,1.5C-261.8,393.1-261.5,393.5-261,393.8z M-260.6,395.6c-0.3-0.4-0.4-0.8-0.4-1.3c0,0,0,0,0,0
	c-0.2-0.1-0.5-0.2-0.6-0.4c-1.1,0.3-1.5,1.4-1.7,2.7c0,0.3,0.5,0.3,0.7,0.5c0.1,0.1,0,0.3,0.1,0.4c0,0,0.1,0,0.1,0
	C-262.2,396.6-261.6,395.9-260.6,395.6z M-258.8,391.3C-258.8,391.3-258.8,391.4-258.8,391.3c0.1,0.1,0.2,0.2,0.2,0.3
	c0,0,0,0.1,0,0.1c0.1,0.1,0.1,0.3,0.1,0.4l0,0c0.1,0,0.2,0.1,0.4,0.1c0,0,0-0.1,0.1-0.1c0-0.1,0.1-0.1,0.1-0.2c0,0,0.1-0.1,0.1-0.1
	c0,0,0.1-0.1,0.1-0.1c0.1-0.1,0.2-0.2,0.3-0.3c0,0,0,0,0.1,0c0.1-0.1,0.1-0.1,0.2-0.1c0,0,0,0,0.1,0c0.1,0,0.2-0.1,0.3-0.1l0,0
	c-0.3-0.5-0.8-0.8-1.4-0.8c-0.5,0-0.9,0.2-1.2,0.5C-259.2,390.9-259,391.1-258.8,391.3z"/>
</svg>
