<?xml version="1.0" encoding="utf-8"?>
<!-- Generator: Adobe Illustrator 15.0.2, SVG Export Plug-In . SVG Version: 6.00 Build 0)  -->
<!DOCTYPE svg PUBLIC "-//W3C//DTD SVG 1.1//EN" "http://www.w3.org/Graphics/SVG/1.1/DTD/svg11.dtd">
<svg version="1.1" id="Layer_1" xmlns="http://www.w3.org/2000/svg" xmlns:xlink="http://www.w3.org/1999/xlink" x="0px" y="0px"
	 width="50px" height="50px" viewBox="0 0 50 50" enable-background="new 0 0 50 50" xml:space="preserve">
<path fill="#231F20" d="M25,37.213c-6.853,0-12.428-5.574-12.428-12.428c0-6.853,5.575-12.428,12.428-12.428
	s12.427,5.575,12.427,12.428C37.428,31.639,31.854,37.213,25,37.213z M25,13.106c-6.439,0-11.678,5.239-11.678,11.678
	c0,6.438,5.239,11.678,11.678,11.678s11.677-5.239,11.677-11.678C36.678,18.345,31.441,13.106,25,13.106z M27.646,21.14
	c0,1.46-1.186,2.646-2.646,2.646c-1.461,0-2.646-1.185-2.646-2.646c0-1.459,1.185-2.645,2.646-2.645
	C26.461,18.495,27.646,19.68,27.646,21.14 M30.266,28.619c-0.285,0.484-1.141,0.65-1.195,0.717c-0.223,0.26,0.049,0.768-0.24,0.957
	c-1.32,0.869-5.818,1.2-7.658,0c-0.239-0.154-0.062-0.496-0.238-0.718c-0.381-0.476-1.177-0.498-1.198-0.956
	c0.357-2.43,1.104-4.47,3.42-4.938c0.52,0.378,1.155,0.603,1.846,0.603c0.649,0,1.253-0.197,1.755-0.534
	C28.945,24.395,30.049,25.969,30.266,28.619"/>
</svg>
