<?xml version="1.0" encoding="utf-8"?>
<!-- Generator: Adobe Illustrator 18.1.1, SVG Export Plug-In . SVG Version: 6.00 Build 0)  -->
<svg version="1.1" id="Layer_1" xmlns="http://www.w3.org/2000/svg" xmlns:xlink="http://www.w3.org/1999/xlink" x="0px" y="0px"
	 viewBox="-280 372 50 50" enable-background="new -280 372 50 50" xml:space="preserve">
<path fill="#231F20" d="M-255.4,409.4c-6.9,0-12.4-5.6-12.4-12.4s5.6-12.4,12.4-12.4c6.9,0,12.4,5.6,12.4,12.4
	S-248.5,409.4-255.4,409.4z M-255.4,385.3c-6.4,0-11.7,5.2-11.7,11.7c0,6.4,5.2,11.7,11.7,11.7s11.7-5.2,11.7-11.7
	C-243.7,390.6-248.9,385.3-255.4,385.3z M-256.4,392.1h2.1c0.8,0,1.4,0.6,1.4,1.4h0.6c0-1.1-0.9-2-2-2h-2.1c-1.1,0-2,0.9-2,2h0.6
	C-257.8,392.7-257.2,392.1-256.4,392.1z M-251.2,394.1h-8.3c-0.9,0-1.7,0.8-1.7,1.7v5c0,0.9,0.8,1.7,1.7,1.7h8.3
	c0.9,0,1.7-0.8,1.7-1.7v-5C-249.5,394.9-250.3,394.1-251.2,394.1z M-253.3,399.1h-1.2v1.2h-1.7v-1.2h-1.2v-1.7h1.2v-1.2h1.7v1.2h1.2
	V399.1z"/>
</svg>
