<?xml version="1.0" encoding="utf-8"?>
<!-- Generator: Adobe Illustrator 15.0.2, SVG Export Plug-In . SVG Version: 6.00 Build 0)  -->
<!DOCTYPE svg PUBLIC "-//W3C//DTD SVG 1.1//EN" "http://www.w3.org/Graphics/SVG/1.1/DTD/svg11.dtd">
<svg version="1.1" id="Layer_1" xmlns="http://www.w3.org/2000/svg" xmlns:xlink="http://www.w3.org/1999/xlink" x="0px" y="0px"
	 width="50px" height="50px" viewBox="0 0 50 50" enable-background="new 0 0 50 50" xml:space="preserve">
<path d="M20.448,18.935h2.122l1.569,9.413h-2.057l-0.304-2.096h-3.521l-1.186,2.096h-2.189L20.448,18.935z M19.077,24.709h2.518
	l-0.461-3.744h-0.027L19.077,24.709z M25.721,23.602c0.237-1.714,1.688-2.254,3.229-2.254c1.213,0,2.861,0.264,2.835,1.793
	c0,0.29-0.065,0.725-0.146,1.147l-0.605,2.742c-0.066,0.237-0.093,0.659-0.093,0.923c0,0.118,0.026,0.276,0.065,0.396h-1.871v-0.672
	c-0.515,0.58-1.318,0.856-2.084,0.856c-1.489,0-2.215-0.844-2.215-1.793c0-1.305,0.989-2.123,2.611-2.32
	c1.766-0.211,2.597-0.119,2.597-0.989c0-0.672-0.712-0.831-1.187-0.831c-0.672,0-1.266,0.316-1.385,1.002H25.721z M29.676,25.078
	c-0.475,0.277-1.042,0.29-1.582,0.33c-0.712,0.079-1.384,0.25-1.384,1.108c0,0.514,0.487,0.764,1.027,0.764
	c1.16,0,1.543-0.804,1.754-1.542L29.676,25.078z M23.553,36.764c-6.853,0-12.428-5.575-12.428-12.428
	c0-6.853,5.575-12.428,12.428-12.428S35.98,17.483,35.98,24.335C35.98,31.188,30.405,36.764,23.553,36.764z M23.553,12.658
	c-6.439,0-11.678,5.239-11.678,11.678s5.239,11.678,11.678,11.678c6.439,0,11.678-5.239,11.678-11.678S29.992,12.658,23.553,12.658z
	"/>
</svg>
