<?xml version="1.0" encoding="utf-8"?>
<!-- Generator: Adobe Illustrator 15.0.2, SVG Export Plug-In . SVG Version: 6.00 Build 0)  -->
<!DOCTYPE svg PUBLIC "-//W3C//DTD SVG 1.1//EN" "http://www.w3.org/Graphics/SVG/1.1/DTD/svg11.dtd">
<svg version="1.1" id="Layer_1" xmlns="http://www.w3.org/2000/svg" xmlns:xlink="http://www.w3.org/1999/xlink" x="0px" y="0px"
	 width="50px" height="50px" viewBox="0 0 50 50" enable-background="new 0 0 50 50" xml:space="preserve">
<path fill="#231F20" d="M25.001,37.678c-6.853,0-12.428-5.574-12.428-12.428c0-6.853,5.575-12.428,12.428-12.428
	c6.854,0,12.427,5.575,12.427,12.428C37.429,32.104,31.854,37.678,25.001,37.678z M25.001,13.571
	c-6.439,0-11.678,5.239-11.678,11.678c0,6.438,5.239,11.678,11.678,11.678c6.439,0,11.677-5.239,11.677-11.678
	C36.679,18.81,31.442,13.571,25.001,13.571z M30.089,20.384c-4.182,0-4.889-1.587-4.895-1.603c-0.031-0.076-0.107-0.129-0.192-0.131
	c0,0-0.002,0-0.004,0c-0.083,0-0.16,0.053-0.193,0.128c-0.005,0.017-0.728,1.606-4.894,1.606c-0.117,0-0.208,0.094-0.208,0.207
	v6.295c0,2.909,5.001,5.135,5.212,5.229c0.028,0.012,0.055,0.017,0.085,0.017c0.027,0,0.057-0.005,0.084-0.017
	c0.214-0.094,5.213-2.319,5.213-5.229v-6.295C30.296,20.478,30.204,20.384,30.089,20.384z M28.219,22.645l-2.527,5.24l-0.523,0.97
	c-0.018,0.036-0.05,0.058-0.091,0.064c-0.005,0-0.011,0.002-0.018,0.002c-0.032,0-0.064-0.013-0.086-0.038l-2.623-2.62
	c-0.047-0.048-0.047-0.128,0-0.177l0.742-0.742c0.049-0.046,0.128-0.046,0.178,0l1.5,1.5l2.301-4.804
	c0.016-0.032,0.042-0.055,0.074-0.064c0.03-0.012,0.067-0.009,0.099,0.007l0.922,0.5C28.226,22.513,28.249,22.585,28.219,22.645z"/>
</svg>
