<?xml version="1.0" encoding="utf-8"?>
<!-- Generator: Adobe Illustrator 15.0.2, SVG Export Plug-In . SVG Version: 6.00 Build 0)  -->
<!DOCTYPE svg PUBLIC "-//W3C//DTD SVG 1.1//EN" "http://www.w3.org/Graphics/SVG/1.1/DTD/svg11.dtd">
<svg version="1.1" id="Layer_1" xmlns="http://www.w3.org/2000/svg" xmlns:xlink="http://www.w3.org/1999/xlink" x="0px" y="0px"
	 width="50px" height="50px" viewBox="0 0 50 50" enable-background="new 0 0 50 50" xml:space="preserve">
<path fill="#231F20" d="M28.583,22.83h-0.429v-1.709c0-1.889-1.529-3.42-3.417-3.42c-1.89,0-3.42,1.531-3.42,3.42v1.709H20.89
	c-0.235,0-0.428,0.191-0.428,0.428v5.984c0,0.234,0.193,0.428,0.428,0.428h7.693c0.233,0,0.427-0.193,0.427-0.428v-5.984
	C29.01,23.021,28.816,22.83,28.583,22.83 M25.366,26.402l0.131,1.711h-1.522l0.132-1.711c-0.308-0.205-0.512-0.555-0.512-0.951
	c0-0.633,0.512-1.143,1.141-1.143c0.631,0,1.143,0.51,1.143,1.143C25.878,25.848,25.674,26.197,25.366,26.402 M27.301,22.83h-5.129
	v-1.709c0-1.418,1.147-2.564,2.565-2.564c1.416,0,2.563,1.146,2.563,2.564L27.301,22.83L27.301,22.83z M24.735,11.778
	c-6.854,0-12.428,5.576-12.428,12.429c0,6.854,5.572,12.428,12.426,12.428c6.855,0,12.432-5.574,12.432-12.428
	C37.165,17.354,31.589,11.778,24.735,11.778z M24.733,35.885c-6.44,0-11.677-5.238-11.677-11.678c0-6.44,5.239-11.679,11.677-11.679
	c6.441,0,11.682,5.24,11.682,11.679C36.415,30.646,31.175,35.885,24.733,35.885z"/>
</svg>
