<?xml version="1.0" encoding="utf-8"?>
<!-- Generator: Adobe Illustrator 15.0.2, SVG Export Plug-In . SVG Version: 6.00 Build 0)  -->
<!DOCTYPE svg PUBLIC "-//W3C//DTD SVG 1.1//EN" "http://www.w3.org/Graphics/SVG/1.1/DTD/svg11.dtd">
<svg version="1.1" id="Layer_1" xmlns="http://www.w3.org/2000/svg" xmlns:xlink="http://www.w3.org/1999/xlink" x="0px" y="0px"
	 width="50px" height="50px" viewBox="0 0 50 50" enable-background="new 0 0 50 50" xml:space="preserve">
<path d="M24.999,12.587c-6.854,0-12.428,5.575-12.428,12.428c0,6.854,5.574,12.428,12.428,12.428
	c6.854,0,12.429-5.576,12.429-12.428C37.428,18.162,31.854,12.587,24.999,12.587z M24.999,36.692
	c-6.439,0-11.678-5.238-11.678-11.678c0-6.44,5.238-11.678,11.678-11.678c6.44,0,11.679,5.238,11.679,11.678
	C36.678,31.454,31.439,36.692,24.999,36.692z M30.237,21.315v1.594c0,1.014-0.594,1.432-1.084,1.604v5.267
	c0,0.633-0.633,0.633-0.633,0.633h-0.096c-0.633,0-0.633-0.633-0.633-0.633v-5.235c-1.094-0.361-1.094-1.635-1.094-1.635v-1.594
	c0-1.729,1.727-1.729,1.727-1.729h0.084C30.237,19.587,30.237,21.315,30.237,21.315z M25.79,19.806v3.355v0.409h-0.002v0.075
	c0,0.029-0.006,0.057-0.012,0.078c-0.094,0.609-0.751,0.61-0.751,0.61h-0.052v5.435c0,0.631-0.631,0.631-0.631,0.631h-0.094
	c-0.631,0-0.631-0.631-0.631-0.631v-5.435h-0.033c-0.529,0-0.691-0.366-0.742-0.592c-0.021-0.05-0.021-0.098-0.021-0.098V23.57
	v-0.409v-3.355c0-0.217,0.22-0.217,0.22-0.217h0.004c0.219,0,0.219,0.217,0.219,0.217v2.632c0.134-0.039,0.322-0.039,0.322-0.039
	h0.069v-2.593c0-0.217,0.22-0.217,0.22-0.217h0.01c0.221,0,0.221,0.217,0.221,0.217v2.593h0.357h0.059v-2.593
	c0-0.217,0.217-0.217,0.217-0.217h0.012c0.219,0,0.219,0.217,0.219,0.217v2.593h0.019h0.039c0.09,0,0.233,0.01,0.304,0.028v-2.621
	c0-0.217,0.219-0.217,0.219-0.217h0.021C25.79,19.589,25.79,19.806,25.79,19.806z M21.603,20.052
	c0.306,0.53,0.152,1.944,0.152,2.808v6.182c0,0.521,0.006,1.056-0.205,1.25c-0.28,0.263-0.814,0.161-0.994-0.127
	c-0.155-0.245-0.103-0.694-0.103-1.046V26.89c-0.177-0.059-0.468-0.008-0.688-0.025v-5.332c0-0.568-0.036-1.21,0.205-1.557
	C20.319,19.47,21.28,19.496,21.603,20.052z"/>
</svg>
