<?xml version="1.0" encoding="utf-8"?>
<!-- Generator: Adobe Illustrator 15.0.2, SVG Export Plug-In . SVG Version: 6.00 Build 0)  -->
<!DOCTYPE svg PUBLIC "-//W3C//DTD SVG 1.1//EN" "http://www.w3.org/Graphics/SVG/1.1/DTD/svg11.dtd">
<svg version="1.1" id="Layer_1" xmlns="http://www.w3.org/2000/svg" xmlns:xlink="http://www.w3.org/1999/xlink" x="0px" y="0px"
	 width="50px" height="50px" viewBox="0 0 50 50" enable-background="new 0 0 50 50" xml:space="preserve">
<path d="M24.184,13.425C17.33,13.426,11.755,19,11.757,25.853c0,6.855,5.573,12.43,12.428,12.429c6.854,0,12.429-5.576,12.43-12.428
	C36.613,19,31.04,13.425,24.184,13.425z M24.184,37.529c-6.438,0-11.678-5.236-11.678-11.678c0-6.439,5.238-11.678,11.677-11.677
	c6.442,0,11.681,5.238,11.681,11.675C35.863,32.294,30.626,37.53,24.184,37.529z M24.389,18.893
	c-3.773,0.001-6.839,3.024-6.933,6.788l-2.086-0.001l3.122,3.478l3.121-3.478H19.19c0.09-2.801,2.385-5.046,5.198-5.046
	c2.875,0,5.204,2.338,5.204,5.221c0,2.882-2.329,5.219-5.201,5.219c-1.153,0-2.218-0.375-3.08-1.012l-1.193,1.277
	c1.177,0.923,2.661,1.474,4.273,1.475c3.829,0,6.937-3.115,6.936-6.96C31.327,22.01,28.221,18.894,24.389,18.893z M23.773,22.119
	l-0.002,3.98l2.551,2.552l0.841-0.841l-2.203-2.202l0.001-3.488L23.773,22.119z"/>
</svg>
