<?xml version="1.0" encoding="utf-8"?>
<!-- Generator: Adobe Illustrator 18.1.1, SVG Export Plug-In . SVG Version: 6.00 Build 0)  -->
<svg version="1.1" id="Layer_1" xmlns="http://www.w3.org/2000/svg" xmlns:xlink="http://www.w3.org/1999/xlink" x="0px" y="0px"
	 viewBox="-280 372 50 50" enable-background="new -280 372 50 50" xml:space="preserve">
<path fill="#231F20" d="M-255.5,409.4c-6.9,0-12.4-5.6-12.4-12.4s5.6-12.4,12.4-12.4c6.9,0,12.4,5.6,12.4,12.4
	S-248.6,409.4-255.5,409.4z M-255.5,385.3c-6.4,0-11.7,5.2-11.7,11.7c0,6.4,5.2,11.7,11.7,11.7s11.7-5.2,11.7-11.7
	C-243.8,390.6-249,385.3-255.5,385.3z M-249.7,400.4c0.6-1,0.9-2.2,0.9-3.4c0-1.2-0.3-2.4-0.9-3.4l0.4-0.4c0.1-0.1,0.1-0.2,0.1-0.3
	c0-0.1,0-0.2-0.1-0.3l-1.9-1.9c-0.1-0.1-0.4-0.1-0.5,0l-0.4,0.4c-1-0.6-2.2-0.9-3.4-0.9c-1.2,0-2.4,0.3-3.4,0.9l-0.4-0.4
	c-0.1-0.1-0.4-0.1-0.5,0l-1.9,1.9c-0.1,0.1-0.1,0.4,0,0.5l0.4,0.4c-1.2,2.1-1.2,4.7,0,6.8l-0.4,0.4c-0.1,0.1-0.1,0.4,0,0.5l1.9,1.9
	c0.1,0.1,0.2,0.1,0.3,0.1c0.1,0,0.2,0,0.3-0.1l0.4-0.4c1,0.6,2.2,0.9,3.4,0.9c1.2,0,2.4-0.3,3.4-0.9l0.4,0.4
	c0.1,0.1,0.2,0.1,0.3,0.1c0.1,0,0.2,0,0.3-0.1l1.9-1.9c0.1-0.1,0.1-0.2,0.1-0.3c0-0.1,0-0.2-0.1-0.3L-249.7,400.4z M-252.3,395.2
	l-0.6-0.6l2.3-2.3l0.6,0.6L-252.3,395.2z M-251.4,391.5l0.6,0.6l-2.3,2.3l-0.6-0.6L-251.4,391.5z M-259.6,391.5l2.3,2.3l-0.6,0.6
	l-2.3-2.3l0,0L-259.6,391.5z M-260.4,392.4L-260.4,392.4l2.3,2.3l0,0l-0.6,0.6l-2.3-2.3L-260.4,392.4z M-258.7,398.8l0.6,0.6
	l-2.3,2.3l-0.6-0.6L-258.7,398.8z M-259.6,402.5l-0.6-0.6l2.3-2.3l0,0l0.6,0.6L-259.6,402.5z M-255.5,400.7c-0.4,0-0.7-0.1-1.1-0.2
	l0,0c0.1-0.1,0.1-0.2,0.1-0.3c0-0.1,0-0.2-0.1-0.3l-1.9-1.9c-0.1-0.1-0.4-0.1-0.5,0l0,0c-0.2-0.7-0.2-1.5,0-2.2l0,0
	c0.1,0.1,0.2,0.1,0.3,0.1c0.1,0,0.2,0,0.3-0.1l1.9-1.9c0.1-0.1,0.1-0.2,0.1-0.3c0-0.1,0-0.2-0.1-0.3l0,0c0.4-0.1,0.7-0.2,1.1-0.2
	s0.7,0.1,1.1,0.2l0,0c-0.1,0.1-0.1,0.4,0,0.5l1.9,1.9c0.1,0.1,0.2,0.1,0.3,0.1c0.1,0,0.2,0,0.3-0.1l0,0c0.2,0.7,0.2,1.5,0,2.2l0,0
	c-0.1-0.1-0.2-0.1-0.3-0.1c-0.1,0-0.2,0-0.3,0.1l-1.9,1.9c-0.1,0.1-0.1,0.4,0,0.5l0,0C-254.7,400.6-255.1,400.7-255.5,400.7z
	 M-251.4,402.5l-2.3-2.3l0.6-0.6l2.3,2.3L-251.4,402.5z M-250.6,401.6l-2.3-2.3l0.6-0.6l2.3,2.3L-250.6,401.6z"/>
</svg>
