<?xml version="1.0" encoding="utf-8"?>
<!-- Generator: Adobe Illustrator 15.0.2, SVG Export Plug-In . SVG Version: 6.00 Build 0)  -->
<!DOCTYPE svg PUBLIC "-//W3C//DTD SVG 1.1//EN" "http://www.w3.org/Graphics/SVG/1.1/DTD/svg11.dtd">
<svg version="1.1" id="Layer_1" xmlns="http://www.w3.org/2000/svg" xmlns:xlink="http://www.w3.org/1999/xlink" x="0px" y="0px"
	 width="50px" height="50px" viewBox="0 0 50 50" enable-background="new 0 0 50 50" xml:space="preserve">
<path fill="#231F20" d="M24.553,37.764c-6.853,0-12.428-5.575-12.428-12.428c0-6.853,5.575-12.428,12.428-12.428
	S36.98,18.483,36.98,25.335C36.98,32.188,31.405,37.764,24.553,37.764z M24.553,13.658c-6.439,0-11.678,5.239-11.678,11.678
	s5.239,11.678,11.678,11.678c6.439,0,11.678-5.239,11.678-11.678S30.992,13.658,24.553,13.658z M26.273,23.23l-0.605,0.652
	c-0.059,0.062-0.086,0.145-0.08,0.225l0.068,0.888c0.012,0.115-0.107,0.201-0.215,0.151l-0.807-0.375
	c-0.074-0.036-0.162-0.036-0.238-0.005l-0.822,0.34c-0.109,0.045-0.225-0.042-0.211-0.158l0.107-0.886
	c0.01-0.081-0.014-0.164-0.068-0.227l-0.578-0.678c-0.076-0.087-0.027-0.227,0.086-0.248l0.873-0.172
	c0.029-0.005,0.053-0.014,0.078-0.028c0.047-0.024,0.09-0.06,0.119-0.106l0.465-0.761c0.061-0.097,0.205-0.095,0.264,0.007
	l0.434,0.777c0.018,0.033,0.041,0.062,0.07,0.083c0.033,0.03,0.072,0.051,0.117,0.061l0.869,0.21
	C26.311,23.006,26.352,23.146,26.273,23.23 M27.506,23.438c0-0.252-0.031-0.497-0.09-0.729c-0.324-1.279-1.484-2.226-2.865-2.226
	c-1.379,0-2.535,0.946-2.861,2.226c-0.059,0.232-0.09,0.477-0.09,0.729c0,1.633,1.322,2.955,2.951,2.955
	C26.184,26.394,27.506,25.071,27.506,23.438 M29.682,23.609l-0.818,0.706c-0.057,0.052-0.076,0.135-0.043,0.206l0.428,0.991
	c0.055,0.125-0.016,0.27-0.148,0.306l-1.043,0.281c-0.027,0.007-0.049,0.021-0.07,0.04v6.018c0,0.119-0.127,0.197-0.229,0.141
	l-3.09-1.598c-0.072-0.037-0.158-0.037-0.23,0l-3.088,1.598c-0.105,0.057-0.229-0.021-0.229-0.141v-6.018
	c-0.023-0.02-0.047-0.033-0.074-0.04l-1.041-0.281c-0.133-0.036-0.203-0.181-0.15-0.306l0.432-0.991
	c0.029-0.07,0.01-0.153-0.047-0.206l-0.816-0.706c-0.105-0.09-0.105-0.25,0-0.34l0.816-0.708c0.057-0.049,0.076-0.132,0.047-0.203
	l-0.432-0.993c-0.053-0.125,0.018-0.269,0.15-0.305l1.041-0.283c0.074-0.019,0.129-0.085,0.131-0.163l0.045-1.08
	c0.004-0.137,0.131-0.239,0.264-0.212l1.062,0.198c0.078,0.015,0.152-0.023,0.189-0.092l0.508-0.954
	c0.064-0.121,0.221-0.156,0.332-0.076l0.869,0.643c0.062,0.045,0.146,0.045,0.211,0l0.869-0.643c0.111-0.08,0.27-0.045,0.332,0.076
	l0.508,0.954c0.037,0.069,0.113,0.106,0.189,0.092l1.061-0.198c0.137-0.026,0.262,0.075,0.266,0.212l0.045,1.08
	c0.002,0.077,0.057,0.144,0.129,0.165L29.1,21.06c0.133,0.036,0.203,0.18,0.148,0.305l-0.428,0.993
	c-0.033,0.07-0.014,0.153,0.043,0.203l0.818,0.708C29.787,23.358,29.787,23.519,29.682,23.609"/>
</svg>
