<?xml version="1.0" encoding="utf-8"?>
<!-- Generator: Adobe Illustrator 15.0.2, SVG Export Plug-In . SVG Version: 6.00 Build 0)  -->
<!DOCTYPE svg PUBLIC "-//W3C//DTD SVG 1.1//EN" "http://www.w3.org/Graphics/SVG/1.1/DTD/svg11.dtd">
<svg version="1.1" id="Layer_1" xmlns="http://www.w3.org/2000/svg" xmlns:xlink="http://www.w3.org/1999/xlink" x="0px" y="0px"
	 width="50px" height="50px" viewBox="0 0 50 50" enable-background="new 0 0 50 50" xml:space="preserve">
<path fill="#231F20" d="M24.533,35.853c-6.853,0-12.428-5.575-12.428-12.428s5.575-12.428,12.428-12.428s12.428,5.575,12.428,12.428
	S31.386,35.853,24.533,35.853z M24.533,11.747c-6.439,0-11.678,5.239-11.678,11.678c0,6.439,5.239,11.678,11.678,11.678
	c6.439,0,11.678-5.238,11.678-11.678C36.211,16.986,30.973,11.747,24.533,11.747z M29.975,17.983H19.09
	c-0.748,0-1.359,0.612-1.359,1.36v8.163c0,0.748,0.611,1.36,1.359,1.36h10.885c0.748,0,1.359-0.612,1.359-1.36v-8.163
	C31.334,18.595,30.723,17.983,29.975,17.983z M29.975,27.506H19.09v-8.163h10.885V27.506z M23.854,24.854h-3.402v1.224h3.402V24.854
	z M23.854,22.812h-3.402v1.224h3.402V22.812z M23.854,20.772h-3.402v1.224h3.402V20.772z M28.547,25.125
	c0,0-1.158-0.302-1.158-0.896c0-0.566,0.75-0.804,0.75-1.961c0-0.939-0.287-1.496-1.225-1.496c-0.939,0-1.225,0.557-1.225,1.496
	c0,1.157,0.748,1.395,0.748,1.961c0,0.594-1.156,0.896-1.156,0.896c-0.068,0-0.068,0.952-0.068,0.952h3.4
	C28.613,26.077,28.613,25.125,28.547,25.125z"/>
</svg>
