<?xml version="1.0" encoding="utf-8"?>
<!-- Generator: Adobe Illustrator 19.0.0, SVG Export Plug-In . SVG Version: 6.00 Build 0)  -->
<svg version="1.1" id="Layer_1" xmlns="http://www.w3.org/2000/svg" xmlns:xlink="http://www.w3.org/1999/xlink" x="0px" y="0px"
	 viewBox="-730 1020 50 50" style="enable-background:new -730 1020 50 50;" xml:space="preserve">
<path d="M-705,1032.6c-6.9,0-12.4,5.6-12.4,12.4s5.6,12.4,12.4,12.4s12.4-5.6,12.4-12.4S-698.2,1032.6-705,1032.6z M-705,1056.7
	c-6.4,0-11.7-5.2-11.7-11.7c0-6.4,5.2-11.7,11.7-11.7s11.7,5.2,11.7,11.7C-693.4,1051.5-698.6,1056.7-705,1056.7z M-699,1039.6
	l-0.1-0.6c0,0-1,1-1.7,1.6c1.1,4.1-1.5,6.8-4.1,7.9c1.8-1.4,4-3.9,3.5-7.4c-0.2-1.5-0.7-2.6-0.9-3.2l-0.2-0.6l-0.5,0.6
	c0,0-1.5,2-3.7,3c-2.3,0.9-4.5,3.6-3.2,9.1l0.1,0.4c-1.4,2.2-0.3,1.9-0.1,1.6c0,0,0.3-0.5,0.8-1.5c0.5-0.2,1.4-0.5,2.2-0.7
	C-703.3,1049.1-697.7,1047.4-699,1039.6z M-706,1044.8c-1.2,1.3-1.8,2.4-2.7,4c-0.2,0.2-0.3,0.5-0.3,0.5c0.1-0.3,0.1-0.3,0.3-0.8
	c0.6-1.6,1.1-2.6,1.9-3.8c0.8-1.2,2.2-2.2,2.8-3c1-1.3,1.2-2.9,1.2-2.9c0,1,0.2,2.1-0.7,3.5S-704.9,1043.6-706,1044.8z"/>
</svg>
