<?xml version="1.0" encoding="utf-8"?>
<!-- Generator: Adobe Illustrator 15.0.2, SVG Export Plug-In . SVG Version: 6.00 Build 0)  -->
<!DOCTYPE svg PUBLIC "-//W3C//DTD SVG 1.1//EN" "http://www.w3.org/Graphics/SVG/1.1/DTD/svg11.dtd">
<svg version="1.1" id="Layer_1" xmlns="http://www.w3.org/2000/svg" xmlns:xlink="http://www.w3.org/1999/xlink" x="0px" y="0px"
	 width="50px" height="50px" viewBox="0 0 50 50" enable-background="new 0 0 50 50" xml:space="preserve">
<path d="M24.999,12.88c-6.854,0.001-12.429,5.575-12.427,12.43c0,6.854,5.573,12.43,12.428,12.428
	c6.854,0,12.428-5.574,12.43-12.428C37.428,18.457,31.854,12.88,24.999,12.88z M24.999,36.986c-6.438,0-11.678-5.236-11.678-11.678
	c0-6.44,5.238-11.681,11.677-11.68c6.442,0,11.68,5.238,11.68,11.678C36.678,31.75,31.44,36.986,24.999,36.986z M25,17.934
	c-4.074,0-7.376,3.302-7.376,7.376c0,4.073,3.303,7.377,7.376,7.377c4.074,0,7.376-3.305,7.376-7.377
	C32.377,21.235,29.074,17.934,25,17.934z M25,31.082c-3.188,0-5.773-2.584-5.773-5.772c0-3.188,2.585-5.772,5.773-5.772
	s5.773,2.585,5.773,5.772C30.773,28.498,28.188,31.082,25,31.082z M25.562,21.141h-1.123v4.4l2.729,2.73l0.795-0.793l-2.401-2.402
	V21.141z"/>
</svg>
