<?xml version="1.0" encoding="utf-8"?>
<!-- Generator: Adobe Illustrator 15.0.2, SVG Export Plug-In . SVG Version: 6.00 Build 0)  -->
<!DOCTYPE svg PUBLIC "-//W3C//DTD SVG 1.1//EN" "http://www.w3.org/Graphics/SVG/1.1/DTD/svg11.dtd">
<svg version="1.1" id="Layer_1" xmlns="http://www.w3.org/2000/svg" xmlns:xlink="http://www.w3.org/1999/xlink" x="0px" y="0px"
	 width="50px" height="50px" viewBox="0 0 50 50" enable-background="new 0 0 50 50" xml:space="preserve">
<path d="M21.093,24.35c1.513-1.341,2.624,0.728,2.624,0.728s1.112-2.069,2.624-0.728c1.511,1.342-1.033,4.697-2.624,5.518
	C22.128,29.047,19.584,25.691,21.093,24.35 M18.78,28.867c0,0,0.713,2.581,3.946,2.332c0,0,0.979-0.061,1.796,0
	c2.276,0,3.668-2.902,3.668-4.67v-2.335v-0.749v-3.779c0-0.493-0.383-0.892-0.854-0.892c-0.474,0-0.855,0.398-0.855,0.892v2.209
	c-0.002,0.014-0.005,0.023-0.005,0.043c0,0.542-0.128,0.566-0.348,0.566h-0.054c-0.141,0-0.187-0.165-0.201-0.318v-4.121
	c0-0.493-0.384-0.89-0.854-0.89c-0.473,0-0.855,0.397-0.855,0.89v3.777c-0.007,0.022-0.013,0.052-0.013,0.095
	c0,0.542-0.128,0.566-0.348,0.566h-0.055c-0.121,0-0.17-0.125-0.192-0.259v-4.999c0-0.492-0.385-0.892-0.856-0.892
	c-0.471,0-0.855,0.4-0.855,0.892v4.692c0,0.542-0.128,0.566-0.348,0.566h-0.055c-0.15,0-0.192-0.198-0.205-0.361v-3.855
	c0-0.491-0.382-0.891-0.854-0.891c-0.474,0-0.856,0.4-0.856,0.891v5.144c0,0.011-0.002,0.021-0.002,0.033v2.243
	c-0.118,0.264-0.246,0-0.248-0.004l-0.741-1.617c-0.182-0.457-0.701-0.681-1.156-0.498c-0.458,0.183-0.681,0.702-0.498,1.16
	L18.78,28.867z M23.679,36.574c-6.853,0-12.428-5.575-12.428-12.428c0-6.853,5.575-12.428,12.428-12.428
	c6.854,0,12.429,5.575,12.429,12.428C36.107,30.999,30.532,36.574,23.679,36.574z M23.679,12.468
	c-6.439,0-11.678,5.239-11.678,11.678s5.239,11.678,11.678,11.678c6.439,0,11.679-5.239,11.679-11.678S30.118,12.468,23.679,12.468z
	"/>
</svg>
