<?xml version="1.0" encoding="utf-8"?>
<!-- Generator: Adobe Illustrator 15.0.2, SVG Export Plug-In . SVG Version: 6.00 Build 0)  -->
<!DOCTYPE svg PUBLIC "-//W3C//DTD SVG 1.1//EN" "http://www.w3.org/Graphics/SVG/1.1/DTD/svg11.dtd">
<svg version="1.1" id="Layer_1" xmlns="http://www.w3.org/2000/svg" xmlns:xlink="http://www.w3.org/1999/xlink" x="0px" y="0px"
	 width="50px" height="50px" viewBox="0 0 50 50" enable-background="new 0 0 50 50" xml:space="preserve">
<path fill="#231F20" d="M25.067,36.777c-6.853,0-12.428-5.575-12.428-12.428s5.575-12.428,12.428-12.428
	c6.854,0,12.429,5.575,12.429,12.428S31.921,36.777,25.067,36.777z M25.067,12.671c-6.439,0-11.678,5.239-11.678,11.678
	c0,6.439,5.239,11.678,11.678,11.678c6.439,0,11.679-5.239,11.679-11.678C36.746,17.91,31.507,12.671,25.067,12.671z M26.54,17.714
	h-2.942c0.023,0.776,0.256,1.606,1.47,2.418C26.285,19.321,26.516,18.491,26.54,17.714 M28.17,25.611
	c-0.062,1.623,0.312,5.492-3.101,6.568h-0.002c-3.415-1.076-3.039-4.945-3.101-6.568h2.592v1.479c0,0.279,0.229,1.473,0.509,1.473
	c0.282,0,0.51-1.193,0.51-1.473v-1.479H28.17z M25.577,25.525h-1.019V25.07h1.019V25.525z M25.577,20.491v4.296h-1.019v-4.296
	c-1.965-1.424-1.486-2.986-1.523-3.973h4.066C27.064,17.504,27.543,19.067,25.577,20.491"/>
</svg>
