<?xml version="1.0" encoding="utf-8"?>
<!-- Generator: Adobe Illustrator 15.0.2, SVG Export Plug-In . SVG Version: 6.00 Build 0)  -->
<!DOCTYPE svg PUBLIC "-//W3C//DTD SVG 1.1//EN" "http://www.w3.org/Graphics/SVG/1.1/DTD/svg11.dtd">
<svg version="1.1" id="Layer_1" xmlns="http://www.w3.org/2000/svg" xmlns:xlink="http://www.w3.org/1999/xlink" x="0px" y="0px"
	 width="50px" height="50px" viewBox="0 0 50 50" enable-background="new 0 0 50 50" xml:space="preserve">
<path fill="#231F20" d="M23.819,37.428c-6.853,0-12.428-5.575-12.428-12.427c0-6.853,5.575-12.428,12.428-12.428
	S36.247,18.147,36.247,25C36.247,31.853,30.672,37.428,23.819,37.428z M23.819,13.322c-6.439,0-11.678,5.239-11.678,11.678
	c0,6.439,5.239,11.677,11.678,11.677c6.439,0,11.678-5.238,11.678-11.677C35.497,18.561,30.259,13.322,23.819,13.322z
	 M23.819,23.167c-1.035,0-1.875,0.84-1.875,1.875c0,1.037,0.84,1.875,1.875,1.875c1.036,0,1.875-0.839,1.875-1.875
	C25.694,24.006,24.855,23.167,23.819,23.167z M28.82,21.292h-1.5c-0.207,0-0.43-0.16-0.494-0.356l-0.388-1.163
	c-0.065-0.196-0.287-0.356-0.494-0.356h-4.249c-0.207,0-0.43,0.16-0.494,0.356l-0.388,1.163c-0.066,0.196-0.287,0.356-0.494,0.356
	H18.82c-0.688,0-1.251,0.562-1.251,1.25v5.625c0,0.688,0.563,1.25,1.251,1.25h10c0.687,0,1.249-0.562,1.249-1.25v-5.625
	C30.069,21.854,29.507,21.292,28.82,21.292z M23.819,28.166c-1.727,0-3.124-1.398-3.124-3.125s1.397-3.125,3.124-3.125
	c1.726,0,3.125,1.399,3.125,3.125S25.545,28.166,23.819,28.166z M28.383,23.416c-0.241,0-0.438-0.196-0.438-0.438
	c0-0.242,0.196-0.438,0.438-0.438s0.438,0.196,0.438,0.438C28.82,23.22,28.624,23.416,28.383,23.416z"/>
</svg>
