<?xml version="1.0" encoding="utf-8"?>
<!-- Generator: Adobe Illustrator 15.0.2, SVG Export Plug-In . SVG Version: 6.00 Build 0)  -->
<!DOCTYPE svg PUBLIC "-//W3C//DTD SVG 1.1//EN" "http://www.w3.org/Graphics/SVG/1.1/DTD/svg11.dtd">
<svg version="1.1" id="Layer_1" xmlns="http://www.w3.org/2000/svg" xmlns:xlink="http://www.w3.org/1999/xlink" x="0px" y="0px"
	 width="50px" height="50px" viewBox="0 0 50 50" enable-background="new 0 0 50 50" xml:space="preserve">
<path d="M24,24.4c-0.008-1.032-0.795-1.774-1.812-1.748c-0.768,0.021-1.315,0.471-1.556,0.938c-0.42,0.81-0.094,1.77,0.469,2.218
	C22.318,26.777,24.009,25.786,24,24.4 M28.284,20.009c-0.296,0.039-0.506,0.194-0.64,0.405c-0.414,0.657,0.259,1.593,1.088,1.299
	C29.678,21.381,29.329,19.872,28.284,20.009 M28.284,27.088c-0.296,0.038-0.506,0.194-0.64,0.404
	c-0.414,0.656,0.259,1.594,1.088,1.3C29.678,28.459,29.329,26.949,28.284,27.088 M31.058,28.473
	c-0.292,0.102-0.649,0.133-1.003,0.172c-0.078,0.113-0.143,0.242-0.214,0.363c-0.01,0.239,0.404,0.66,0.342,0.936
	c-0.03,0.13-0.311,0.231-0.427,0.299c-0.175,0.103-0.309,0.168-0.447,0.257c-0.302-0.194-0.458-0.537-0.705-0.79
	c-0.456-0.1-0.522,0.181-0.702,0.404c-0.131,0.166-0.239,0.283-0.364,0.386c-0.308-0.165-0.628-0.321-0.893-0.534
	c0.06-0.365,0.224-0.627,0.341-0.938c-0.043-0.149-0.155-0.229-0.191-0.383c-0.365-0.033-0.728-0.07-1.023-0.172V27.43
	c0.289-0.102,0.645-0.137,1-0.172c0.076-0.116,0.141-0.242,0.215-0.362c0.01-0.238-0.409-0.663-0.341-0.938
	c0.042-0.179,0.765-0.424,0.873-0.555c0.298,0.199,0.458,0.536,0.704,0.788c0.46,0.104,0.516-0.182,0.703-0.405
	c0.135-0.161,0.247-0.28,0.362-0.383c0.302,0.175,0.64,0.312,0.896,0.532c-0.062,0.364-0.225,0.629-0.342,0.939
	c0.045,0.146,0.155,0.229,0.193,0.383c0.367,0.031,0.725,0.07,1.023,0.172V28.473z M31.058,21.395
	c-0.292,0.102-0.649,0.133-1.003,0.172c-0.078,0.113-0.143,0.242-0.214,0.362c0.103,0.321,0.271,0.582,0.342,0.938
	c-0.229,0.246-0.592,0.359-0.874,0.554c-0.302-0.195-0.458-0.536-0.705-0.79c-0.456-0.1-0.522,0.181-0.702,0.405
	c-0.131,0.165-0.239,0.283-0.364,0.385c-0.305-0.169-0.633-0.319-0.893-0.532c0.06-0.367,0.224-0.629,0.341-0.939
	c-0.043-0.149-0.155-0.229-0.191-0.383c-0.365-0.034-0.728-0.07-1.023-0.172v-1.043c0.289-0.102,0.645-0.136,1-0.172
	c0.076-0.116,0.141-0.242,0.215-0.362c0.01-0.238-0.409-0.661-0.341-0.938c0.042-0.179,0.765-0.423,0.873-0.554
	c0.298,0.199,0.458,0.536,0.704,0.788c0.46,0.104,0.516-0.181,0.703-0.405c0.135-0.16,0.247-0.28,0.362-0.382
	c0.302,0.174,0.64,0.312,0.896,0.532c-0.062,0.365-0.225,0.629-0.342,0.939c0.045,0.147,0.155,0.229,0.193,0.383
	c0.367,0.031,0.725,0.07,1.023,0.172V21.395z M25.833,21.929c0.004,0.184-0.215,0.337-0.318,0.469
	c-0.135,0.167-0.209,0.308-0.32,0.448c0.078,0.19,0.166,0.373,0.234,0.575c0.387,0.075,0.843,0.079,1.173,0.213
	c0.069,0.434,0.069,1.143,0,1.578c-0.333,0.129-0.776,0.147-1.173,0.213c-0.091,0.158-0.129,0.371-0.234,0.512
	c0.085,0.174,0.206,0.299,0.341,0.471c0.099,0.124,0.314,0.312,0.318,0.469c0.01,0.227-0.346,0.498-0.51,0.66
	c-0.14,0.139-0.389,0.505-0.64,0.512c-0.195,0.005-0.367-0.224-0.491-0.318c-0.159-0.125-0.285-0.207-0.448-0.343
	c-0.17,0.08-0.348,0.149-0.533,0.214c-0.074,0.416-0.058,0.923-0.255,1.215c-0.459,0.022-1.11,0.062-1.535-0.022
	c-0.164-0.304-0.135-0.802-0.235-1.173c-0.153-0.092-0.368-0.129-0.511-0.233c-0.169,0.139-0.306,0.216-0.469,0.343
	c-0.123,0.092-0.295,0.323-0.489,0.318c-0.226-0.004-0.507-0.377-0.64-0.512c-0.151-0.15-0.487-0.445-0.491-0.64
	c-0.003-0.157,0.193-0.362,0.299-0.489c0.123-0.154,0.254-0.271,0.339-0.428c-0.075-0.192-0.17-0.369-0.233-0.575
	c-0.387-0.075-0.83-0.095-1.172-0.213c-0.07-0.435-0.07-1.143,0-1.578c0.322-0.133,0.77-0.142,1.151-0.213
	c0.121-0.135,0.135-0.375,0.254-0.511c-0.084-0.177-0.206-0.299-0.339-0.471c-0.105-0.131-0.32-0.315-0.32-0.489
	c0-0.226,0.351-0.48,0.513-0.641c0.144-0.145,0.382-0.505,0.64-0.512c0.192-0.004,0.364,0.222,0.489,0.319
	c0.158,0.125,0.286,0.205,0.447,0.342c0.171-0.079,0.337-0.16,0.532-0.213c0.073-0.418,0.053-0.928,0.257-1.215
	c0.459-0.022,1.108-0.061,1.534,0.02c0.165,0.306,0.133,0.806,0.234,1.173c0.153,0.097,0.374,0.125,0.514,0.235
	c0.167-0.14,0.302-0.22,0.468-0.342c0.126-0.092,0.292-0.323,0.491-0.319c0.225,0.005,0.505,0.378,0.64,0.512
	C25.492,21.438,25.829,21.734,25.833,21.929 M24.679,36.84c-6.853,0-12.428-5.575-12.428-12.428s5.575-12.428,12.428-12.428
	c6.854,0,12.429,5.575,12.429,12.428S31.532,36.84,24.679,36.84z M24.679,12.734c-6.439,0-11.678,5.239-11.678,11.678
	c0,6.439,5.239,11.678,11.678,11.678c6.439,0,11.679-5.238,11.679-11.678C36.357,17.973,31.118,12.734,24.679,12.734z"/>
</svg>
