<?xml version="1.0" encoding="utf-8"?>
<!-- Generator: Adobe Illustrator 18.1.1, SVG Export Plug-In . SVG Version: 6.00 Build 0)  -->
<svg version="1.1" id="Layer_1" xmlns="http://www.w3.org/2000/svg" xmlns:xlink="http://www.w3.org/1999/xlink" x="0px" y="0px"
	 viewBox="-280 372 50 50" enable-background="new -280 372 50 50" xml:space="preserve">
<path fill="#231F20" d="M-243.1,396.6c0,6.9-5.6,12.4-12.4,12.4c-6.9,0-12.4-5.6-12.4-12.4c0-6.9,5.6-12.4,12.4-12.4
	C-248.7,384.2-243.1,389.7-243.1,396.6z M-243.8,396.6c0-6.4-5.2-11.7-11.7-11.7c-6.4,0-11.7,5.2-11.7,11.7
	c0,6.4,5.2,11.7,11.7,11.7C-249.1,408.3-243.8,403-243.8,396.6z M-249.5,399.3v-6.3c0,0,0-0.9-0.9-0.9h-10.3c0,0-0.9,0-0.9,0.9v6.4
	h-1.4v0.9c0,0,0,0.9,0.9,0.9h13c0.8,0,0.9-0.9,0.9-0.9v-1H-249.5z M-254.7,400.6h-1.6c-0.2,0-0.4-0.2-0.4-0.4c0-0.2,0.2-0.4,0.4-0.4
	h1.6c0.2,0,0.4,0.2,0.4,0.4C-254.3,400.5-254.5,400.6-254.7,400.6z M-250.5,399.4h-10.2v-6.4h10.2V399.4z M-255.1,398.1
	c0.1,0.2,0.3,0.3,0.5,0.2c0.2-0.1,0.3-0.3,0.2-0.5l-0.6-1.3l1.2-0.2l-2.8-2.4v3.7l1-0.8L-255.1,398.1z"/>
</svg>
