<?xml version="1.0" encoding="utf-8"?>
<!-- Generator: Adobe Illustrator 15.0.2, SVG Export Plug-In . SVG Version: 6.00 Build 0)  -->
<!DOCTYPE svg PUBLIC "-//W3C//DTD SVG 1.1//EN" "http://www.w3.org/Graphics/SVG/1.1/DTD/svg11.dtd">
<svg version="1.1" id="Layer_1" xmlns="http://www.w3.org/2000/svg" xmlns:xlink="http://www.w3.org/1999/xlink" x="0px" y="0px"
	 width="50px" height="50px" viewBox="0 0 50 50" enable-background="new 0 0 50 50" xml:space="preserve">
<path fill="#231F20" d="M23.784,37.213c-6.853,0-12.428-5.575-12.428-12.428s5.575-12.428,12.428-12.428s12.428,5.575,12.428,12.428
	S30.637,37.213,23.784,37.213z M23.784,13.106c-6.439,0-11.678,5.239-11.678,11.678c0,6.439,5.239,11.678,11.678,11.678
	c6.439,0,11.678-5.239,11.678-11.678C35.462,18.345,30.224,13.106,23.784,13.106z M26.429,21.14c0,1.46-1.185,2.646-2.645,2.646
	c-1.461,0-2.646-1.185-2.646-2.646c0-1.459,1.185-2.645,2.646-2.645C25.244,18.495,26.429,19.68,26.429,21.14 M25.641,27.357
	c0,0.294-0.146,0.957-0.788,0.957h-0.471l0.324-1.549h0.359C25.396,26.766,25.641,26.881,25.641,27.357 M26.619,27.353
	c0.054-1.036-0.681-1.401-1.264-1.401h-1.463l-0.664,3.177h1.572C25.902,29.128,26.565,28.412,26.619,27.353 M20.897,25.951
	l-0.169,0.814h0.881l-0.489,2.363h0.979l0.49-2.363h0.88l0.17-0.814H20.897z M29.05,28.619c-0.286,0.484-1.141,0.65-1.197,0.717
	c-0.222,0.26,0.05,0.767-0.239,0.957c-1.321,0.869-5.819,1.2-7.659,0c-0.239-0.155-0.062-0.496-0.238-0.718
	c-0.381-0.476-1.177-0.498-1.198-0.956c0.357-2.43,1.104-4.47,3.42-4.938c0.52,0.378,1.155,0.603,1.846,0.603
	c0.649,0,1.253-0.197,1.755-0.534C27.728,24.395,28.832,25.969,29.05,28.619"/>
</svg>
