<?xml version="1.0" encoding="utf-8"?>
<!-- Generator: Adobe Illustrator 18.1.1, SVG Export Plug-In . SVG Version: 6.00 Build 0)  -->
<svg version="1.1" id="Layer_1" xmlns="http://www.w3.org/2000/svg" xmlns:xlink="http://www.w3.org/1999/xlink" x="0px" y="0px"
	 viewBox="-280 372 50 50" enable-background="new -280 372 50 50" xml:space="preserve">
<path fill="#231F20" d="M-255.6,409.4c-6.9,0-12.4-5.6-12.4-12.4s5.6-12.4,12.4-12.4c6.9,0,12.4,5.6,12.4,12.4
	S-248.8,409.4-255.6,409.4z M-255.6,385.3c-6.4,0-11.7,5.2-11.7,11.7c0,6.4,5.2,11.7,11.7,11.7s11.7-5.2,11.7-11.7
	C-244,390.6-249.2,385.3-255.6,385.3z M-258.7,399.2h3.2v-1.3h-3.2V399.2z M-251.5,391.2h-2.8c-0.2-0.7-0.7-1.1-1.4-1.1
	c-0.7,0-1.3,0.5-1.4,1.1h-2.5c-0.8,0-1.5,0.7-1.5,1.5v9.7c0,0.8,0.7,1.5,1.5,1.5h8.2c0.8,0,1.5-0.7,1.5-1.5v-9.7
	C-250.1,391.9-250.7,391.2-251.5,391.2z M-255.8,390.8c0.4,0,0.7,0.3,0.7,0.7s-0.3,0.7-0.7,0.7c-0.4,0-0.7-0.3-0.7-0.7
	S-256.2,390.8-255.8,390.8z M-251.6,402.4l-8.1,0l0-9.7l1.3,0v0.9h5.5v-1l1.5,0V402.4z M-258.7,396.9h6v-1.3h-6V396.9z"/>
</svg>
