<?xml version="1.0" encoding="utf-8"?>
<!-- Generator: Adobe Illustrator 15.0.2, SVG Export Plug-In . SVG Version: 6.00 Build 0)  -->
<!DOCTYPE svg PUBLIC "-//W3C//DTD SVG 1.1//EN" "http://www.w3.org/Graphics/SVG/1.1/DTD/svg11.dtd">
<svg version="1.1" id="Layer_1" xmlns="http://www.w3.org/2000/svg" xmlns:xlink="http://www.w3.org/1999/xlink" x="0px" y="0px"
	 width="50px" height="50px" viewBox="0 0 50 50" enable-background="new 0 0 50 50" xml:space="preserve">
<path d="M30.925,26.133l-0.004,0.361l-4.015-1.785l-0.952-0.241c-0.228-0.061-0.454-0.139-0.703-0.142
	c-0.557-0.006-0.487,0.721-0.511,1.104l-0.222,2.596l-0.043,0.363l1.877,1.454l0.124,0.977l-2.27-0.655l-0.439-0.007l-2.281,0.604
	l0.166-0.974l1.907-1.411l-0.214-2.963c0.007-0.383,0.09-1.109-0.485-1.116c-0.228-0.002-0.479,0.071-0.707,0.128l-1.382,0.364
	l-3.594,1.544l0.006-0.362c0.003-0.23-0.03-0.594,0.144-0.783c0.118-0.151,0.753-0.584,0.927-0.696l0.5-0.375l0.046-0.573
	c0.021-0.248-0.066-0.804,0.313-0.802c0.308,0.006,0.287,0.236,0.3,0.463l0.056,0.383l1.291-0.919l0.005-0.517
	c0.024-0.229-0.103-0.86,0.317-0.856c0.305,0.005,0.302,0.232,0.338,0.481l0.036,0.363l1.888-1.394l0.005-0.418l0.158-1.986
	c0.061-0.382,0.111-1.431,0.663-1.426c0.46,0.005,0.524,1.001,0.562,1.307l0.098,1.281l0.044,1.264l1.855,1.434l0.022-0.246
	c0.041-0.21,0.006-0.595,0.352-0.591c0.4,0.006,0.301,0.465,0.295,0.749l-0.008,0.632l1.31,0.952l0.021-0.246
	c0.039-0.233,0.006-0.596,0.333-0.593c0.4,0.005,0.301,0.523,0.295,0.808l0.031,0.574l0.514,0.389
	c0.207,0.155,0.701,0.507,0.867,0.68C30.972,25.522,30.929,25.864,30.925,26.133 M24.054,36.296
	c-6.853,0-12.428-5.575-12.428-12.428S17.201,11.44,24.054,11.44c6.854,0,12.429,5.575,12.429,12.428S30.907,36.296,24.054,36.296z
	 M24.054,12.19c-6.439,0-11.678,5.239-11.678,11.678c0,6.439,5.239,11.678,11.678,11.678c6.439,0,11.679-5.238,11.679-11.678
	C35.732,17.429,30.493,12.19,24.054,12.19z"/>
</svg>
