<?xml version="1.0" encoding="utf-8"?>
<!-- Generator: Adobe Illustrator 18.1.1, SVG Export Plug-In . SVG Version: 6.00 Build 0)  -->
<svg version="1.1" id="Layer_1" xmlns="http://www.w3.org/2000/svg" xmlns:xlink="http://www.w3.org/1999/xlink" x="0px" y="0px"
	 viewBox="-280 372 50 50" enable-background="new -280 372 50 50" xml:space="preserve">
<path fill="#231F20" d="M-255.6,408.9c-6.9,0-12.4-5.6-12.4-12.4s5.6-12.4,12.4-12.4c6.9,0,12.4,5.6,12.4,12.4
	S-248.7,408.9-255.6,408.9z M-255.6,384.8c-6.4,0-11.7,5.2-11.7,11.7c0,6.4,5.2,11.7,11.7,11.7c6.4,0,11.7-5.2,11.7-11.7
	C-243.9,390.1-249.1,384.8-255.6,384.8z M-249.9,392.6C-249.9,392.6-250,392.6-249.9,392.6C-250,392.6-250,392.6-249.9,392.6
	c-0.3-0.9-0.8-1.6-1.4-2.3c-1.1-1.1-2.6-1.7-4.2-1.7c-2.5,0-4.8,1.6-5.6,4c0,0,0,0,0,0c0,0,0,0,0,0c-0.2,0.6-0.3,1.3-0.3,1.9v1.2
	v0.2v1.6c0,0.8,0.6,1.4,1.4,1.4c0.8,0,1.4-0.6,1.4-1.4v-1.8c0-0.8-0.6-1.4-1.4-1.4c-0.2,0-0.5,0.1-0.7,0.2v0c0-0.5,0.1-1,0.2-1.5h1
	c0.1,0,0.1,0,0.2-0.1c0,0,0,0,0,0c0.1,0,0.1-0.1,0.1-0.2c0,0,0,0,0,0c0.5-1.4,2-2.4,3.7-2.4c1,0,2,0.4,2.8,1c0.5,0.4,0.8,0.9,1,1.4
	c0,0,0,0,0,0c0,0,0,0,0,0.1c0,0,0,0,0,0.1c0,0,0,0,0.1,0c0,0,0,0,0.1,0c0,0,0,0,0.1,0c0,0,0,0,0.1,0c0,0,0,0,0,0h0.9
	c0.1,0.5,0.2,1,0.2,1.5v0c-0.2-0.1-0.4-0.2-0.7-0.2c-0.8,0-1.4,0.6-1.4,1.4v1.7c0,0.8,0.6,1.4,1.4,1.4c0.2,0,0.4,0,0.5-0.1
	c-0.5,1.9-2,3.5-3.9,3.9c-0.2-0.4-0.6-0.7-1.1-0.7c-0.7,0-1.2,0.6-1.2,1.2s0.6,1.2,1.2,1.2c0.6,0,1.1-0.5,1.2-1.1
	c2.6-0.6,4.6-2.9,4.7-5.8c0-0.1,0-0.1,0-0.2v-1.6v-0.2v-1.2C-249.6,393.9-249.7,393.2-249.9,392.6z"/>
</svg>
