<?xml version="1.0" encoding="utf-8"?>
<!-- Generator: Adobe Illustrator 15.0.2, SVG Export Plug-In . SVG Version: 6.00 Build 0)  -->
<!DOCTYPE svg PUBLIC "-//W3C//DTD SVG 1.1//EN" "http://www.w3.org/Graphics/SVG/1.1/DTD/svg11.dtd">
<svg version="1.1" id="Layer_1" xmlns="http://www.w3.org/2000/svg" xmlns:xlink="http://www.w3.org/1999/xlink" x="0px" y="0px"
	 width="50px" height="50px" viewBox="0 0 50 50" enable-background="new 0 0 50 50" xml:space="preserve">
<path d="M28.258,23.709c0.348-0.446,0.521-0.963,0.521-1.601c0-1.787-1.744-3.236-3.896-3.236c-1.484,0-2.842,0.688-3.547,1.671
	c-0.95,1.325-0.053,2.813,1.062,2.499c0,0.002-0.001,0.004-0.002,0.006c-0.015,0.062-0.019,0.124-0.017,0.186
	c0.018,0.479,0.483,0.94,1.133,1.081c0.571,0.125,1.119-0.037,1.386-0.371c0.131,0.175,0.313,0.309,0.565,0.384l0.82,1.466
	c0.071,0.127,0.218,0.19,0.358,0.154l0.125-0.029c0.053-0.014,0.097-0.049,0.122-0.096c0.023-0.048,0.025-0.104,0.004-0.154
	l-0.736-1.788c0,0,0.543,0.885,1.368,0.508C27.823,24.18,28.067,23.955,28.258,23.709 M30.445,22.66
	c0,1.814-0.857,3.424-2.188,4.457v2.827c0,0.221-0.181,0.399-0.4,0.399h-5.477c-0.221,0-0.399-0.179-0.399-0.399v-1.182h-2.409
	c-0.221,0-0.398-0.18-0.398-0.4v-2.184c-0.462-0.14-0.91-0.428-1.336-0.855c-0.156-0.158-0.146-0.414,0.011-0.571
	c0.626-0.633,1.039-1.266,1.325-1.959v-0.454l0.009,0.01c0.16-2.969,2.619-5.325,5.626-5.325
	C27.922,17.024,30.445,19.547,30.445,22.66 M24.086,36.84c-6.853,0-12.428-5.575-12.428-12.428s5.575-12.428,12.428-12.428
	c6.854,0,12.429,5.575,12.429,12.428S30.939,36.84,24.086,36.84z M24.086,12.734c-6.439,0-11.678,5.239-11.678,11.678
	c0,6.439,5.239,11.678,11.678,11.678c6.439,0,11.679-5.238,11.679-11.678C35.765,17.973,30.525,12.734,24.086,12.734z"/>
</svg>
