<?xml version="1.0" encoding="utf-8"?>
<!-- Generator: Adobe Illustrator 19.0.0, SVG Export Plug-In . SVG Version: 6.00 Build 0)  -->
<svg version="1.1" id="Layer_1" xmlns="http://www.w3.org/2000/svg" xmlns:xlink="http://www.w3.org/1999/xlink" x="0px" y="0px"
	 viewBox="-730 1020 50 50" style="enable-background:new -730 1020 50 50;" xml:space="preserve">
<path d="M-704.6,1036c-6.9,0-12.4,5.6-12.4,12.4s5.6,12.4,12.4,12.4c6.9,0,12.4-5.6,12.4-12.4C-692.2,1041.6-697.8,1036-704.6,1036z
	 M-704.6,1060.1c-6.4,0-11.7-5.2-11.7-11.7s5.2-11.7,11.7-11.7c6.4,0,11.7,5.2,11.7,11.7S-698.2,1060.1-704.6,1060.1z
	 M-704.5,1040.9c-4.2,0-7.5,3.4-7.5,7.5s3.4,7.5,7.5,7.5c4.2,0,7.5-3.4,7.5-7.5S-700.3,1040.9-704.5,1040.9z M-704.2,1054.5
	c0,0,0.2-0.1,0.4-0.3c0.2-0.2,0.3-0.4,0.3-0.4c2.5-0.5,4.5-2.6,4.5-5.4c0-3-2.5-5.5-5.5-5.5s-5.5,2.5-5.5,5.5c0,2.3,1.5,4.3,3.5,5.1
	c0,0,1.6,0.6,2-0.6c0.2-0.6-0.4-1.5-0.4-1.5l0.3-0.2c0,0,0.9,1,0.7,1.8c-0.2,0.8-1,1.6-2.4,1.3c-2.5-0.7-4.4-2.6-4.4-5.8
	c0-3.8,2.9-6.5,6.2-6.5c3.5,0,6.2,2.9,6.2,6.5C-698.3,1051.7-700.7,1054.5-704.2,1054.5z M-706,1047.7c0,0-1.2-0.8-2.1-0.3
	c-0.8,0.3-0.6,1.2,0.2,1.6l-0.1,0.2c0,0-0.9-0.3-1.2-0.9s-0.1-1.3,0.5-1.6c0.6-0.3,1.7-0.2,2.8,0.7L-706,1047.7z M-708.1,1049.3
	L-708.1,1049.3l0.2,0.1c-0.3,0.7-0.4,1.5,0.5,1.6c1.1,0.1,2-1.2,2-1.2l0.2,0.1c-0.6,1.3-1.5,1.8-2.2,1.8c-0.7,0-1.2-0.6-1.2-1.2
	C-708.7,1049.9-708.1,1049.3-708.1,1049.3z M-706.5,1045.1c-0.2,1.1,0.9,2,0.9,2l-0.2,0.2c-1.2-0.8-1.6-1.8-1.5-2.5s0.8-1,1.4-0.9
	c0.6,0.1,1.1,0.9,1.1,0.9l-0.1,0.1C-705,1044.7-706.2,1044-706.5,1045.1z M-704.6,1049.8c-0.8,0-0.5-1.6-0.5-1.6l0.4-2.4l0.5,2.4
	C-704.2,1048.3-703.9,1049.8-704.6,1049.8z M-704.3,1044.9L-704.3,1044.9C-704.3,1044.9-704.4,1044.8-704.3,1044.9
	c0-0.3,0.5-0.9,1-1c0.6-0.1,1.3,0.2,1.4,0.9c0.1,0.7-0.1,1.8-1.3,2.6l-0.2-0.2c0,0,0.8-1,0.6-2.1
	C-703,1044.2-703.6,1044.4-704.3,1044.9z M-700.9,1047.4c-1-0.5-2.1,0.3-2.1,0.3l-0.1-0.2c1.1-0.9,2.1-1.1,2.8-0.7
	c0.6,0.3,0.8,1,0.5,1.6s-1.2,0.9-1.2,0.9l-0.1-0.2C-700.2,1048.6-700.2,1047.7-700.9,1047.4z M-703.6,1049.8c0,0,0.7,1.2,1.8,1.2
	c0.9,0,1-0.8,0.6-1.4l0.1-0.2c0,0,0.5,0.6,0.5,1.2s-0.5,1.2-1.2,1.2s-1.6-0.5-2.1-1.8L-703.6,1049.8z"/>
</svg>
