<?xml version="1.0" encoding="utf-8"?>
<!-- Generator: Adobe Illustrator 15.0.2, SVG Export Plug-In . SVG Version: 6.00 Build 0)  -->
<!DOCTYPE svg PUBLIC "-//W3C//DTD SVG 1.1//EN" "http://www.w3.org/Graphics/SVG/1.1/DTD/svg11.dtd">
<svg version="1.1" id="Layer_1" xmlns="http://www.w3.org/2000/svg" xmlns:xlink="http://www.w3.org/1999/xlink" x="0px" y="0px"
	 width="50px" height="50px" viewBox="0 0 50 50" enable-background="new 0 0 50 50" xml:space="preserve">
<path fill="#231F20" d="M24.065,36.953c-6.853,0-12.428-5.575-12.428-12.428c0-6.853,5.575-12.428,12.428-12.428
	s12.428,5.575,12.428,12.428C36.493,31.378,30.918,36.953,24.065,36.953z M24.065,12.847c-6.439,0-11.678,5.239-11.678,11.678
	s5.239,11.678,11.678,11.678c6.439,0,11.678-5.238,11.678-11.678S30.505,12.847,24.065,12.847z M28.019,30.602v0.483h-7.727v-0.483
	c0-0.492,1.476-0.896,3.38-0.957v-1c-1.756-0.148-3.422-1.086-4.43-2.695c-1.695-2.712-0.872-6.287,1.841-7.984l0.513,0.818
	c-2.257,1.412-2.945,4.396-1.533,6.653c1.412,2.257,4.396,2.945,6.653,1.534l0.513,0.818c-0.811,0.507-1.699,0.785-2.59,0.858v0.997
	C26.543,29.705,28.019,30.109,28.019,30.602z M20.292,22.877c0,2.133,1.729,3.862,3.863,3.862s3.863-1.729,3.863-3.862
	c0-2.133-1.729-3.863-3.863-3.863S20.292,20.744,20.292,22.877z"/>
</svg>
